SplineFontDB: 3.2
FontName: ToneOZ-Quicksnow-W300
FullName: ToneOZ-Quicksnow-W300
FamilyName: ToneOZ-Quicksnow-W300
Weight: Light
Copyright: Copyright 2026 ToneOZ (https://toneoz.com)
Version: 0.260329
ItalicAngle: 0
UnderlinePosition: -100
UnderlineWidth: 50
Ascent: 800
Descent: 200
InvalidEm: 0
sfntRevision: 0x000042a5
LayerCount: 2
Layer: 0 1 "Back" 1
Layer: 1 1 "Fore" 0
XUID: [1021 933 835020959 9756]
StyleMap: 0x0040
FSType: 0
OS2Version: 4
OS2_WeightWidthSlopeOnly: 0
OS2_UseTypoMetrics: 1
CreationTime: 1774769700
ModificationTime: 1775853914
PfmFamily: 81
TTFWeight: 300
TTFWidth: 5
LineGap: 0
VLineGap: 0
Panose: 0 0 0 0 0 0 0 0 0 0
OS2TypoAscent: 1000
OS2TypoAOffset: 0
OS2TypoDescent: -250
OS2TypoDOffset: 0
OS2TypoLinegap: 0
OS2WinAscent: 1183
OS2WinAOffset: 0
OS2WinDescent: 303
OS2WinDOffset: 0
HheadAscent: 1000
HheadAOffset: 0
HheadDescent: -250
HheadDOffset: 0
OS2SubXSize: 650
OS2SubYSize: 600
OS2SubXOff: 0
OS2SubYOff: 75
OS2SupXSize: 650
OS2SupYSize: 600
OS2SupXOff: 0
OS2SupYOff: 350
OS2StrikeYSize: 50
OS2StrikeYPos: 302
OS2CapHeight: 700
OS2XHeight: 503
OS2Vendor: 'TNOZ'
OS2CodePages: 201e0193.00000000
OS2UnicodeRanges: a00000ff.4000205b.00000000.00000000
Lookup: 1 0 0 "'aalt' Access All Alternates in Latin lookup 0" { "'aalt' Access All Alternates in Latin lookup 0 subtable"  } ['aalt' ('DFLT' <'dflt' > 'latn' <'AZE ' 'CAT ' 'CRT ' 'KAZ ' 'MOL ' 'NLD ' 'ROM ' 'TAT ' 'TRK ' 'dflt' > ) ]
Lookup: 3 0 0 "'aalt' Access All Alternates in Latin lookup 1" { "'aalt' Access All Alternates in Latin lookup 1 subtable"  } ['aalt' ('DFLT' <'dflt' > 'latn' <'AZE ' 'CAT ' 'CRT ' 'KAZ ' 'MOL ' 'NLD ' 'ROM ' 'TAT ' 'TRK ' 'dflt' > ) ]
Lookup: 6 0 0 "'ccmp' Glyph Composition/Decomposition in Latin lookup 2" { "'ccmp' Glyph Composition/Decomposition in Latin lookup 2 subtable"  } ['ccmp' ('DFLT' <'dflt' > 'latn' <'AZE ' 'CAT ' 'CRT ' 'KAZ ' 'MOL ' 'NLD ' 'ROM ' 'TAT ' 'TRK ' 'dflt' > ) ]

StartChar: .notdef
Encoding: 65536 -1 0
Width: 584
Flags: W
LayerCount: 2
Fore
SplineSet
40 665 m 2,0,1
 40 700 40 700 75 700 c 2,2,-1
 509 700 l 2,3,4
 544 700 544 700 544 665 c 2,5,-1
 544 35 l 2,6,7
 544 0 544 0 509 0 c 2,8,-1
 75 0 l 2,9,10
 40 0 40 0 40 35 c 2,11,-1
 40 665 l 2,0,1
95 670 m 2,12,13
 88 670 88 670 92 664 c 2,14,-1
 508 65 l 2,15,16
 510 62 510 62 512 62.5 c 128,-1,17
 514 63 514 63 514 67 c 2,18,-1
 514 665 l 2,19,20
 514 670 514 670 509 670 c 2,21,-1
 95 670 l 2,12,13
70 35 m 2,22,23
 70 30 70 30 75 30 c 2,24,-1
 488 30 l 2,25,26
 495 30 495 30 491 36 c 2,27,-1
 76 635 l 2,28,29
 74 638 74 638 72 637.5 c 128,-1,30
 70 637 70 637 70 633 c 2,31,-1
 70 35 l 2,22,23
EndSplineSet
EndChar

StartChar: A
Encoding: 65 65 1
Width: 649
GlyphClass: 2
Flags: W
AnchorPoint: "Anchor-3" 584 10 basechar 0
AnchorPoint: "Anchor-2" 325 0 basechar 0
AnchorPoint: "Anchor-0" 325 700 basechar 0
LayerCount: 2
Fore
SplineSet
327 649 m 1,0,-1
 74 13 l 2,1,2
 72 7 72 7 67 3.5 c 128,-1,3
 62 0 62 0 56 0 c 0,4,5
 46 0 46 0 41 5 c 128,-1,6
 36 10 36 10 35 17 c 0,7,8
 34 21 34 21 36 27 c 2,9,-1
 305 689 l 2,10,11
 308 697 308 697 312.5 699.5 c 128,-1,12
 317 702 317 702 324 702 c 0,13,14
 332 702 332 702 337 698.5 c 128,-1,15
 342 695 342 695 344 689 c 2,16,-1
 613 27 l 2,17,18
 614 24 614 24 614 19 c 0,19,20
 614 10 614 10 608 5 c 128,-1,21
 602 0 602 0 593 0 c 0,22,23
 586 0 586 0 580.5 3.5 c 128,-1,24
 575 7 575 7 573 13 c 2,25,-1
 312 657 l 1,26,-1
 327 649 l 1,0,-1
142 217 m 1,27,-1
 156 257 l 1,28,-1
 480 257 l 1,29,-1
 490 217 l 1,30,-1
 142 217 l 1,27,-1
EndSplineSet
Substitution2: "Single Substitution lookup 33 subtable" ordfeminine
Substitution2: "'aalt' Access All Alternates in Latin lookup 0 subtable" ordfeminine
EndChar

StartChar: Aogonek
Encoding: 260 260 23
Width: 649
GlyphClass: 2
Flags: W
AnchorPoint: "Anchor-3" 584 10 basechar 0
AnchorPoint: "Anchor-2" 325 0 basechar 0
AnchorPoint: "Anchor-0" 325 700 basechar 0
LayerCount: 2
Fore
SplineSet
574 -185 m 0,0,1
 541 -185 541 -185 513.5 -160 c 128,-1,2
 486 -135 486 -135 486 -93 c 0,3,4
 486 -70 486 -70 493.5 -51 c 128,-1,5
 501 -32 501 -32 513.5 -17 c 128,-1,6
 526 -2 526 -2 541 8 c 128,-1,7
 556 18 556 18 572 23 c 1,8,-1
 582 20 l 1,9,-1
 573 13 l 1,10,-1
 312 657 l 1,11,-1
 327 649 l 1,12,-1
 74 13 l 2,13,14
 72 7 72 7 67 3.5 c 128,-1,15
 62 0 62 0 56 0 c 0,16,17
 46 0 46 0 41 5 c 128,-1,18
 36 10 36 10 35 17 c 0,19,20
 34 21 34 21 36 27 c 2,21,-1
 305 689 l 2,22,23
 308 697 308 697 312.5 699.5 c 128,-1,24
 317 702 317 702 324 702 c 0,25,26
 332 702 332 702 337 698.5 c 128,-1,27
 342 695 342 695 344 689 c 2,28,-1
 613 27 l 2,29,30
 615 21 615 21 615 18 c 0,31,32
 615 9 615 9 609.5 5.5 c 128,-1,33
 604 2 604 2 595 0 c 0,34,35
 568 -5 568 -5 546 -30.5 c 128,-1,36
 524 -56 524 -56 524 -85 c 0,37,38
 524 -115 524 -115 541 -131.5 c 128,-1,39
 558 -148 558 -148 579 -148 c 0,40,41
 604 -148 604 -148 611 -136 c 0,42,43
 615 -130 615 -130 619 -126 c 128,-1,44
 623 -122 623 -122 630 -122 c 256,45,46
 637 -122 637 -122 641.5 -126.5 c 128,-1,47
 646 -131 646 -131 646 -136 c 0,48,49
 646 -149 646 -149 635.5 -160.5 c 128,-1,50
 625 -172 625 -172 608.5 -178.5 c 128,-1,51
 592 -185 592 -185 574 -185 c 0,0,1
142 217 m 1,52,-1
 156 257 l 1,53,-1
 480 257 l 1,54,-1
 490 217 l 1,55,-1
 142 217 l 1,52,-1
EndSplineSet
EndChar

StartChar: Aring
Encoding: 197 197 24
Width: 649
GlyphClass: 2
Flags: W
AnchorPoint: "Anchor-3" 584 10 basechar 0
AnchorPoint: "Anchor-2" 325 0 basechar 0
AnchorPoint: "Anchor-0" 325 859 basechar 0
LayerCount: 2
Fore
SplineSet
325 671 m 256,0,1
 299 671 299 671 276.5 683.5 c 128,-1,2
 254 696 254 696 240.5 717.5 c 128,-1,3
 227 739 227 739 227 765 c 256,4,5
 227 791 227 791 240.5 812.5 c 128,-1,6
 254 834 254 834 276.5 846.5 c 128,-1,7
 299 859 299 859 325 859 c 256,8,9
 351 859 351 859 373.5 846.5 c 128,-1,10
 396 834 396 834 409.5 812.5 c 128,-1,11
 423 791 423 791 423 765 c 256,12,13
 423 739 423 739 409.5 717.5 c 128,-1,14
 396 696 396 696 373.5 683.5 c 128,-1,15
 351 671 351 671 325 671 c 256,0,1
325 703 m 0,16,17
 351 703 351 703 369 721.5 c 128,-1,18
 387 740 387 740 387 765 c 0,19,20
 387 791 387 791 369 809 c 128,-1,21
 351 827 351 827 325 827 c 0,22,23
 300 827 300 827 281.5 809 c 128,-1,24
 263 791 263 791 263 765 c 0,25,26
 263 740 263 740 281.5 721.5 c 128,-1,27
 300 703 300 703 325 703 c 0,16,17
327 649 m 1,28,-1
 74 13 l 2,29,30
 72 7 72 7 67 3.5 c 128,-1,31
 62 0 62 0 56 0 c 0,32,33
 46 0 46 0 41 5 c 128,-1,34
 36 10 36 10 35 17 c 0,35,36
 34 21 34 21 36 27 c 2,37,-1
 305 689 l 2,38,39
 308 697 308 697 312.5 699.5 c 128,-1,40
 317 702 317 702 324 702 c 0,41,42
 332 702 332 702 337 698.5 c 128,-1,43
 342 695 342 695 344 689 c 2,44,-1
 613 27 l 2,45,46
 614 24 614 24 614 19 c 0,47,48
 614 10 614 10 608 5 c 128,-1,49
 602 0 602 0 593 0 c 0,50,51
 586 0 586 0 580.5 3.5 c 128,-1,52
 575 7 575 7 573 13 c 2,53,-1
 312 657 l 1,54,-1
 327 649 l 1,28,-1
142 217 m 1,55,-1
 156 257 l 1,56,-1
 480 257 l 1,57,-1
 490 217 l 1,58,-1
 142 217 l 1,55,-1
EndSplineSet
EndChar

StartChar: AE
Encoding: 198 198 27
Width: 931
GlyphClass: 2
Flags: W
AnchorPoint: "Anchor-2" 466 0 basechar 0
AnchorPoint: "Anchor-0" 633 700 basechar 0
LayerCount: 2
Fore
SplineSet
168 217 m 1,0,-1
 491 217 l 1,1,-1
 474 201 l 1,2,-1
 474 662 l 1,3,-1
 487 640 l 1,4,-1
 45 8 l 2,5,6
 39 -1 39 -1 28 -1 c 0,7,8
 21 -1 21 -1 15 5 c 128,-1,9
 9 11 9 11 9 20 c 0,10,11
 9 27 9 27 12 31 c 2,12,-1
 474 691 l 2,13,14
 478 696 478 696 482.5 698 c 128,-1,15
 487 700 487 700 492 700 c 2,16,-1
 861 700 l 2,17,18
 869 700 869 700 875 694 c 128,-1,19
 881 688 881 688 881 680 c 0,20,21
 881 671 881 671 875 665.5 c 128,-1,22
 869 660 869 660 861 660 c 2,23,-1
 507 660 l 1,24,-1
 514 670 l 1,25,-1
 514 371 l 1,26,-1
 508 381 l 1,27,-1
 816 381 l 2,28,29
 824 381 824 381 830 375 c 128,-1,30
 836 369 836 369 836 361 c 0,31,32
 836 352 836 352 830 346.5 c 128,-1,33
 824 341 824 341 816 341 c 2,34,-1
 506 341 l 1,35,-1
 514 350 l 1,36,-1
 514 30 l 1,37,-1
 508 40 l 1,38,-1
 861 40 l 2,39,40
 869 40 869 40 875 34 c 128,-1,41
 881 28 881 28 881 20 c 0,42,43
 881 11 881 11 875 5.5 c 128,-1,44
 869 0 869 0 861 0 c 2,45,-1
 494 0 l 2,46,47
 486 0 486 0 480 6 c 128,-1,48
 474 12 474 12 474 20 c 2,49,-1
 474 191 l 1,50,-1
 491 177 l 1,51,-1
 129 177 l 1,52,-1
 168 217 l 1,0,-1
EndSplineSet
EndChar

StartChar: B
Encoding: 66 66 29
Width: 650
GlyphClass: 2
Flags: W
AnchorPoint: "Anchor-2" 325 0 basechar 0
AnchorPoint: "Anchor-0" 325 700 basechar 0
LayerCount: 2
Fore
SplineSet
389 700 m 2,0,1
 469 700 469 700 517 654 c 128,-1,2
 565 608 565 608 565 530 c 0,3,4
 565 489 565 489 548.5 450.5 c 128,-1,5
 532 412 532 412 500 387 c 128,-1,6
 468 362 468 362 421 358 c 1,7,-1
 414 370 l 1,8,9
 453 370 453 370 487 358.5 c 128,-1,10
 521 347 521 347 546 324 c 128,-1,11
 571 301 571 301 585.5 267.5 c 128,-1,12
 600 234 600 234 600 189 c 0,13,14
 600 141 600 141 584 105.5 c 128,-1,15
 568 70 568 70 540 46.5 c 128,-1,16
 512 23 512 23 475 11.5 c 128,-1,17
 438 0 438 0 396 0 c 2,18,-1
 120 0 l 2,19,20
 112 0 112 0 106 6 c 128,-1,21
 100 12 100 12 100 20 c 2,22,-1
 100 680 l 2,23,24
 100 688 100 688 106 694 c 128,-1,25
 112 700 112 700 120 700 c 2,26,-1
 389 700 l 2,0,1
384 660 m 2,27,-1
 142 660 l 1,28,-1
 142 379 l 1,29,-1
 384 379 l 2,30,31
 443 380 443 380 483 418 c 128,-1,32
 523 456 523 456 523 531 c 0,33,34
 523 589 523 589 487 624.5 c 128,-1,35
 451 660 451 660 384 660 c 2,27,-1
391 338 m 2,36,-1
 142 338 l 1,37,-1
 142 32 l 1,38,-1
 137 40 l 1,39,-1
 391 40 l 2,40,41
 462 40 462 40 510 75.5 c 128,-1,42
 558 111 558 111 558 189 c 0,43,44
 558 241 558 241 536 274 c 128,-1,45
 514 307 514 307 476 322.5 c 128,-1,46
 438 338 438 338 391 338 c 2,36,-1
EndSplineSet
EndChar

StartChar: C
Encoding: 67 67 30
Width: 662
GlyphClass: 2
Flags: W
AnchorPoint: "Anchor-2" 411 0 basechar 0
AnchorPoint: "Anchor-0" 399 700 basechar 0
LayerCount: 2
Fore
SplineSet
618 642 m 0,0,1
 626 636 626 636 627 628.5 c 128,-1,2
 628 621 628 621 623 613 c 0,3,4
 618 606 618 606 610.5 605.5 c 128,-1,5
 603 605 603 605 596 609 c 0,6,7
 554 638 554 638 504.5 655 c 128,-1,8
 455 672 455 672 399 672 c 0,9,10
 335 672 335 672 279.5 648.5 c 128,-1,11
 224 625 224 625 182 582 c 128,-1,12
 140 539 140 539 116 480 c 128,-1,13
 92 421 92 421 92 350 c 256,14,15
 92 279 92 279 116 220 c 128,-1,16
 140 161 140 161 182 118 c 128,-1,17
 224 75 224 75 279.5 51.5 c 128,-1,18
 335 28 335 28 399 28 c 0,19,20
 455 28 455 28 504 45 c 128,-1,21
 553 62 553 62 595 90 c 0,22,23
 602 95 602 95 610 94 c 128,-1,24
 618 93 618 93 623 86 c 256,25,26
 628 79 628 79 627 71 c 128,-1,27
 626 63 626 63 619 58 c 0,28,29
 595 41 595 41 558.5 25 c 128,-1,30
 522 9 522 9 481 -0.5 c 128,-1,31
 440 -10 440 -10 399 -10 c 0,32,33
 327 -10 327 -10 264 17 c 128,-1,34
 201 44 201 44 153 92.5 c 128,-1,35
 105 141 105 141 77.5 206.5 c 128,-1,36
 50 272 50 272 50 350 c 256,37,38
 50 428 50 428 77.5 493.5 c 128,-1,39
 105 559 105 559 153 607.5 c 128,-1,40
 201 656 201 656 264 683 c 128,-1,41
 327 710 327 710 399 710 c 0,42,43
 460 710 460 710 516.5 692 c 128,-1,44
 573 674 573 674 618 642 c 0,0,1
EndSplineSet
EndChar

StartChar: D
Encoding: 68 68 37
Width: 720
GlyphClass: 2
Flags: W
AnchorPoint: "Anchor-4" 124 350 basechar 0
AnchorPoint: "Anchor-2" 305 0 basechar 0
AnchorPoint: "Anchor-0" 313 700 basechar 0
LayerCount: 2
Fore
SplineSet
380 700 m 2,0,1
 455 700 455 700 510 671.5 c 128,-1,2
 565 643 565 643 600.5 593.5 c 128,-1,3
 636 544 636 544 653 481 c 128,-1,4
 670 418 670 418 670 350 c 0,5,6
 670 254 670 254 639.5 174.5 c 128,-1,7
 609 95 609 95 545 47.5 c 128,-1,8
 481 0 481 0 380 0 c 2,9,-1
 120 0 l 2,10,11
 112 0 112 0 106 6 c 128,-1,12
 100 12 100 12 100 20 c 2,13,-1
 100 680 l 2,14,15
 100 688 100 688 106 694 c 128,-1,16
 112 700 112 700 120 700 c 2,17,-1
 380 700 l 2,0,1
370 40 m 2,18,19
 462 40 462 40 518.5 81.5 c 128,-1,20
 575 123 575 123 601.5 193.5 c 128,-1,21
 628 264 628 264 628 350 c 0,22,23
 628 411 628 411 613.5 467 c 128,-1,24
 599 523 599 523 568 566.5 c 128,-1,25
 537 610 537 610 488 635 c 128,-1,26
 439 660 439 660 370 660 c 2,27,-1
 142 660 l 1,28,-1
 142 31 l 1,29,-1
 136 40 l 1,30,-1
 370 40 l 2,18,19
EndSplineSet
EndChar

StartChar: E
Encoding: 69 69 47
Width: 567
GlyphClass: 2
Flags: W
AnchorPoint: "Anchor-3" 510 10 basechar 0
AnchorPoint: "Anchor-2" 320 0 basechar 0
AnchorPoint: "Anchor-0" 322 700 basechar 0
LayerCount: 2
Fore
SplineSet
120 700 m 2,0,-1
 497 700 l 2,1,2
 505 700 505 700 511 694 c 128,-1,3
 517 688 517 688 517 680 c 0,4,5
 517 671 517 671 511 665.5 c 128,-1,6
 505 660 505 660 497 660 c 2,7,-1
 132 660 l 1,8,-1
 142 677 l 1,9,-1
 142 367 l 1,10,-1
 130 381 l 1,11,-1
 452 381 l 2,12,13
 460 381 460 381 466 375 c 128,-1,14
 472 369 472 369 472 361 c 0,15,16
 472 352 472 352 466 346.5 c 128,-1,17
 460 341 460 341 452 341 c 2,18,-1
 132 341 l 1,19,-1
 142 352 l 1,20,-1
 142 35 l 1,21,-1
 138 40 l 1,22,-1
 497 40 l 2,23,24
 505 40 505 40 511 34 c 128,-1,25
 517 28 517 28 517 20 c 0,26,27
 517 11 517 11 511 5.5 c 128,-1,28
 505 0 505 0 497 0 c 2,29,-1
 120 0 l 2,30,31
 112 0 112 0 106 6 c 128,-1,32
 100 12 100 12 100 20 c 2,33,-1
 100 680 l 2,34,35
 100 688 100 688 106 694 c 128,-1,36
 112 700 112 700 120 700 c 2,0,-1
EndSplineSet
EndChar

StartChar: Eogonek
Encoding: 280 280 68
Width: 581
GlyphClass: 2
Flags: W
AnchorPoint: "Anchor-3" 510 10 basechar 0
AnchorPoint: "Anchor-2" 320 0 basechar 0
AnchorPoint: "Anchor-0" 304 700 basechar 0
LayerCount: 2
Fore
SplineSet
459 -185 m 0,0,1
 426 -185 426 -185 398.5 -160 c 128,-1,2
 371 -135 371 -135 371 -93 c 0,3,4
 371 -70 371 -70 378.5 -51.5 c 128,-1,5
 386 -33 386 -33 398.5 -20 c 128,-1,6
 411 -7 411 -7 426 2.5 c 128,-1,7
 441 12 441 12 457 17 c 1,8,-1
 465 0 l 1,9,-1
 120 0 l 2,10,11
 112 0 112 0 106 6 c 128,-1,12
 100 12 100 12 100 20 c 2,13,-1
 100 680 l 2,14,15
 100 688 100 688 106 694 c 128,-1,16
 112 700 112 700 120 700 c 2,17,-1
 497 700 l 2,18,19
 505 700 505 700 511 694 c 128,-1,20
 517 688 517 688 517 680 c 0,21,22
 517 671 517 671 511 665.5 c 128,-1,23
 505 660 505 660 497 660 c 2,24,-1
 132 660 l 1,25,-1
 142 677 l 1,26,-1
 142 367 l 1,27,-1
 130 381 l 1,28,-1
 452 381 l 2,29,30
 460 381 460 381 466 375 c 128,-1,31
 472 369 472 369 472 361 c 0,32,33
 472 352 472 352 466 346.5 c 128,-1,34
 460 341 460 341 452 341 c 2,35,-1
 132 341 l 1,36,-1
 142 352 l 1,37,-1
 142 35 l 1,38,-1
 138 40 l 1,39,-1
 497 40 l 2,40,41
 505 40 505 40 511 34 c 128,-1,42
 517 28 517 28 517 20 c 0,43,44
 517 11 517 11 510.5 5.5 c 128,-1,45
 504 0 504 0 492 -1 c 0,46,47
 474 -2 474 -2 455 -13.5 c 128,-1,48
 436 -25 436 -25 422.5 -43.5 c 128,-1,49
 409 -62 409 -62 409 -85 c 0,50,51
 409 -115 409 -115 426 -131.5 c 128,-1,52
 443 -148 443 -148 464 -148 c 0,53,54
 491 -148 491 -148 496 -137 c 0,55,56
 500 -130 500 -130 505 -126 c 128,-1,57
 510 -122 510 -122 517 -122 c 256,58,59
 524 -122 524 -122 527.5 -126.5 c 128,-1,60
 531 -131 531 -131 531 -136 c 0,61,62
 531 -149 531 -149 521.5 -160.5 c 128,-1,63
 512 -172 512 -172 496 -178.5 c 128,-1,64
 480 -185 480 -185 459 -185 c 0,0,1
EndSplineSet
EndChar

StartChar: F
Encoding: 70 70 70
Width: 567
GlyphClass: 2
Flags: W
AnchorPoint: "Anchor-4" 127 214 basechar 0
AnchorPoint: "Anchor-2" 284 0 basechar 0
AnchorPoint: "Anchor-0" 284 700 basechar 0
LayerCount: 2
Fore
SplineSet
120 0 m 256,0,1
 111 0 111 0 105.5 6 c 128,-1,2
 100 12 100 12 100 20 c 2,3,-1
 100 680 l 2,4,5
 100 688 100 688 106 694 c 128,-1,6
 112 700 112 700 120 700 c 2,7,-1
 497 700 l 2,8,9
 505 700 505 700 511 694 c 128,-1,10
 517 688 517 688 517 680 c 0,11,12
 517 671 517 671 511 665.5 c 128,-1,13
 505 660 505 660 497 660 c 2,14,-1
 137 660 l 1,15,-1
 140 664 l 1,16,-1
 140 376 l 1,17,-1
 136 384 l 1,18,-1
 452 384 l 2,19,20
 460 384 460 384 466 378 c 128,-1,21
 472 372 472 372 472 364 c 0,22,23
 472 355 472 355 466 349.5 c 128,-1,24
 460 344 460 344 452 344 c 2,25,-1
 134 344 l 1,26,-1
 140 352 l 1,27,-1
 140 20 l 2,28,29
 140 12 140 12 134.5 6 c 128,-1,30
 129 0 129 0 120 0 c 256,0,1
EndSplineSet
EndChar

StartChar: G
Encoding: 71 71 71
Width: 694
GlyphClass: 2
Flags: W
AnchorPoint: "Anchor-2" 388 0 basechar 0
AnchorPoint: "Anchor-0" 377 700 basechar 0
LayerCount: 2
Fore
SplineSet
409 -10 m 0,0,1
 331 -10 331 -10 265.5 16.5 c 128,-1,2
 200 43 200 43 151.5 91.5 c 128,-1,3
 103 140 103 140 76.5 206 c 128,-1,4
 50 272 50 272 50 350 c 256,5,6
 50 428 50 428 76.5 494 c 128,-1,7
 103 560 103 560 151.5 608.5 c 128,-1,8
 200 657 200 657 265.5 683.5 c 128,-1,9
 331 710 331 710 409 710 c 0,10,11
 464 710 464 710 515 696.5 c 128,-1,12
 566 683 566 683 606 656 c 0,13,14
 611 653 611 653 613 648.5 c 128,-1,15
 615 644 615 644 615 639 c 0,16,17
 615 629 615 629 608 624 c 128,-1,18
 601 619 601 619 596 619 c 0,19,20
 592 619 592 619 589 620.5 c 128,-1,21
 586 622 586 622 583 623 c 0,22,23
 546 644 546 644 502 657 c 128,-1,24
 458 670 458 670 409 670 c 0,25,26
 316 670 316 670 244.5 628.5 c 128,-1,27
 173 587 173 587 132.5 515 c 128,-1,28
 92 443 92 443 92 350 c 256,29,30
 92 257 92 257 132.5 184.5 c 128,-1,31
 173 112 173 112 244.5 71 c 128,-1,32
 316 30 316 30 409 30 c 0,33,34
 459 30 459 30 507.5 45.5 c 128,-1,35
 556 61 556 61 593 86 c 1,36,-1
 589 68 l 1,37,-1
 589 318 l 1,38,-1
 603 305 l 1,39,-1
 409 305 l 2,40,41
 401 305 401 305 395 311 c 128,-1,42
 389 317 389 317 389 325 c 0,43,44
 389 334 389 334 395 339.5 c 128,-1,45
 401 345 401 345 409 345 c 2,46,-1
 609 345 l 2,47,48
 618 345 618 345 623.5 339 c 128,-1,49
 629 333 629 333 629 325 c 2,50,-1
 629 74 l 2,51,52
 629 70 629 70 627 65 c 128,-1,53
 625 60 625 60 620 56 c 0,54,55
 576 26 576 26 521.5 8 c 128,-1,56
 467 -10 467 -10 409 -10 c 0,0,1
EndSplineSet
EndChar

StartChar: H
Encoding: 72 72 78
Width: 720
GlyphClass: 2
Flags: W
AnchorPoint: "Anchor-4" 360 350 basechar 0
AnchorPoint: "Anchor-2" 360 0 basechar 0
AnchorPoint: "Anchor-0" 360 700 basechar 0
LayerCount: 2
Fore
SplineSet
142 314 m 2,0,-1
 142 21 l 2,1,2
 141 12 141 12 135 6 c 128,-1,3
 129 0 129 0 121 0 c 0,4,5
 111 0 111 0 105.5 6 c 128,-1,6
 100 12 100 12 100 21 c 2,7,-1
 100 679 l 2,8,9
 100 688 100 688 106 694 c 128,-1,10
 112 700 112 700 121 700 c 256,11,12
 130 700 130 700 136 694 c 128,-1,13
 142 688 142 688 142 679 c 2,14,-1
 142 404 l 1,15,-1
 142 380 l 1,16,-1
 601 380 l 1,17,-1
 601 340 l 1,18,-1
 143 340 l 2,19,20
 142 340 142 340 142 314 c 2,0,-1
599 700 m 256,21,22
 608 700 608 700 614 694 c 128,-1,23
 620 688 620 688 620 679 c 2,24,-1
 620 21 l 2,25,26
 619 12 619 12 613 6 c 128,-1,27
 607 0 607 0 599 0 c 0,28,29
 589 0 589 0 583.5 6 c 128,-1,30
 578 12 578 12 578 21 c 2,31,-1
 578 679 l 2,32,33
 578 688 578 688 584 694 c 128,-1,34
 590 700 590 700 599 700 c 256,21,22
EndSplineSet
EndChar

StartChar: Hbar
Encoding: 294 294 79
Width: 841
GlyphClass: 2
Flags: W
AnchorPoint: "Anchor-4" 420 350 basechar 0
AnchorPoint: "Anchor-2" 420 0 basechar 0
AnchorPoint: "Anchor-0" 420 700 basechar 0
LayerCount: 2
Fore
SplineSet
120 489 m 2,0,1
 112 489 112 489 106 495 c 128,-1,2
 100 501 100 501 100 509 c 0,3,4
 100 518 100 518 106 523.5 c 128,-1,5
 112 529 112 529 120 529 c 2,6,-1
 721 529 l 2,7,8
 729 529 729 529 735 523 c 128,-1,9
 741 517 741 517 741 509 c 0,10,11
 741 500 741 500 735 494.5 c 128,-1,12
 729 489 729 489 721 489 c 2,13,-1
 120 489 l 2,0,1
181 700 m 256,14,15
 190 700 190 700 196 694 c 128,-1,16
 202 688 202 688 202 679 c 2,17,-1
 202 21 l 2,18,19
 201 12 201 12 195 6 c 128,-1,20
 189 0 189 0 181 0 c 0,21,22
 171 0 171 0 165.5 6 c 128,-1,23
 160 12 160 12 160 21 c 2,24,-1
 160 679 l 2,25,26
 160 688 160 688 166 694 c 128,-1,27
 172 700 172 700 181 700 c 256,14,15
659 700 m 256,28,29
 668 700 668 700 674 694 c 128,-1,30
 680 688 680 688 680 679 c 2,31,-1
 680 21 l 2,32,33
 679 12 679 12 673 6 c 128,-1,34
 667 0 667 0 659 0 c 0,35,36
 649 0 649 0 643.5 6 c 128,-1,37
 638 12 638 12 638 21 c 2,38,-1
 638 679 l 2,39,40
 638 688 638 688 644 694 c 128,-1,41
 650 700 650 700 659 700 c 256,28,29
176 380 m 1,42,-1
 661 380 l 1,43,-1
 659 340 l 1,44,-1
 170 340 l 1,45,-1
 176 380 l 1,42,-1
EndSplineSet
EndChar

StartChar: I
Encoding: 73 73 83
Width: 322
GlyphClass: 2
Flags: W
AnchorPoint: "Anchor-3" 318 10 basechar 0
AnchorPoint: "Anchor-2" 161 0 basechar 0
AnchorPoint: "Anchor-0" 161 700 basechar 0
LayerCount: 2
Fore
SplineSet
46 0 m 2,0,1
 38 0 38 0 32.5 6 c 128,-1,2
 27 12 27 12 27 21 c 0,3,4
 27 29 27 29 32.5 34.5 c 128,-1,5
 38 40 38 40 46 40 c 2,6,-1
 276 40 l 2,7,8
 284 40 284 40 289.5 34 c 128,-1,9
 295 28 295 28 295 19 c 0,10,11
 295 11 295 11 289.5 5.5 c 128,-1,12
 284 0 284 0 276 0 c 2,13,-1
 46 0 l 2,0,1
46 660 m 2,14,15
 38 660 38 660 32.5 666 c 128,-1,16
 27 672 27 672 27 681 c 0,17,18
 27 689 27 689 32.5 694.5 c 128,-1,19
 38 700 38 700 46 700 c 2,20,-1
 276 700 l 2,21,22
 284 700 284 700 289.5 694 c 128,-1,23
 295 688 295 688 295 679 c 0,24,25
 295 671 295 671 289.5 665.5 c 128,-1,26
 284 660 284 660 276 660 c 2,27,-1
 46 660 l 2,14,15
182 41 m 2,28,29
 181 32 181 32 175 26 c 128,-1,30
 169 20 169 20 161 20 c 0,31,32
 151 20 151 20 145.5 26 c 128,-1,33
 140 32 140 32 140 41 c 2,34,-1
 140 659 l 2,35,36
 140 668 140 668 146 674 c 128,-1,37
 152 680 152 680 161 680 c 256,38,39
 170 680 170 680 176 674 c 128,-1,40
 182 668 182 668 182 659 c 2,41,-1
 182 41 l 2,28,29
EndSplineSet
EndChar

StartChar: IJ
Encoding: 306 306 84
Width: 603
GlyphClass: 2
Flags: W
AnchorPoint: "Anchor-3" 234 10 basechar 0
AnchorPoint: "Anchor-2" 137 0 basechar 0
AnchorPoint: "Anchor-0" 483 700 basechar 0
LayerCount: 2
Fore
SplineSet
158 251 m 2,0,1
 157 242 157 242 151 236 c 128,-1,2
 145 230 145 230 137 230 c 0,3,4
 127 230 127 230 121.5 236 c 128,-1,5
 116 242 116 242 116 251 c 2,6,-1
 116 679 l 2,7,8
 116 688 116 688 122 694 c 128,-1,9
 128 700 128 700 137 700 c 256,10,11
 146 700 146 700 152 694 c 128,-1,12
 158 688 158 688 158 679 c 2,13,-1
 158 251 l 2,0,1
292 -10 m 0,14,15
 227 -10 227 -10 177 29 c 128,-1,16
 127 68 127 68 102 129 c 0,17,18
 100 135 100 135 100 139 c 0,19,20
 100 148 100 148 106.5 152.5 c 128,-1,21
 113 157 113 157 120 157 c 0,22,23
 128 157 128 157 132 153.5 c 128,-1,24
 136 150 136 150 139 144 c 0,25,26
 158 94 158 94 199 62 c 128,-1,27
 240 30 240 30 292 30 c 256,28,29
 344 30 344 30 381.5 51 c 128,-1,30
 419 72 419 72 440 110 c 128,-1,31
 461 148 461 148 461 199 c 2,32,-1
 461 680 l 2,33,34
 461 688 461 688 467 694 c 128,-1,35
 473 700 473 700 483 700 c 0,36,37
 492 700 492 700 497.5 694 c 128,-1,38
 503 688 503 688 503 680 c 2,39,-1
 503 199 l 2,40,41
 503 137 503 137 476.5 89.5 c 128,-1,42
 450 42 450 42 402.5 16 c 128,-1,43
 355 -10 355 -10 292 -10 c 0,14,15
EndSplineSet
EndChar

StartChar: Iogonek
Encoding: 302 302 98
Width: 322
GlyphClass: 2
Flags: W
AnchorPoint: "Anchor-3" 316 10 basechar 0
AnchorPoint: "Anchor-2" 162 0 basechar 0
AnchorPoint: "Anchor-0" 159 700 basechar 0
LayerCount: 2
Fore
SplineSet
46 0 m 2,0,1
 38 0 38 0 32.5 6 c 128,-1,2
 27 12 27 12 27 21 c 0,3,4
 27 29 27 29 32.5 34.5 c 128,-1,5
 38 40 38 40 46 40 c 2,6,-1
 276 40 l 2,7,8
 284 40 284 40 289.5 34 c 128,-1,9
 295 28 295 28 295 19 c 0,10,11
 295 11 295 11 289.5 5.5 c 128,-1,12
 284 0 284 0 276 0 c 2,13,-1
 46 0 l 2,0,1
46 660 m 2,14,15
 38 660 38 660 32.5 666 c 128,-1,16
 27 672 27 672 27 681 c 0,17,18
 27 689 27 689 32.5 694.5 c 128,-1,19
 38 700 38 700 46 700 c 2,20,-1
 276 700 l 2,21,22
 284 700 284 700 289.5 694 c 128,-1,23
 295 688 295 688 295 679 c 0,24,25
 295 671 295 671 289.5 665.5 c 128,-1,26
 284 660 284 660 276 660 c 2,27,-1
 46 660 l 2,14,15
145 -185 m 0,28,29
 112 -185 112 -185 84.5 -160 c 128,-1,30
 57 -135 57 -135 57 -93 c 0,31,32
 57 -70 57 -70 64 -51 c 128,-1,33
 71 -32 71 -32 83 -17 c 128,-1,34
 95 -2 95 -2 110 8 c 128,-1,35
 125 18 125 18 141 23 c 1,36,-1
 146 19 l 1,37,-1
 140 21 l 1,38,-1
 140 659 l 2,39,40
 140 668 140 668 146 674 c 128,-1,41
 152 680 152 680 161 680 c 256,42,43
 170 680 170 680 176 674 c 128,-1,44
 182 668 182 668 182 659 c 2,45,-1
 182 30 l 2,46,47
 182 20 182 20 177.5 15.5 c 128,-1,48
 173 11 173 11 162 6 c 0,49,50
 140 -3 140 -3 117.5 -26.5 c 128,-1,51
 95 -50 95 -50 95 -85 c 0,52,53
 95 -115 95 -115 112 -131.5 c 128,-1,54
 129 -148 129 -148 150 -148 c 0,55,56
 169 -148 169 -148 177 -141.5 c 128,-1,57
 185 -135 185 -135 190 -128.5 c 128,-1,58
 195 -122 195 -122 203 -122 c 0,59,60
 210 -122 210 -122 213.5 -126.5 c 128,-1,61
 217 -131 217 -131 217 -136 c 0,62,63
 217 -149 217 -149 207.5 -160.5 c 128,-1,64
 198 -172 198 -172 182 -178.5 c 128,-1,65
 166 -185 166 -185 145 -185 c 0,28,29
EndSplineSet
EndChar

StartChar: J
Encoding: 74 74 100
Width: 596
GlyphClass: 2
Flags: W
AnchorPoint: "Anchor-2" 199 0 basechar 0
AnchorPoint: "Anchor-0" 368 700 basechar 0
LayerCount: 2
Fore
SplineSet
542 660 m 2,0,-1
 388 660 l 1,1,-1
 388 199 l 2,2,3
 388 137 388 137 361.5 89.5 c 128,-1,4
 335 42 335 42 287.5 16 c 128,-1,5
 240 -10 240 -10 197 -10 c 0,6,7
 132 -10 132 -10 82 29 c 0,8,9
 60 46 60 46 53 56 c 0,10,11
 48 62 48 62 50 71 c 0,12,13
 52 82 52 82 58 85 c 0,14,15
 67 89 67 89 78 84 c 0,16,17
 86 76 86 76 104 62 c 0,18,19
 145 30 145 30 197 30 c 0,20,21
 229 30 229 30 266.5 51 c 128,-1,22
 304 72 304 72 325 110 c 128,-1,23
 346 148 346 148 346 199 c 2,24,-1
 346 660 l 1,25,-1
 192 660 l 2,26,27
 184 660 184 660 178.5 666 c 128,-1,28
 173 672 173 672 173 681 c 0,29,30
 173 689 173 689 178.5 694.5 c 128,-1,31
 184 700 184 700 192 700 c 2,32,-1
 542 700 l 2,33,34
 550 700 550 700 555.5 694 c 128,-1,35
 561 688 561 688 561 679 c 0,36,37
 561 671 561 671 555.5 665.5 c 128,-1,38
 550 660 550 660 542 660 c 2,0,-1
EndSplineSet
Substitution2: "Single Substitution lookup 21 subtable" uni004A0301
Substitution2: "'aalt' Access All Alternates in Latin lookup 0 subtable" uni004A0301
EndChar

StartChar: K
Encoding: 75 75 103
Width: 622
GlyphClass: 2
Flags: W
AnchorPoint: "Anchor-2" 300 0 basechar 0
AnchorPoint: "Anchor-0" 321 700 basechar 0
LayerCount: 2
Fore
SplineSet
566 -5 m 0,0,1
 561 -5 561 -5 552 2 c 2,2,-1
 107 352 l 1,3,-1
 139 384 l 1,4,-1
 584 30 l 2,5,6
 589 26 589 26 589 16 c 0,7,8
 589 4 589 4 580.5 -0.5 c 128,-1,9
 572 -5 572 -5 566 -5 c 0,0,1
548 696 m 0,10,11
 556 696 556 696 562 690 c 128,-1,12
 568 684 568 684 568 676 c 0,13,14
 568 667 568 667 562 662 c 2,15,-1
 150 351 l 1,16,-1
 116 356 l 1,17,-1
 107 369 l 1,18,-1
 534 690 l 2,19,20
 542 696 542 696 548 696 c 0,10,11
101 0 m 0,21,22
 91 0 91 0 85.5 6 c 128,-1,23
 80 12 80 12 80 21 c 2,24,-1
 80 679 l 2,25,26
 80 688 80 688 86 694 c 128,-1,27
 92 700 92 700 101 700 c 256,28,29
 110 700 110 700 116 694 c 128,-1,30
 122 688 122 688 122 679 c 2,31,-1
 122 21 l 2,32,33
 121 12 121 12 115 6 c 128,-1,34
 109 0 109 0 101 0 c 0,21,22
EndSplineSet
EndChar

StartChar: L
Encoding: 76 76 105
Width: 522
GlyphClass: 2
Flags: W
AnchorPoint: "Anchor-4" 261 350 basechar 0
AnchorPoint: "Anchor-2" 286 0 basechar 0
AnchorPoint: "Anchor-1" 502 700 basechar 0
AnchorPoint: "Anchor-0" 111 700 basechar 0
LayerCount: 2
Fore
SplineSet
487 40 m 2,0,1
 495 40 495 40 501 34 c 128,-1,2
 507 28 507 28 507 20 c 0,3,4
 507 11 507 11 501 5.5 c 128,-1,5
 495 0 495 0 487 0 c 2,6,-1
 120 0 l 2,7,8
 111 0 111 0 105.5 6 c 128,-1,9
 100 12 100 12 100 20 c 2,10,-1
 100 680 l 2,11,12
 100 688 100 688 106 694 c 128,-1,13
 112 700 112 700 121 700 c 256,14,15
 130 700 130 700 136 694 c 128,-1,16
 142 688 142 688 142 680 c 2,17,-1
 142 22 l 1,18,-1
 124 40 l 1,19,-1
 487 40 l 2,0,1
EndSplineSet
EndChar

StartChar: Lslash
Encoding: 321 321 115
Width: 561
Flags: W
LayerCount: 2
Fore
SplineSet
68 348 m 0,0,1
 59 348 59 348 54.5 353.5 c 128,-1,2
 50 359 50 359 50 367 c 0,3,4
 50 380 50 380 62 386 c 2,5,-1
 262 474 l 2,6,7
 268 477 268 477 273 477 c 0,8,9
 284 477 284 477 287.5 469.5 c 128,-1,10
 291 462 291 462 291 457 c 0,11,12
 291 444 291 444 278 438 c 2,13,-1
 78 350 l 2,14,15
 76 349 76 349 73 348.5 c 128,-1,16
 70 348 70 348 68 348 c 0,0,1
179 32 m 1,17,-1
 172 40 l 1,18,-1
 526 40 l 2,19,20
 534 40 534 40 540 34 c 128,-1,21
 546 28 546 28 546 20 c 0,22,23
 546 11 546 11 540 5.5 c 128,-1,24
 534 0 534 0 526 0 c 2,25,-1
 159 0 l 2,26,27
 150 0 150 0 144.5 6 c 128,-1,28
 139 12 139 12 139 20 c 2,29,-1
 139 680 l 2,30,31
 139 688 139 688 145 694 c 128,-1,32
 151 700 151 700 159 700 c 0,33,34
 168 700 168 700 173.5 694 c 128,-1,35
 179 688 179 688 179 680 c 2,36,-1
 179 32 l 1,17,-1
EndSplineSet
EndChar

StartChar: M
Encoding: 77 77 116
Width: 829
GlyphClass: 2
Flags: W
AnchorPoint: "Anchor-2" 415 0 basechar 0
AnchorPoint: "Anchor-0" 415 700 basechar 0
LayerCount: 2
Fore
SplineSet
119 700 m 0,0,1
 124 700 124 700 129 698 c 128,-1,2
 134 696 134 696 138 691 c 2,3,-1
 425 264 l 1,4,-1
 405 264 l 1,5,-1
 692 691 l 2,6,7
 700 702 700 702 711 700 c 0,8,9
 719 699 719 699 724 693.5 c 128,-1,10
 729 688 729 688 729 680 c 2,11,-1
 729 20 l 2,12,13
 729 12 729 12 722.5 6 c 128,-1,14
 716 0 716 0 708 0 c 0,15,16
 699 0 699 0 693 6 c 128,-1,17
 687 12 687 12 687 20 c 2,18,-1
 687 635 l 1,19,-1
 698 635 l 1,20,-1
 429 228 l 2,21,22
 427 224 427 224 423.5 222 c 128,-1,23
 420 220 420 220 415 220 c 256,24,25
 410 220 410 220 405.5 222 c 128,-1,26
 401 224 401 224 399 228 c 2,27,-1
 124 643 l 1,28,-1
 140 643 l 1,29,-1
 140 20 l 2,30,31
 140 12 140 12 134 6 c 128,-1,32
 128 0 128 0 120 0 c 0,33,34
 111 0 111 0 105.5 6 c 128,-1,35
 100 12 100 12 100 20 c 2,36,-1
 100 680 l 2,37,38
 100 687 100 687 105 693.5 c 128,-1,39
 110 700 110 700 119 700 c 0,0,1
EndSplineSet
EndChar

StartChar: N
Encoding: 78 78 118
Width: 725
GlyphClass: 2
Flags: W
AnchorPoint: "Anchor-2" 363 0 basechar 0
AnchorPoint: "Anchor-0" 363 700 basechar 0
LayerCount: 2
Fore
SplineSet
606 700 m 0,0,1
 615 700 615 700 620 694.5 c 128,-1,2
 625 689 625 689 625 681 c 2,3,-1
 625 22 l 2,4,5
 625 11 625 11 618.5 5.5 c 128,-1,6
 612 0 612 0 604 0 c 0,7,8
 600 0 600 0 595.5 2 c 128,-1,9
 591 4 591 4 588 8 c 2,10,-1
 124 642 l 1,11,-1
 138 649 l 1,12,-1
 138 17 l 2,13,14
 138 10 138 10 132.5 5 c 128,-1,15
 127 0 127 0 119 0 c 0,16,17
 110 0 110 0 105 5 c 128,-1,18
 100 10 100 10 100 17 c 2,19,-1
 100 680 l 2,20,21
 100 691 100 691 106 695.5 c 128,-1,22
 112 700 112 700 118 700 c 0,23,24
 122 700 122 700 126 698.5 c 128,-1,25
 130 697 130 697 133 693 c 2,26,-1
 595 63 l 1,27,-1
 587 43 l 1,28,-1
 587 681 l 2,29,30
 587 689 587 689 593 694.5 c 128,-1,31
 599 700 599 700 606 700 c 0,0,1
EndSplineSet
EndChar

StartChar: uni019D
Encoding: 413 413 126
Width: 725
GlyphClass: 2
Flags: W
AnchorPoint: "Anchor-2" 363 0 basechar 0
AnchorPoint: "Anchor-0" 363 700 basechar 0
LayerCount: 2
Fore
SplineSet
4 -198 m 0,0,1
 -6 -199 -6 -199 -12 -193.5 c 128,-1,2
 -18 -188 -18 -188 -18 -180 c 0,3,4
 -18 -170 -18 -170 -12.5 -165 c 128,-1,5
 -7 -160 -7 -160 0 -159 c 0,6,7
 22 -155 22 -155 45 -144 c 128,-1,8
 68 -133 68 -133 84 -112 c 128,-1,9
 100 -91 100 -91 100 -58 c 2,10,-1
 100 680 l 2,11,12
 100 691 100 691 106 695.5 c 128,-1,13
 112 700 112 700 118 700 c 0,14,15
 122 700 122 700 126 698.5 c 128,-1,16
 130 697 130 697 133 693 c 2,17,-1
 595 63 l 1,18,-1
 587 43 l 1,19,-1
 587 681 l 2,20,21
 587 689 587 689 593 694.5 c 128,-1,22
 599 700 599 700 606 700 c 0,23,24
 615 700 615 700 620 694.5 c 128,-1,25
 625 689 625 689 625 681 c 2,26,-1
 625 22 l 2,27,28
 625 11 625 11 618.5 5.5 c 128,-1,29
 612 0 612 0 604 0 c 0,30,31
 600 0 600 0 595.5 2 c 128,-1,32
 591 4 591 4 588 8 c 2,33,-1
 124 642 l 1,34,-1
 138 649 l 1,35,-1
 138 -58 l 2,36,37
 138 -84 138 -84 130 -105 c 128,-1,38
 122 -126 122 -126 109 -142 c 128,-1,39
 96 -158 96 -158 78.5 -169.5 c 128,-1,40
 61 -181 61 -181 42 -188 c 128,-1,41
 23 -195 23 -195 4 -198 c 0,0,1
EndSplineSet
EndChar

StartChar: Eng
Encoding: 330 330 130
Width: 745
Flags: W
LayerCount: 2
Fore
SplineSet
470 -200 m 0,0,1
 460 -200 460 -200 454 -194.5 c 128,-1,2
 448 -189 448 -189 448 -180 c 256,3,4
 448 -171 448 -171 454 -165.5 c 128,-1,5
 460 -160 460 -160 469 -160 c 0,6,7
 527 -160 527 -160 556 -145 c 128,-1,8
 585 -130 585 -130 595 -103.5 c 128,-1,9
 605 -77 605 -77 605 -44 c 2,10,-1
 606 37 l 1,11,-1
 612 4 l 1,12,-1
 139 623 l 1,13,-1
 140 626 l 1,14,-1
 140 20 l 2,15,16
 140 12 140 12 134 6 c 128,-1,17
 128 0 128 0 120 0 c 0,18,19
 111 0 111 0 105.5 6 c 128,-1,20
 100 12 100 12 100 20 c 2,21,-1
 100 680 l 2,22,23
 100 690 100 690 106.5 695 c 128,-1,24
 113 700 113 700 121 700 c 0,25,26
 126 700 126 700 131 696.5 c 128,-1,27
 136 693 136 693 137 691 c 2,28,-1
 611 71 l 1,29,-1
 605 63 l 1,30,-1
 605 676 l 2,31,32
 605 684 605 684 611 690 c 128,-1,33
 617 696 617 696 625 696 c 0,34,35
 634 696 634 696 639.5 690 c 128,-1,36
 645 684 645 684 645 676 c 2,37,-1
 645 42 l 1,38,-1
 645 -44 l 2,39,40
 645 -83 645 -83 630.5 -119 c 128,-1,41
 616 -155 616 -155 578.5 -177.5 c 128,-1,42
 541 -200 541 -200 470 -200 c 0,0,1
EndSplineSet
EndChar

StartChar: O
Encoding: 79 79 131
Width: 688
GlyphClass: 2
Flags: W
AnchorPoint: "Anchor-5" 352 445 basechar 0
AnchorPoint: "Anchor-4" 344 350 basechar 0
AnchorPoint: "Anchor-3" 631 10 basechar 0
AnchorPoint: "Anchor-2" 344 0 basechar 0
AnchorPoint: "Anchor-1" 351 697 basechar 0
AnchorPoint: "Anchor-0" 344 700 basechar 0
LayerCount: 2
Fore
SplineSet
638 350 m 256,0,1
 638 270 638 270 613.5 204 c 128,-1,2
 589 138 589 138 549 90 c 128,-1,3
 509 42 509 42 453 16 c 128,-1,4
 397 -10 397 -10 344 -10 c 256,5,6
 291 -10 291 -10 235 16 c 128,-1,7
 179 42 179 42 139 90 c 128,-1,8
 99 138 99 138 74.5 204 c 128,-1,9
 50 270 50 270 50 350 c 256,10,11
 50 430 50 430 74.5 496 c 128,-1,12
 99 562 99 562 139 610 c 128,-1,13
 179 658 179 658 235 684 c 128,-1,14
 291 710 291 710 344 710 c 256,15,16
 397 710 397 710 453 684 c 128,-1,17
 509 658 509 658 549 610 c 128,-1,18
 589 562 589 562 613.5 496 c 128,-1,19
 638 430 638 430 638 350 c 256,0,1
596 350 m 256,20,21
 596 446 596 446 563.5 518 c 128,-1,22
 531 590 531 590 470.5 630 c 128,-1,23
 410 670 410 670 344 670 c 0,24,25
 279 670 279 670 218 630 c 128,-1,26
 157 590 157 590 124.5 518 c 128,-1,27
 92 446 92 446 92 350 c 256,28,29
 92 254 92 254 124.5 182 c 128,-1,30
 157 110 157 110 218 70 c 128,-1,31
 279 30 279 30 344 30 c 0,32,33
 410 30 410 30 470.5 70 c 128,-1,34
 531 110 531 110 563.5 182 c 128,-1,35
 596 254 596 254 596 350 c 256,20,21
EndSplineSet
Substitution2: "Single Substitution lookup 33 subtable" ordmasculine
Substitution2: "'aalt' Access All Alternates in Latin lookup 0 subtable" ordmasculine
EndChar

StartChar: uni01EA
Encoding: 490 490 159
Width: 768
GlyphClass: 2
Flags: W
AnchorPoint: "Anchor-4" 384 350 basechar 0
AnchorPoint: "Anchor-3" 691 10 basechar 0
AnchorPoint: "Anchor-2" 384 0 basechar 0
AnchorPoint: "Anchor-1" 391 697 basechar 0
AnchorPoint: "Anchor-0" 384 700 basechar 0
LayerCount: 2
Fore
SplineSet
429 -185 m 0,0,1
 396 -185 396 -185 368.5 -160 c 128,-1,2
 341 -135 341 -135 341 -93 c 0,3,4
 341 -70 341 -70 348.5 -51.5 c 128,-1,5
 356 -33 356 -33 368.5 -20 c 128,-1,6
 381 -7 381 -7 396 2.5 c 128,-1,7
 411 12 411 12 427 17 c 1,8,-1
 471 1 l 1,9,10
 451 2 451 2 429.5 -10 c 128,-1,11
 408 -22 408 -22 393.5 -42 c 128,-1,12
 379 -62 379 -62 379 -85 c 0,13,14
 379 -115 379 -115 396 -131.5 c 128,-1,15
 413 -148 413 -148 434 -148 c 0,16,17
 444 -148 444 -148 450.5 -147 c 128,-1,18
 457 -146 457 -146 461 -141 c 0,19,20
 467 -133 467 -133 473 -127.5 c 128,-1,21
 479 -122 479 -122 487 -122 c 0,22,23
 494 -122 494 -122 497.5 -126.5 c 128,-1,24
 501 -131 501 -131 501 -136 c 0,25,26
 501 -149 501 -149 491.5 -160.5 c 128,-1,27
 482 -172 482 -172 466 -178.5 c 128,-1,28
 450 -185 450 -185 429 -185 c 0,0,1
718 350 m 256,29,30
 718 270 718 270 693.5 204 c 128,-1,31
 669 138 669 138 624 90 c 128,-1,32
 579 42 579 42 518 16 c 128,-1,33
 457 -10 457 -10 384 -10 c 256,34,35
 311 -10 311 -10 250 16 c 128,-1,36
 189 42 189 42 144 90 c 128,-1,37
 99 138 99 138 74.5 204 c 128,-1,38
 50 270 50 270 50 350 c 256,39,40
 50 430 50 430 74.5 496 c 128,-1,41
 99 562 99 562 144 610 c 128,-1,42
 189 658 189 658 250 684 c 128,-1,43
 311 710 311 710 384 710 c 256,44,45
 457 710 457 710 518 684 c 128,-1,46
 579 658 579 658 624 610 c 128,-1,47
 669 562 669 562 693.5 496 c 128,-1,48
 718 430 718 430 718 350 c 256,29,30
676 350 m 256,49,50
 676 446 676 446 638.5 518 c 128,-1,51
 601 590 601 590 535.5 630 c 128,-1,52
 470 670 470 670 384 670 c 0,53,54
 299 670 299 670 233 630 c 128,-1,55
 167 590 167 590 129.5 518 c 128,-1,56
 92 446 92 446 92 350 c 256,57,58
 92 254 92 254 129.5 182 c 128,-1,59
 167 110 167 110 233 70 c 128,-1,60
 299 30 299 30 384 30 c 0,61,62
 470 30 470 30 535.5 70 c 128,-1,63
 601 110 601 110 638.5 182 c 128,-1,64
 676 254 676 254 676 350 c 256,49,50
EndSplineSet
EndChar

StartChar: Oslash
Encoding: 216 216 160
Width: 721
GlyphClass: 2
Flags: W
AnchorPoint: "Anchor-4" 384 350 basechar 0
AnchorPoint: "Anchor-3" 691 10 basechar 0
AnchorPoint: "Anchor-2" 361 0 basechar 0
AnchorPoint: "Anchor-1" 391 697 basechar 0
AnchorPoint: "Anchor-0" 361 700 basechar 0
LayerCount: 2
Fore
SplineSet
89 -20 m 0,0,1
 82 -20 82 -20 77 -15 c 128,-1,2
 72 -10 72 -10 72 -3 c 0,3,4
 72 3 72 3 77 10 c 2,5,-1
 657 707 l 2,6,7
 663 715 663 715 667.5 716.5 c 128,-1,8
 672 718 672 718 679 718 c 0,9,10
 685 718 685 718 690.5 714 c 128,-1,11
 696 710 696 710 696 702 c 256,12,13
 696 694 696 694 690 687 c 2,14,-1
 114 -4 l 2,15,16
 110 -10 110 -10 104.5 -15 c 128,-1,17
 99 -20 99 -20 89 -20 c 0,0,1
718 350 m 256,18,19
 718 270 718 270 693.5 204 c 128,-1,20
 669 138 669 138 624 90 c 128,-1,21
 579 42 579 42 518 16 c 128,-1,22
 457 -10 457 -10 384 -10 c 256,23,24
 311 -10 311 -10 250 16 c 128,-1,25
 189 42 189 42 144 90 c 128,-1,26
 99 138 99 138 74.5 204 c 128,-1,27
 50 270 50 270 50 350 c 256,28,29
 50 430 50 430 74.5 496 c 128,-1,30
 99 562 99 562 144 610 c 128,-1,31
 189 658 189 658 250 684 c 128,-1,32
 311 710 311 710 384 710 c 256,33,34
 457 710 457 710 518 684 c 128,-1,35
 579 658 579 658 624 610 c 128,-1,36
 669 562 669 562 693.5 496 c 128,-1,37
 718 430 718 430 718 350 c 256,18,19
676 350 m 256,38,39
 676 446 676 446 638.5 518 c 128,-1,40
 601 590 601 590 535.5 630 c 128,-1,41
 470 670 470 670 384 670 c 0,42,43
 299 670 299 670 233 630 c 128,-1,44
 167 590 167 590 129.5 518 c 128,-1,45
 92 446 92 446 92 350 c 256,46,47
 92 254 92 254 129.5 182 c 128,-1,48
 167 110 167 110 233 70 c 128,-1,49
 299 30 299 30 384 30 c 0,50,51
 470 30 470 30 535.5 70 c 128,-1,52
 601 110 601 110 638.5 182 c 128,-1,53
 676 254 676 254 676 350 c 256,38,39
EndSplineSet
EndChar

StartChar: OE
Encoding: 338 338 166
Width: 998
GlyphClass: 2
Flags: W
AnchorPoint: "Anchor-2" 494 0 basechar 0
AnchorPoint: "Anchor-0" 494 700 basechar 0
LayerCount: 2
Fore
SplineSet
928 40 m 2,0,1
 936 40 936 40 942 34 c 128,-1,2
 948 28 948 28 948 20 c 0,3,4
 948 11 948 11 942 5.5 c 128,-1,5
 936 0 936 0 928 0 c 2,6,-1
 340 0 l 2,7,8
 240 0 240 0 175.5 47.5 c 128,-1,9
 111 95 111 95 80.5 174.5 c 128,-1,10
 50 254 50 254 50 350 c 0,11,12
 50 418 50 418 67 481 c 128,-1,13
 84 544 84 544 119.5 593.5 c 128,-1,14
 155 643 155 643 210 671.5 c 128,-1,15
 265 700 265 700 340 700 c 2,16,-1
 928 700 l 2,17,18
 936 700 936 700 942 694 c 128,-1,19
 948 688 948 688 948 680 c 0,20,21
 948 671 948 671 942 665.5 c 128,-1,22
 936 660 936 660 928 660 c 2,23,-1
 576 660 l 1,24,-1
 581 664 l 1,25,-1
 581 375 l 1,26,-1
 575 386 l 1,27,-1
 883 386 l 2,28,29
 891 386 891 386 897 380 c 128,-1,30
 903 374 903 374 903 366 c 0,31,32
 903 357 903 357 897 351.5 c 128,-1,33
 891 346 891 346 883 346 c 2,34,-1
 575 346 l 1,35,-1
 581 352 l 1,36,-1
 581 33 l 1,37,-1
 575 40 l 1,38,-1
 928 40 l 2,0,1
547 40 m 1,39,-1
 540 30 l 1,40,-1
 540 666 l 1,41,-1
 544 660 l 1,42,-1
 350 660 l 2,43,44
 281 660 281 660 232 635 c 128,-1,45
 183 610 183 610 151.5 566.5 c 128,-1,46
 120 523 120 523 105 467 c 128,-1,47
 90 411 90 411 90 350 c 0,48,49
 90 264 90 264 117 193.5 c 128,-1,50
 144 123 144 123 201.5 81.5 c 128,-1,51
 259 40 259 40 350 40 c 2,52,-1
 547 40 l 1,39,-1
EndSplineSet
EndChar

StartChar: P
Encoding: 80 80 167
Width: 594
GlyphClass: 2
Flags: W
AnchorPoint: "Anchor-4" 124 172 basechar 0
AnchorPoint: "Anchor-2" 297 0 basechar 0
AnchorPoint: "Anchor-0" 297 700 basechar 0
LayerCount: 2
Fore
SplineSet
360 700 m 2,0,1
 417 700 417 700 459.5 676 c 128,-1,2
 502 652 502 652 525.5 609 c 128,-1,3
 549 566 549 566 549 509 c 0,4,5
 549 453 549 453 525.5 408 c 128,-1,6
 502 363 502 363 459.5 337 c 128,-1,7
 417 311 417 311 360 311 c 2,8,-1
 138 311 l 1,9,-1
 142 318 l 1,10,-1
 142 20 l 2,11,12
 142 12 142 12 135.5 6 c 128,-1,13
 129 0 129 0 121 0 c 0,14,15
 111 0 111 0 105.5 6 c 128,-1,16
 100 12 100 12 100 20 c 2,17,-1
 100 680 l 2,18,19
 100 688 100 688 106 694 c 128,-1,20
 112 700 112 700 120 700 c 2,21,-1
 360 700 l 2,0,1
360 351 m 2,22,23
 406 351 406 351 438.5 371.5 c 128,-1,24
 471 392 471 392 489 428 c 128,-1,25
 507 464 507 464 507 509 c 0,26,27
 507 555 507 555 489 588.5 c 128,-1,28
 471 622 471 622 438.5 641 c 128,-1,29
 406 660 406 660 360 660 c 2,30,-1
 142 660 l 1,31,-1
 142 348 l 1,32,-1
 138 351 l 1,33,-1
 360 351 l 2,22,23
EndSplineSet
EndChar

StartChar: Thorn
Encoding: 222 222 168
Width: 583
GlyphClass: 2
Flags: W
AnchorPoint: "Anchor-2" 262 0 basechar 0
AnchorPoint: "Anchor-0" 262 700 basechar 0
LayerCount: 2
Fore
SplineSet
140 20 m 2,0,1
 140 12 140 12 134 6 c 128,-1,2
 128 0 128 0 120 0 c 0,3,4
 111 0 111 0 105.5 6 c 128,-1,5
 100 12 100 12 100 20 c 2,6,-1
 100 720 l 2,7,8
 100 728 100 728 106 734 c 128,-1,9
 112 740 112 740 120 740 c 0,10,11
 129 740 129 740 134.5 734 c 128,-1,12
 140 728 140 728 140 720 c 2,13,-1
 140 20 l 2,0,1
127 238 m 1,14,-1
 349 238 l 2,15,16
 395 238 395 238 427.5 258.5 c 128,-1,17
 460 279 460 279 478 315 c 128,-1,18
 496 351 496 351 496 396 c 0,19,20
 496 442 496 442 478 475.5 c 128,-1,21
 460 509 460 509 427.5 528 c 128,-1,22
 395 547 395 547 349 547 c 2,23,-1
 128 547 l 1,24,-1
 109 587 l 1,25,-1
 349 587 l 2,26,27
 406 587 406 587 448.5 563 c 128,-1,28
 491 539 491 539 514.5 496 c 128,-1,29
 538 453 538 453 538 396 c 0,30,31
 538 340 538 340 514.5 295 c 128,-1,32
 491 250 491 250 448.5 224 c 128,-1,33
 406 198 406 198 349 198 c 2,34,-1
 127 198 l 1,35,-1
 127 238 l 1,14,-1
EndSplineSet
EndChar

StartChar: Q
Encoding: 81 81 169
Width: 702
GlyphClass: 2
Flags: W
AnchorPoint: "Anchor-2" 341 0 basechar 0
AnchorPoint: "Anchor-0" 341 700 basechar 0
LayerCount: 2
Fore
SplineSet
638 350 m 256,0,1
 638 270 638 270 613.5 204 c 128,-1,2
 589 138 589 138 549 90 c 128,-1,3
 509 42 509 42 453 16 c 128,-1,4
 397 -10 397 -10 344 -10 c 256,5,6
 291 -10 291 -10 235 16 c 128,-1,7
 179 42 179 42 139 90 c 128,-1,8
 99 138 99 138 74.5 204 c 128,-1,9
 50 270 50 270 50 350 c 256,10,11
 50 430 50 430 74.5 496 c 128,-1,12
 99 562 99 562 139 610 c 128,-1,13
 179 658 179 658 235 684 c 128,-1,14
 291 710 291 710 344 710 c 256,15,16
 397 710 397 710 453 684 c 128,-1,17
 509 658 509 658 549 610 c 128,-1,18
 589 562 589 562 613.5 496 c 128,-1,19
 638 430 638 430 638 350 c 256,0,1
596 350 m 256,20,21
 596 446 596 446 563.5 518 c 128,-1,22
 531 590 531 590 470.5 630 c 128,-1,23
 410 670 410 670 344 670 c 0,24,25
 279 670 279 670 218 630 c 128,-1,26
 157 590 157 590 124.5 518 c 128,-1,27
 92 446 92 446 92 350 c 256,28,29
 92 254 92 254 124.5 182 c 128,-1,30
 157 110 157 110 218 70 c 128,-1,31
 279 30 279 30 344 30 c 0,32,33
 410 30 410 30 470.5 70 c 128,-1,34
 531 110 531 110 563.5 182 c 128,-1,35
 596 254 596 254 596 350 c 256,20,21
368 202 m 2,36,37
 361 208 361 208 360.5 216.5 c 128,-1,38
 360 225 360 225 366 232 c 0,39,40
 371 238 371 238 379 238.5 c 128,-1,41
 387 239 387 239 394 233 c 2,42,-1
 632 33 l 1,43,-1
 658 12 l 2,44,45
 665 6 665 6 665.5 -2.5 c 128,-1,46
 666 -11 666 -11 660 -18 c 0,47,48
 656 -23 656 -23 647.5 -24 c 128,-1,49
 639 -25 639 -25 632 -19 c 2,50,-1
 368 202 l 2,36,37
EndSplineSet
EndChar

StartChar: R
Encoding: 82 82 170
Width: 664
GlyphClass: 2
Flags: W
AnchorPoint: "Anchor-2" 327 0 basechar 0
AnchorPoint: "Anchor-0" 327 700 basechar 0
LayerCount: 2
Fore
SplineSet
409 327 m 1,0,-1
 605 31 l 2,1,2
 609 24 609 24 609 17 c 0,3,4
 608 5 608 5 599 1 c 128,-1,5
 590 -3 590 -3 584 -2 c 0,6,7
 576 -1 576 -1 571 6 c 2,8,-1
 358 323 l 1,9,-1
 409 327 l 1,0,-1
366 313 m 2,10,-1
 133 313 l 1,11,-1
 142 325 l 1,12,-1
 142 20 l 2,13,14
 142 12 142 12 136 6 c 128,-1,15
 130 0 130 0 121 0 c 0,16,17
 111 0 111 0 105.5 6 c 128,-1,18
 100 12 100 12 100 20 c 2,19,-1
 100 680 l 2,20,21
 100 688 100 688 106 694 c 128,-1,22
 112 700 112 700 120 700 c 2,23,-1
 374 700 l 2,24,25
 433 700 433 700 477.5 676.5 c 128,-1,26
 522 653 522 653 547 612 c 128,-1,27
 572 571 572 571 572 519 c 0,28,29
 572 473 572 473 556 436 c 0,30,31
 540 400 540 400 510 370 c 0,32,33
 496 356 496 356 449 331 c 0,34,35
 434 322 434 322 412 318 c 0,36,37
 388 312 388 312 366 313 c 2,10,-1
132 353 m 1,38,-1
 379 353 l 1,39,40
 419 357 419 357 453 377 c 128,-1,41
 487 397 487 397 508.5 433 c 128,-1,42
 530 469 530 469 530 518 c 0,43,44
 530 579 530 579 486.5 619.5 c 128,-1,45
 443 660 443 660 369 660 c 2,46,-1
 142 660 l 1,47,-1
 142 342 l 1,48,-1
 132 353 l 1,38,-1
EndSplineSet
EndChar

StartChar: S
Encoding: 83 83 178
Width: 550
GlyphClass: 2
Flags: W
AnchorPoint: "Anchor-2" 275 0 basechar 0
AnchorPoint: "Anchor-0" 275 700 basechar 0
LayerCount: 2
Fore
SplineSet
283 -10 m 0,0,1
 205 -11 205 -11 149 16 c 128,-1,2
 93 43 93 43 41 95 c 0,3,4
 39 97 39 97 37 100.5 c 128,-1,5
 35 104 35 104 35 110 c 0,6,7
 35 118 35 118 42 125.5 c 128,-1,8
 49 133 49 133 57 133 c 0,9,10
 66 133 66 133 74 124 c 0,11,12
 114 78 114 78 167.5 54 c 128,-1,13
 221 30 221 30 279 30 c 0,14,15
 330 30 330 30 370 46.5 c 128,-1,16
 410 63 410 63 433 93.5 c 128,-1,17
 456 124 456 124 456 165 c 0,18,19
 455 216 455 216 428 247 c 128,-1,20
 401 278 401 278 358.5 298 c 128,-1,21
 316 318 316 318 269 335 c 0,22,23
 232 349 232 349 196 364 c 128,-1,24
 160 379 160 379 131 400.5 c 128,-1,25
 102 422 102 422 85 454.5 c 128,-1,26
 68 487 68 487 68 535 c 0,27,28
 68 584 68 584 94.5 623.5 c 128,-1,29
 121 663 121 663 170.5 686.5 c 128,-1,30
 220 710 220 710 288 710 c 0,31,32
 345 710 345 710 399 689.5 c 128,-1,33
 453 669 453 669 484 628 c 0,34,35
 494 614 494 614 494 607 c 256,36,37
 494 600 494 600 486.5 593 c 128,-1,38
 479 586 479 586 470 586 c 0,39,40
 462 586 462 586 457 592 c 0,41,42
 439 616 439 616 413.5 633.5 c 128,-1,43
 388 651 388 651 356 660.5 c 128,-1,44
 324 670 324 670 288 670 c 0,45,46
 239 670 239 670 199 654 c 128,-1,47
 159 638 159 638 135 608.5 c 128,-1,48
 111 579 111 579 111 536 c 0,49,50
 111 490 111 490 137.5 460.5 c 128,-1,51
 164 431 164 431 205 411.5 c 128,-1,52
 246 392 246 392 289 376 c 0,53,54
 327 363 327 363 364.5 347.5 c 128,-1,55
 402 332 402 332 432.5 309 c 128,-1,56
 463 286 463 286 481 251 c 128,-1,57
 499 216 499 216 499 163 c 0,58,59
 499 117 499 117 472.5 78 c 128,-1,60
 446 39 446 39 398 15 c 128,-1,61
 350 -9 350 -9 283 -10 c 0,0,1
EndSplineSet
EndChar

StartChar: uni1E9E
Encoding: 7838 7838 189
Width: 692
Flags: W
LayerCount: 2
Fore
SplineSet
455 -10 m 0,0,1
 419 -10 419 -10 390.5 -0.5 c 128,-1,2
 362 9 362 9 338.5 28 c 128,-1,3
 315 47 315 47 293 75 c 0,4,5
 292 77 292 77 289 82 c 128,-1,6
 286 87 286 87 286 92 c 0,7,8
 286 100 286 100 293.5 106.5 c 128,-1,9
 301 113 301 113 309 113 c 0,10,11
 313 113 313 113 317.5 111 c 128,-1,12
 322 109 322 109 326 104 c 0,13,14
 351 69 351 69 384 49.5 c 128,-1,15
 417 30 417 30 451 30 c 0,16,17
 490 30 490 30 523.5 46.5 c 128,-1,18
 557 63 557 63 577.5 93.5 c 128,-1,19
 598 124 598 124 598 165 c 0,20,21
 596 208 596 208 578.5 236.5 c 128,-1,22
 561 265 561 265 535 285 c 128,-1,23
 509 305 509 305 480 322 c 0,24,25
 448 342 448 342 418 363 c 128,-1,26
 388 384 388 384 369 415.5 c 128,-1,27
 350 447 350 447 350 495 c 0,28,29
 350 528 350 528 364.5 555.5 c 128,-1,30
 379 583 379 583 407 604 c 128,-1,31
 435 625 435 625 475.5 638 c 128,-1,32
 516 651 516 651 568 654 c 1,33,-1
 565 633 l 1,34,35
 547 651 547 651 519 663 c 128,-1,36
 491 675 491 675 459.5 681.5 c 128,-1,37
 428 688 428 688 396 688 c 0,38,39
 322 688 322 688 272.5 668.5 c 128,-1,40
 223 649 223 649 194.5 615.5 c 128,-1,41
 166 582 166 582 154 540 c 128,-1,42
 142 498 142 498 142 453 c 2,43,-1
 140 24 l 2,44,45
 140 14 140 14 135 9 c 128,-1,46
 130 4 130 4 120 4 c 256,47,48
 110 4 110 4 105 9 c 128,-1,49
 100 14 100 14 100 24 c 2,50,-1
 102 453 l 2,51,52
 102 502 102 502 116 550 c 128,-1,53
 130 598 130 598 163.5 638 c 128,-1,54
 197 678 197 678 254 702 c 128,-1,55
 311 726 311 726 396 726 c 0,56,57
 449 726 449 726 500.5 710.5 c 128,-1,58
 552 695 552 695 585 670 c 0,59,60
 602 656 602 656 602 645 c 0,61,62
 602 639 602 639 599.5 635 c 128,-1,63
 597 631 597 631 592.5 629 c 128,-1,64
 588 627 588 627 582 626 c 0,65,66
 519 619 519 619 477 600 c 128,-1,67
 435 581 435 581 414 554.5 c 128,-1,68
 393 528 393 528 393 496 c 0,69,70
 393 460 393 460 408 436 c 128,-1,71
 423 412 423 412 447.5 395 c 128,-1,72
 472 378 472 378 499 362 c 0,73,74
 524 347 524 347 549 330.5 c 128,-1,75
 574 314 574 314 595 292 c 128,-1,76
 616 270 616 270 628.5 238.5 c 128,-1,77
 641 207 641 207 641 163 c 0,78,79
 641 117 641 117 618.5 78 c 128,-1,80
 596 39 596 39 554.5 15 c 128,-1,81
 513 -9 513 -9 455 -10 c 0,0,1
EndSplineSet
EndChar

StartChar: uni018F
Encoding: 399 399 190
Width: 753
Flags: W
LayerCount: 2
Fore
SplineSet
376 -10 m 0,0,1
 311 -10 311 -10 252.5 16.5 c 128,-1,2
 194 43 194 43 149 90.5 c 128,-1,3
 104 138 104 138 78 200 c 128,-1,4
 52 262 52 262 50 333 c 2,5,-1
 50 350 l 2,6,7
 50 358 50 358 56 362.5 c 128,-1,8
 62 367 62 367 70 367 c 2,9,-1
 675 367 l 1,10,-1
 677 327 l 1,11,-1
 91 327 l 1,12,13
 94 266 94 266 117.5 212 c 128,-1,14
 141 158 141 158 180.5 117 c 128,-1,15
 220 76 220 76 270 53 c 128,-1,16
 320 30 320 30 376 30 c 0,17,18
 433 30 433 30 484 54 c 128,-1,19
 535 78 535 78 574.5 121 c 128,-1,20
 614 164 614 164 637 222 c 128,-1,21
 660 280 660 280 660 347 c 0,22,23
 660 415 660 415 637 473.5 c 128,-1,24
 614 532 614 532 574.5 576 c 128,-1,25
 535 620 535 620 484 645 c 128,-1,26
 433 670 433 670 376 670 c 0,27,28
 291 670 291 670 230.5 639 c 128,-1,29
 170 608 170 608 123 545 c 0,30,31
 118 539 118 539 111 537.5 c 128,-1,32
 104 536 104 536 97 540 c 0,33,34
 89 545 89 545 87.5 554 c 128,-1,35
 86 563 86 563 92 570 c 0,36,37
 145 639 145 639 213.5 674.5 c 128,-1,38
 282 710 282 710 376 710 c 0,39,40
 444 710 444 710 503 682 c 128,-1,41
 562 654 562 654 607 604.5 c 128,-1,42
 652 555 652 555 677.5 490 c 128,-1,43
 703 425 703 425 703 350 c 256,44,45
 703 275 703 275 677.5 210 c 128,-1,46
 652 145 652 145 607 95.5 c 128,-1,47
 562 46 562 46 503 18 c 128,-1,48
 444 -10 444 -10 376 -10 c 0,0,1
EndSplineSet
EndChar

StartChar: T
Encoding: 84 84 191
Width: 596
GlyphClass: 2
Flags: W
AnchorPoint: "Anchor-4" 298 350 basechar 0
AnchorPoint: "Anchor-2" 298 0 basechar 0
AnchorPoint: "Anchor-0" 298 700 basechar 0
LayerCount: 2
Fore
SplineSet
55 662 m 2,0,1
 47 662 47 662 41 667.5 c 128,-1,2
 35 673 35 673 35 681 c 256,3,4
 35 689 35 689 41 694.5 c 128,-1,5
 47 700 47 700 55 700 c 2,6,-1
 541 700 l 2,7,8
 549 700 549 700 555 694.5 c 128,-1,9
 561 689 561 689 561 681 c 0,10,11
 561 672 561 672 555 667 c 128,-1,12
 549 662 549 662 541 662 c 2,13,-1
 318 662 l 1,14,-1
 318 20 l 2,15,16
 318 12 318 12 312 6 c 128,-1,17
 306 0 306 0 298 0 c 0,18,19
 289 0 289 0 283.5 6 c 128,-1,20
 278 12 278 12 278 20 c 2,21,-1
 278 662 l 1,22,-1
 55 662 l 2,0,1
EndSplineSet
EndChar

StartChar: U
Encoding: 85 85 199
Width: 715
GlyphClass: 2
Flags: W
AnchorPoint: "Anchor-3" 643 10 basechar 0
AnchorPoint: "Anchor-2" 358 0 basechar 0
AnchorPoint: "Anchor-1" 521 697 basechar 0
AnchorPoint: "Anchor-0" 358 700 basechar 0
LayerCount: 2
Fore
SplineSet
595 700 m 256,0,1
 604 700 604 700 609.5 694 c 128,-1,2
 615 688 615 688 615 680 c 2,3,-1
 615 248 l 2,4,5
 615 177 615 177 580 118.5 c 128,-1,6
 545 60 545 60 487 25 c 128,-1,7
 429 -10 429 -10 358 -10 c 256,8,9
 287 -10 287 -10 228.5 25 c 128,-1,10
 170 60 170 60 135 118.5 c 128,-1,11
 100 177 100 177 100 248 c 2,12,-1
 100 680 l 2,13,14
 100 688 100 688 105.5 694 c 128,-1,15
 111 700 111 700 121 700 c 0,16,17
 130 700 130 700 136 694 c 128,-1,18
 142 688 142 688 142 680 c 2,19,-1
 142 248 l 2,20,21
 142 188 142 188 171 138.5 c 128,-1,22
 200 89 200 89 249.5 59.5 c 128,-1,23
 299 30 299 30 358 30 c 0,24,25
 418 30 418 30 467 59.5 c 128,-1,26
 516 89 516 89 545.5 138.5 c 128,-1,27
 575 188 575 188 575 248 c 2,28,-1
 575 680 l 2,29,30
 575 688 575 688 580.5 694 c 128,-1,31
 586 700 586 700 595 700 c 256,0,1
EndSplineSet
EndChar

StartChar: Uogonek
Encoding: 370 370 219
Width: 715
GlyphClass: 2
Flags: W
AnchorPoint: "Anchor-3" 643 10 basechar 0
AnchorPoint: "Anchor-2" 358 0 basechar 0
AnchorPoint: "Anchor-1" 695 700 basechar 0
AnchorPoint: "Anchor-0" 358 700 basechar 0
LayerCount: 2
Fore
SplineSet
429 -185 m 0,0,1
 396 -185 396 -185 368.5 -160 c 128,-1,2
 341 -135 341 -135 341 -93 c 0,3,4
 341 -70 341 -70 349 -51.5 c 128,-1,5
 357 -33 357 -33 370 -19 c 128,-1,6
 383 -5 383 -5 399 4.5 c 128,-1,7
 415 14 415 14 431 19 c 1,8,-1
 396 -7 l 1,9,10
 387 -8 387 -8 377.5 -9 c 128,-1,11
 368 -10 368 -10 358 -10 c 0,12,13
 287 -10 287 -10 228.5 25 c 128,-1,14
 170 60 170 60 135 118.5 c 128,-1,15
 100 177 100 177 100 248 c 2,16,-1
 100 680 l 2,17,18
 100 688 100 688 105.5 694 c 128,-1,19
 111 700 111 700 121 700 c 0,20,21
 130 700 130 700 136 694 c 128,-1,22
 142 688 142 688 142 680 c 2,23,-1
 142 248 l 2,24,25
 142 188 142 188 171 138.5 c 128,-1,26
 200 89 200 89 249.5 59.5 c 128,-1,27
 299 30 299 30 358 30 c 0,28,29
 420 30 420 30 469 59.5 c 128,-1,30
 518 89 518 89 546.5 138.5 c 128,-1,31
 575 188 575 188 575 248 c 2,32,-1
 575 680 l 2,33,34
 575 688 575 688 580.5 694 c 128,-1,35
 586 700 586 700 595 700 c 256,36,37
 604 700 604 700 609.5 694 c 128,-1,38
 615 688 615 688 615 680 c 2,39,-1
 615 248 l 2,40,41
 615 199 615 199 598.5 154.5 c 128,-1,42
 582 110 582 110 551.5 75 c 128,-1,43
 521 40 521 40 479 21 c 0,44,45
 463 14 463 14 439 2 c 128,-1,46
 415 -10 415 -10 397 -30.5 c 128,-1,47
 379 -51 379 -51 379 -85 c 0,48,49
 379 -115 379 -115 396 -131.5 c 128,-1,50
 413 -148 413 -148 434 -148 c 0,51,52
 459 -148 459 -148 465 -138 c 0,53,54
 470 -130 470 -130 474.5 -126 c 128,-1,55
 479 -122 479 -122 486 -122 c 256,56,57
 493 -122 493 -122 497 -126.5 c 128,-1,58
 501 -131 501 -131 501 -136 c 0,59,60
 501 -149 501 -149 491.5 -160.5 c 128,-1,61
 482 -172 482 -172 466 -178.5 c 128,-1,62
 450 -185 450 -185 429 -185 c 0,0,1
EndSplineSet
EndChar

StartChar: V
Encoding: 86 86 223
Width: 660
GlyphClass: 2
Flags: W
AnchorPoint: "Anchor-2" 330 0 basechar 0
AnchorPoint: "Anchor-0" 330 700 basechar 0
LayerCount: 2
Fore
SplineSet
605 700 m 0,0,1
 615 700 615 700 620 695 c 128,-1,2
 625 690 625 690 625 682 c 0,3,4
 625 678 625 678 623 672 c 2,5,-1
 349 13 l 2,6,7
 346 7 346 7 341 3.5 c 128,-1,8
 336 0 336 0 330 0 c 256,9,10
 324 0 324 0 318.5 3.5 c 128,-1,11
 313 7 313 7 311 13 c 2,12,-1
 39 669 l 2,13,14
 38 671 38 671 37 674 c 128,-1,15
 36 677 36 677 36 681 c 0,16,17
 36 689 36 689 42 694.5 c 128,-1,18
 48 700 48 700 55 700 c 0,19,20
 70 700 70 700 77 684 c 2,21,-1
 337 58 l 1,22,-1
 325 59 l 1,23,-1
 586 687 l 2,24,25
 593 700 593 700 605 700 c 0,0,1
EndSplineSet
EndChar

StartChar: W
Encoding: 87 87 224
Width: 974
GlyphClass: 2
Flags: W
AnchorPoint: "Anchor-2" 487 0 basechar 0
AnchorPoint: "Anchor-0" 487 700 basechar 0
LayerCount: 2
Fore
SplineSet
918 702 m 0,0,1
 927 702 927 702 933 697.5 c 128,-1,2
 939 693 939 693 939 683 c 0,3,4
 939 679 939 679 937 673 c 2,5,-1
 708 13 l 2,6,7
 706 7 706 7 700.5 3.5 c 128,-1,8
 695 0 695 0 690 0 c 0,9,10
 683 0 683 0 677.5 2.5 c 128,-1,11
 672 5 672 5 670 12 c 2,12,-1
 483 484 l 1,13,-1
 491 484 l 1,14,-1
 304 12 l 2,15,16
 301 5 301 5 295.5 2.5 c 128,-1,17
 290 0 290 0 283 0 c 0,18,19
 278 0 278 0 273 3.5 c 128,-1,20
 268 7 268 7 266 13 c 2,21,-1
 37 673 l 2,22,23
 35 679 35 679 35 682 c 0,24,25
 35 692 35 692 42.5 697 c 128,-1,26
 50 702 50 702 57 702 c 0,27,28
 63 702 63 702 68.5 698.5 c 128,-1,29
 74 695 74 695 76 689 c 2,30,-1
 291 68 l 1,31,-1
 284 67 l 1,32,-1
 468 532 l 2,33,34
 470 538 470 538 475 541.5 c 128,-1,35
 480 545 480 545 487 545 c 0,36,37
 493 545 493 545 498.5 541.5 c 128,-1,38
 504 538 504 538 506 532 c 2,39,-1
 692 64 l 1,40,-1
 683 63 l 1,41,-1
 898 689 l 2,42,43
 900 695 900 695 905 698.5 c 128,-1,44
 910 702 910 702 918 702 c 0,0,1
EndSplineSet
EndChar

StartChar: X
Encoding: 88 88 229
Width: 589
GlyphClass: 2
Flags: W
AnchorPoint: "Anchor-2" 295 0 basechar 0
AnchorPoint: "Anchor-0" 295 700 basechar 0
LayerCount: 2
Fore
SplineSet
50 703 m 0,0,1
 62 703 62 703 67 695 c 2,2,-1
 554 29 l 2,3,4
 559 22 559 22 559 17 c 0,5,6
 559 8 559 8 552.5 2.5 c 128,-1,7
 546 -3 546 -3 538 -3 c 0,8,9
 527 -3 527 -3 522 5 c 2,10,-1
 34 671 l 2,11,12
 30 676 30 676 30 683 c 0,13,14
 30 692 30 692 36 697.5 c 128,-1,15
 42 703 42 703 50 703 c 0,0,1
295 319 m 1,16,-1
 65 5 l 2,17,18
 60 -3 60 -3 50 -3 c 256,19,20
 40 -3 40 -3 35.5 3 c 128,-1,21
 31 9 31 9 31 14 c 256,22,23
 31 19 31 19 36 27 c 2,24,-1
 275 353 l 1,25,-1
 293 379 l 1,26,-1
 524 696 l 2,27,28
 530 704 530 704 539 704 c 0,29,30
 547 704 547 704 553 700 c 128,-1,31
 559 696 559 696 559 688 c 0,32,33
 559 681 559 681 554 674 c 2,34,-1
 315 345 l 1,35,-1
 295 319 l 1,16,-1
EndSplineSet
EndChar

StartChar: Y
Encoding: 89 89 230
Width: 547
GlyphClass: 2
Flags: W
AnchorPoint: "Anchor-2" 274 0 basechar 0
AnchorPoint: "Anchor-0" 274 700 basechar 0
LayerCount: 2
Fore
SplineSet
507 706 m 0,0,1
 517 706 517 706 522 699 c 128,-1,2
 527 692 527 692 527 687 c 0,3,4
 527 683 527 683 526 680 c 128,-1,5
 525 677 525 677 523 674 c 2,6,-1
 295 358 l 1,7,-1
 295 20 l 2,8,9
 295 12 295 12 289 6 c 128,-1,10
 283 0 283 0 274 0 c 0,11,12
 264 0 264 0 258.5 6 c 128,-1,13
 253 12 253 12 253 20 c 2,14,-1
 253 357 l 2,15,16
 253 358 253 358 24 672 c 0,17,18
 22 675 22 675 21 678 c 128,-1,19
 20 681 20 681 20 685 c 0,20,21
 20 693 20 693 27 698.5 c 128,-1,22
 34 704 34 704 41 704 c 0,23,24
 52 704 52 704 58 695 c 2,25,-1
 280 392 l 1,26,-1
 270 390 l 1,27,-1
 490 697 l 2,28,29
 496 706 496 706 507 706 c 0,0,1
EndSplineSet
EndChar

StartChar: Z
Encoding: 90 90 240
Width: 643
GlyphClass: 2
Flags: W
AnchorPoint: "Anchor-2" 322 0 basechar 0
AnchorPoint: "Anchor-0" 322 700 basechar 0
LayerCount: 2
Fore
SplineSet
570 700 m 2,0,1
 583 700 583 700 588 693.5 c 128,-1,2
 593 687 593 687 593 680 c 256,3,4
 593 673 593 673 589 668 c 2,5,-1
 111 28 l 1,6,-1
 112 38 l 1,7,-1
 572 38 l 2,8,9
 580 38 580 38 586 32 c 128,-1,10
 592 26 592 26 592 19 c 0,11,12
 592 11 592 11 586 5.5 c 128,-1,13
 580 0 580 0 572 0 c 2,14,-1
 80 0 l 2,15,16
 70 0 70 0 65 7 c 128,-1,17
 60 14 60 14 60 21 c 256,18,19
 60 28 60 28 64 33 c 2,20,-1
 539 666 l 1,21,-1
 545 662 l 1,22,-1
 100 662 l 2,23,24
 92 662 92 662 86 668 c 128,-1,25
 80 674 80 674 80 681 c 0,26,27
 80 689 80 689 86 694.5 c 128,-1,28
 92 700 92 700 100 700 c 2,29,-1
 570 700 l 2,0,1
EndSplineSet
EndChar

StartChar: a
Encoding: 97 97 245
Width: 599
GlyphClass: 2
Flags: W
AnchorPoint: "Anchor-3" 539 10 basechar 0
AnchorPoint: "Anchor-2" 282 0 basechar 0
AnchorPoint: "Anchor-0" 292 499 basechar 0
LayerCount: 2
Fore
SplineSet
496 499 m 256,0,1
 505 499 505 499 510.5 493 c 128,-1,2
 516 487 516 487 516 479 c 2,3,-1
 516 20 l 2,4,5
 516 12 516 12 510 6 c 128,-1,6
 504 0 504 0 496 0 c 0,7,8
 487 0 487 0 481.5 6 c 128,-1,9
 476 12 476 12 476 20 c 2,10,-1
 476 162 l 1,11,-1
 492 175 l 1,12,13
 492 143 492 143 476 110 c 128,-1,14
 460 77 460 77 432 50 c 128,-1,15
 404 23 404 23 366 6.5 c 128,-1,16
 328 -10 328 -10 284 -10 c 0,17,18
 217 -10 217 -10 164.5 25 c 128,-1,19
 112 60 112 60 82 120 c 128,-1,20
 52 180 52 180 52 255 c 0,21,22
 52 331 52 331 82.5 389.5 c 128,-1,23
 113 448 113 448 165.5 481.5 c 128,-1,24
 218 515 218 515 284 515 c 0,25,26
 327 515 327 515 365 499.5 c 128,-1,27
 403 484 403 484 431.5 456 c 128,-1,28
 460 428 460 428 476 390.5 c 128,-1,29
 492 353 492 353 492 309 c 1,30,-1
 476 334 l 1,31,-1
 476 479 l 2,32,33
 476 487 476 487 481.5 493 c 128,-1,34
 487 499 487 499 496 499 c 256,0,1
286 28 m 256,35,36
 342 28 342 28 386 57.5 c 128,-1,37
 430 87 430 87 455 138.5 c 128,-1,38
 480 190 480 190 480 255 c 0,39,40
 480 317 480 317 455 367.5 c 128,-1,41
 430 418 430 418 386 447.5 c 128,-1,42
 342 477 342 477 286 477 c 0,43,44
 231 477 231 477 187 448.5 c 128,-1,45
 143 420 143 420 117.5 370 c 128,-1,46
 92 320 92 320 92 255 c 256,47,48
 92 190 92 190 117 138.5 c 128,-1,49
 142 87 142 87 186 57.5 c 128,-1,50
 230 28 230 28 286 28 c 256,35,36
EndSplineSet
Substitution2: "'ss01' Style Set 1 in Latin lookup 39 subtable" a.ss01
Substitution2: "Single Substitution lookup 33 subtable" ordfeminine
AlternateSubs2: "'aalt' Access All Alternates in Latin lookup 1 subtable" a.ss01 ordfeminine
EndChar

StartChar: aogonek
Encoding: 261 261 267
Width: 597
GlyphClass: 2
Flags: W
AnchorPoint: "Anchor-3" 539 10 basechar 0
AnchorPoint: "Anchor-2" 302 0 basechar 0
AnchorPoint: "Anchor-0" 302 499 basechar 0
LayerCount: 2
Fore
SplineSet
286 28 m 256,0,1
 342 28 342 28 386 57.5 c 128,-1,2
 430 87 430 87 455 138.5 c 128,-1,3
 480 190 480 190 480 255 c 0,4,5
 480 317 480 317 455 367.5 c 128,-1,6
 430 418 430 418 386 447.5 c 128,-1,7
 342 477 342 477 286 477 c 0,8,9
 231 477 231 477 187 448.5 c 128,-1,10
 143 420 143 420 117.5 370 c 128,-1,11
 92 320 92 320 92 255 c 256,12,13
 92 190 92 190 117 138.5 c 128,-1,14
 142 87 142 87 186 57.5 c 128,-1,15
 230 28 230 28 286 28 c 256,0,1
480 -185 m 0,16,17
 447 -185 447 -185 419.5 -160 c 128,-1,18
 392 -135 392 -135 392 -93 c 0,19,20
 392 -70 392 -70 399.5 -51.5 c 128,-1,21
 407 -33 407 -33 419.5 -20 c 128,-1,22
 432 -7 432 -7 447 2.5 c 128,-1,23
 462 12 462 12 478 17 c 1,24,-1
 476 9 l 1,25,-1
 476 162 l 1,26,-1
 492 175 l 1,27,28
 492 143 492 143 476 110 c 128,-1,29
 460 77 460 77 432 50 c 128,-1,30
 404 23 404 23 366 6.5 c 128,-1,31
 328 -10 328 -10 284 -10 c 0,32,33
 217 -10 217 -10 164.5 25 c 128,-1,34
 112 60 112 60 82 120 c 128,-1,35
 52 180 52 180 52 255 c 0,36,37
 52 331 52 331 82.5 389.5 c 128,-1,38
 113 448 113 448 165.5 481.5 c 128,-1,39
 218 515 218 515 284 515 c 0,40,41
 327 515 327 515 365 499.5 c 128,-1,42
 403 484 403 484 431.5 456 c 128,-1,43
 460 428 460 428 476 390.5 c 128,-1,44
 492 353 492 353 492 309 c 1,45,-1
 476 334 l 1,46,-1
 476 479 l 2,47,48
 476 487 476 487 481.5 493 c 128,-1,49
 487 499 487 499 496 499 c 256,50,51
 505 499 505 499 510.5 493 c 128,-1,52
 516 487 516 487 516 479 c 2,53,-1
 516 20 l 2,54,55
 516 13 516 13 510.5 5.5 c 128,-1,56
 505 -2 505 -2 488 -8 c 0,57,58
 464 -16 464 -16 447 -37.5 c 128,-1,59
 430 -59 430 -59 430 -85 c 0,60,61
 430 -115 430 -115 447 -131.5 c 128,-1,62
 464 -148 464 -148 485 -148 c 0,63,64
 496 -148 496 -148 504 -145.5 c 128,-1,65
 512 -143 512 -143 517 -136 c 0,66,67
 522 -131 522 -131 526.5 -126.5 c 128,-1,68
 531 -122 531 -122 538 -122 c 256,69,70
 545 -122 545 -122 548.5 -126.5 c 128,-1,71
 552 -131 552 -131 552 -136 c 0,72,73
 552 -149 552 -149 542.5 -160.5 c 128,-1,74
 533 -172 533 -172 517 -178.5 c 128,-1,75
 501 -185 501 -185 480 -185 c 0,16,17
EndSplineSet
Substitution2: "'ss01' Style Set 1 in Latin lookup 39 subtable" aogonek.ss01
Substitution2: "'aalt' Access All Alternates in Latin lookup 0 subtable" aogonek.ss01
EndChar

StartChar: ae
Encoding: 230 230 271
Width: 895
GlyphClass: 2
Flags: W
AnchorPoint: "Anchor-3" 842 10 basechar 0
AnchorPoint: "Anchor-2" 410 0 basechar 0
AnchorPoint: "Anchor-0" 461 515 basechar 0
LayerCount: 2
Fore
SplineSet
270 515 m 0,0,1
 302 515 302 515 330.5 508.5 c 128,-1,2
 359 502 359 502 381.5 487.5 c 128,-1,3
 404 473 404 473 417 448.5 c 128,-1,4
 430 424 430 424 430 388 c 2,5,-1
 430 252 l 1,6,-1
 394 251 l 1,7,-1
 394 370 l 2,8,9
 394 414 394 414 375 437 c 128,-1,10
 356 460 356 460 327.5 468.5 c 128,-1,11
 299 477 299 477 270 477 c 0,12,13
 237 477 237 477 203.5 463 c 128,-1,14
 170 449 170 449 142.5 428 c 128,-1,15
 115 407 115 407 100 384 c 0,16,17
 93 375 93 375 83 375 c 0,18,19
 76 375 76 375 71 380.5 c 128,-1,20
 66 386 66 386 66 393 c 0,21,22
 66 396 66 396 67 399 c 128,-1,23
 68 402 68 402 70 405 c 0,24,25
 91 432 91 432 122.5 457.5 c 128,-1,26
 154 483 154 483 192.5 499 c 128,-1,27
 231 515 231 515 270 515 c 0,0,1
202 -10 m 0,28,29
 167 -10 167 -10 132.5 6.5 c 128,-1,30
 98 23 98 23 75 55.5 c 128,-1,31
 52 88 52 88 52 136 c 0,32,33
 52 193 52 193 89.5 230 c 128,-1,34
 127 267 127 267 193 285.5 c 128,-1,35
 259 304 259 304 344 304 c 2,36,-1
 812 304 l 1,37,-1
 802 295 l 1,38,-1
 802 313 l 1,39,40
 797 366 797 366 768.5 402 c 128,-1,41
 740 438 740 438 700 456.5 c 128,-1,42
 660 475 660 475 617 475 c 0,43,44
 587 475 587 475 554 461.5 c 128,-1,45
 521 448 521 448 493 420.5 c 128,-1,46
 465 393 465 393 447.5 351 c 128,-1,47
 430 309 430 309 430 253 c 0,48,49
 430 192 430 192 454.5 141 c 128,-1,50
 479 90 479 90 527.5 59 c 128,-1,51
 576 28 576 28 647 28 c 0,52,53
 681 28 681 28 711 39.5 c 128,-1,54
 741 51 741 51 765 70 c 128,-1,55
 789 89 789 89 804 111 c 0,56,57
 812 120 812 120 821 120 c 0,58,59
 828 120 828 120 833 114.5 c 128,-1,60
 838 109 838 109 838 102 c 256,61,62
 838 95 838 95 834 90 c 0,63,64
 803 50 803 50 754.5 20 c 128,-1,65
 706 -10 706 -10 647 -10 c 0,66,67
 572 -10 572 -10 514 22 c 128,-1,68
 456 54 456 54 423.5 112.5 c 128,-1,69
 391 171 391 171 391 250 c 0,70,71
 391 334 391 334 423.5 393 c 128,-1,72
 456 452 456 452 507.5 483.5 c 128,-1,73
 559 515 559 515 617 515 c 0,74,75
 659 515 659 515 699 501.5 c 128,-1,76
 739 488 739 488 770.5 459.5 c 128,-1,77
 802 431 802 431 821.5 388.5 c 128,-1,78
 841 346 841 346 843 287 c 0,79,80
 843 279 843 279 837 272.5 c 128,-1,81
 831 266 831 266 823 266 c 2,82,-1
 346 266 l 2,83,84
 272 266 272 266 214.5 252 c 128,-1,85
 157 238 157 238 124.5 209 c 128,-1,86
 92 180 92 180 92 136 c 0,87,88
 92 100 92 100 110 76 c 128,-1,89
 128 52 128 52 154.5 40 c 128,-1,90
 181 28 181 28 206 28 c 0,91,92
 250 28 250 28 291.5 49.5 c 128,-1,93
 333 71 333 71 364.5 101.5 c 128,-1,94
 396 132 396 132 408 157 c 1,95,-1
 430 125 l 1,96,97
 412 98 412 98 381.5 66.5 c 128,-1,98
 351 35 351 35 307 12.5 c 128,-1,99
 263 -10 263 -10 202 -10 c 0,28,29
EndSplineSet
EndChar

StartChar: b
Encoding: 98 98 273
Width: 599
GlyphClass: 2
Flags: W
AnchorPoint: "Anchor-2" 298 0 basechar 0
AnchorPoint: "Anchor-0" 298 499 basechar 0
LayerCount: 2
Fore
SplineSet
315 515 m 0,0,1
 382 515 382 515 434 481.5 c 128,-1,2
 486 448 486 448 516.5 389.5 c 128,-1,3
 547 331 547 331 547 255 c 0,4,5
 547 180 547 180 516.5 120 c 128,-1,6
 486 60 486 60 433.5 25 c 128,-1,7
 381 -10 381 -10 315 -10 c 0,8,9
 282 -10 282 -10 251.5 0 c 128,-1,10
 221 10 221 10 195 28.5 c 128,-1,11
 169 47 169 47 147.5 73.5 c 128,-1,12
 126 100 126 100 110 133 c 1,13,-1
 123 147 l 1,14,-1
 123 20 l 2,15,16
 123 12 123 12 117.5 6 c 128,-1,17
 112 0 112 0 103 0 c 0,18,19
 95 0 95 0 89 6 c 128,-1,20
 83 12 83 12 83 20 c 2,21,-1
 83 719 l 2,22,23
 83 727 83 727 88.5 733 c 128,-1,24
 94 739 94 739 103 739 c 256,25,26
 112 739 112 739 117.5 733 c 128,-1,27
 123 727 123 727 123 719 c 2,28,-1
 123 357 l 1,29,-1
 110 364 l 1,30,31
 124 401 124 401 145 429 c 128,-1,32
 166 457 166 457 193 476 c 128,-1,33
 220 495 220 495 251 505 c 128,-1,34
 282 515 282 515 315 515 c 0,0,1
313 477 m 0,35,36
 256 477 256 477 212.5 448.5 c 128,-1,37
 169 420 169 420 144 370 c 128,-1,38
 119 320 119 320 119 255 c 256,39,40
 119 190 119 190 144 138.5 c 128,-1,41
 169 87 169 87 212.5 57.5 c 128,-1,42
 256 28 256 28 313 28 c 0,43,44
 369 28 369 28 412.5 58 c 128,-1,45
 456 88 456 88 481.5 139.5 c 128,-1,46
 507 191 507 191 507 255 c 0,47,48
 507 320 507 320 481.5 370 c 128,-1,49
 456 420 456 420 412.5 448.5 c 128,-1,50
 369 477 369 477 313 477 c 0,35,36
EndSplineSet
EndChar

StartChar: c
Encoding: 99 99 274
Width: 517
GlyphClass: 2
Flags: W
AnchorPoint: "Anchor-2" 261 0 basechar 0
AnchorPoint: "Anchor-0" 301 499 basechar 0
LayerCount: 2
Fore
SplineSet
304 515 m 0,0,1
 349 515 349 515 388.5 505 c 128,-1,2
 428 495 428 495 452.5 478.5 c 128,-1,3
 477 462 477 462 477 444 c 0,4,5
 477 437 477 437 471.5 430.5 c 128,-1,6
 466 424 466 424 458 424 c 0,7,8
 447 424 447 424 440.5 430 c 128,-1,9
 434 436 434 436 427 444.5 c 128,-1,10
 420 453 420 453 405 460 c 0,11,12
 391 467 391 467 365.5 472 c 128,-1,13
 340 477 340 477 303 477 c 0,14,15
 245 477 245 477 197 447 c 128,-1,16
 149 417 149 417 120.5 366.5 c 128,-1,17
 92 316 92 316 92 253 c 0,18,19
 92 189 92 189 118.5 138 c 128,-1,20
 145 87 145 87 192.5 57.5 c 128,-1,21
 240 28 240 28 303 28 c 0,22,23
 348 28 348 28 371.5 36.5 c 128,-1,24
 395 45 395 45 412 55 c 0,25,26
 433 67 433 67 441 78 c 128,-1,27
 449 89 449 89 460 89 c 0,28,29
 468 89 468 89 472.5 84 c 128,-1,30
 477 79 477 79 477 71 c 0,31,32
 477 59 477 59 455 39.5 c 128,-1,33
 433 20 433 20 393.5 5 c 128,-1,34
 354 -10 354 -10 300 -10 c 0,35,36
 227 -10 227 -10 171 24.5 c 128,-1,37
 115 59 115 59 83.5 118.5 c 128,-1,38
 52 178 52 178 52 253 c 0,39,40
 52 323 52 323 83.5 382.5 c 128,-1,41
 115 442 115 442 171.5 478.5 c 128,-1,42
 228 515 228 515 304 515 c 0,0,1
EndSplineSet
EndChar

StartChar: d
Encoding: 100 100 281
Width: 599
GlyphClass: 2
Flags: W
AnchorPoint: "Anchor-4" 472 614 basechar 0
AnchorPoint: "Anchor-2" 302 0 basechar 0
AnchorPoint: "Anchor-1" 579 499 basechar 0
AnchorPoint: "Anchor-0" 302 499 basechar 0
LayerCount: 2
Fore
SplineSet
496 740 m 256,0,1
 505 740 505 740 510.5 734 c 128,-1,2
 516 728 516 728 516 720 c 2,3,-1
 516 20 l 2,4,5
 516 12 516 12 510 6 c 128,-1,6
 504 0 504 0 496 0 c 0,7,8
 487 0 487 0 481.5 6 c 128,-1,9
 476 12 476 12 476 20 c 2,10,-1
 476 162 l 1,11,-1
 492 184 l 1,12,13
 492 150 492 150 476.5 115.5 c 128,-1,14
 461 81 461 81 432.5 52.5 c 128,-1,15
 404 24 404 24 366 7 c 128,-1,16
 328 -10 328 -10 284 -10 c 0,17,18
 218 -10 218 -10 165.5 24.5 c 128,-1,19
 113 59 113 59 82.5 118.5 c 128,-1,20
 52 178 52 178 52 253 c 256,21,22
 52 328 52 328 82.5 387.5 c 128,-1,23
 113 447 113 447 165.5 481 c 128,-1,24
 218 515 218 515 284 515 c 0,25,26
 325 515 325 515 362.5 499.5 c 128,-1,27
 400 484 400 484 429 456 c 128,-1,28
 458 428 458 428 475 390.5 c 128,-1,29
 492 353 492 353 492 309 c 1,30,-1
 476 334 l 1,31,-1
 476 720 l 2,32,33
 476 728 476 728 481.5 734 c 128,-1,34
 487 740 487 740 496 740 c 256,0,1
286 28 m 0,35,36
 343 28 343 28 386.5 57 c 128,-1,37
 430 86 430 86 455 137 c 128,-1,38
 480 188 480 188 480 253 c 256,39,40
 480 318 480 318 455 368.5 c 128,-1,41
 430 419 430 419 386 448 c 128,-1,42
 342 477 342 477 286 477 c 0,43,44
 231 477 231 477 187 448 c 128,-1,45
 143 419 143 419 117.5 368.5 c 128,-1,46
 92 318 92 318 92 253 c 0,47,48
 92 189 92 189 117.5 138 c 128,-1,49
 143 87 143 87 187 57.5 c 128,-1,50
 231 28 231 28 286 28 c 0,35,36
EndSplineSet
EndChar

StartChar: eth
Encoding: 240 240 282
Width: 569
Flags: W
LayerCount: 2
Fore
SplineSet
284 -1 m 0,0,1
 220 -1 220 -1 167 35 c 128,-1,2
 114 71 114 71 83 130.5 c 128,-1,3
 52 190 52 190 52 261 c 0,4,5
 52 314 52 314 70 359.5 c 128,-1,6
 88 405 88 405 119.5 439.5 c 128,-1,7
 151 474 151 474 193.5 493.5 c 128,-1,8
 236 513 236 513 284 513 c 0,9,10
 337 513 337 513 376 490.5 c 128,-1,11
 415 468 415 468 441 433.5 c 128,-1,12
 467 399 467 399 481 362 c 1,13,-1
 464 368 l 1,14,15
 454 423 454 423 433 477 c 128,-1,16
 412 531 412 531 379 577 c 128,-1,17
 346 623 346 623 298.5 655.5 c 128,-1,18
 251 688 251 688 187 700 c 0,19,20
 180 702 180 702 175.5 706.5 c 128,-1,21
 171 711 171 711 171 718 c 0,22,23
 171 729 171 729 175.5 734.5 c 128,-1,24
 180 740 180 740 189 740 c 0,25,26
 194 740 194 740 196 739 c 0,27,28
 270 724 270 724 324.5 685 c 128,-1,29
 379 646 379 646 416 593 c 128,-1,30
 453 540 453 540 475 483.5 c 128,-1,31
 497 427 497 427 507 374.5 c 128,-1,32
 517 322 517 322 517 285 c 0,33,34
 517 202 517 202 485.5 137 c 128,-1,35
 454 72 454 72 401.5 35.5 c 128,-1,36
 349 -1 349 -1 284 -1 c 0,0,1
284 37 m 0,37,38
 337 37 337 37 380.5 68 c 128,-1,39
 424 99 424 99 450 150 c 128,-1,40
 476 201 476 201 476 261 c 0,41,42
 476 316 476 316 450.5 365 c 128,-1,43
 425 414 425 414 381.5 444.5 c 128,-1,44
 338 475 338 475 284 475 c 0,45,46
 231 475 231 475 187 446.5 c 128,-1,47
 143 418 143 418 117.5 369.5 c 128,-1,48
 92 321 92 321 92 261 c 256,49,50
 92 201 92 201 118 150 c 128,-1,51
 144 99 144 99 188 68 c 128,-1,52
 232 37 232 37 284 37 c 0,37,38
235 553 m 2,53,54
 227 550 227 550 219.5 553 c 128,-1,55
 212 556 212 556 209 564 c 256,56,57
 206 572 206 572 209.5 579.5 c 128,-1,58
 213 587 213 587 221 590 c 2,59,-1
 327 631 l 1,60,-1
 362 644 l 1,61,-1
 458 682 l 2,62,63
 466 686 466 686 473.5 682.5 c 128,-1,64
 481 679 481 679 484 671 c 256,65,66
 487 663 487 663 483.5 655.5 c 128,-1,67
 480 648 480 648 472 645 c 2,68,-1
 390 613 l 1,69,-1
 358 601 l 1,70,-1
 235 553 l 2,53,54
EndSplineSet
EndChar

StartChar: e
Encoding: 101 101 289
Width: 556
GlyphClass: 2
Flags: W
AnchorPoint: "Anchor-3" 497 10 basechar 0
AnchorPoint: "Anchor-2" 278 0 basechar 0
AnchorPoint: "Anchor-0" 285 499 basechar 0
LayerCount: 2
Fore
SplineSet
308 -10 m 0,0,1
 233 -10 233 -10 175.5 22 c 128,-1,2
 118 54 118 54 85 112.5 c 128,-1,3
 52 171 52 171 52 250 c 0,4,5
 52 334 52 334 84.5 393 c 128,-1,6
 117 452 117 452 168.5 483.5 c 128,-1,7
 220 515 220 515 278 515 c 0,8,9
 320 515 320 515 360 501.5 c 128,-1,10
 400 488 400 488 431.5 459.5 c 128,-1,11
 463 431 463 431 482.5 388.5 c 128,-1,12
 502 346 502 346 504 287 c 0,13,14
 504 279 504 279 498 272.5 c 128,-1,15
 492 266 492 266 484 266 c 2,16,-1
 76 266 l 1,17,-1
 70 304 l 1,18,-1
 473 304 l 1,19,-1
 463 295 l 1,20,-1
 463 313 l 1,21,22
 458 366 458 366 429.5 402 c 128,-1,23
 401 438 401 438 361 456.5 c 128,-1,24
 321 475 321 475 278 475 c 0,25,26
 248 475 248 475 215 461.5 c 128,-1,27
 182 448 182 448 154 420.5 c 128,-1,28
 126 393 126 393 108.5 351 c 128,-1,29
 91 309 91 309 91 253 c 0,30,31
 91 192 91 192 115.5 141 c 128,-1,32
 140 90 140 90 188.5 59 c 128,-1,33
 237 28 237 28 308 28 c 0,34,35
 342 28 342 28 372 39.5 c 128,-1,36
 402 51 402 51 426 70 c 128,-1,37
 450 89 450 89 465 111 c 0,38,39
 473 120 473 120 482 120 c 0,40,41
 489 120 489 120 494 114.5 c 128,-1,42
 499 109 499 109 499 102 c 256,43,44
 499 95 499 95 495 90 c 0,45,46
 464 50 464 50 415.5 20 c 128,-1,47
 367 -10 367 -10 308 -10 c 0,0,1
EndSplineSet
EndChar

StartChar: eogonek
Encoding: 281 281 310
Width: 556
GlyphClass: 2
Flags: W
AnchorPoint: "Anchor-3" 497 10 basechar 0
AnchorPoint: "Anchor-2" 278 0 basechar 0
AnchorPoint: "Anchor-0" 277 499 basechar 0
LayerCount: 2
Fore
SplineSet
424 -185 m 0,0,1
 402 -185 402 -185 381 -173.5 c 128,-1,2
 360 -162 360 -162 346 -141.5 c 128,-1,3
 332 -121 332 -121 332 -93 c 0,4,5
 332 -75 332 -75 337 -59 c 128,-1,6
 342 -43 342 -43 351 -29 c 128,-1,7
 360 -15 360 -15 372.5 -2.5 c 128,-1,8
 385 10 385 10 401 20 c 1,9,-1
 405 14 l 1,10,11
 384 3 384 3 359 -3.5 c 128,-1,12
 334 -10 334 -10 308 -10 c 0,13,14
 233 -10 233 -10 175.5 22 c 128,-1,15
 118 54 118 54 85 112.5 c 128,-1,16
 52 171 52 171 52 250 c 0,17,18
 52 334 52 334 84.5 393 c 128,-1,19
 117 452 117 452 168.5 483.5 c 128,-1,20
 220 515 220 515 278 515 c 0,21,22
 320 515 320 515 360 501.5 c 128,-1,23
 400 488 400 488 431.5 459.5 c 128,-1,24
 463 431 463 431 482.5 388.5 c 128,-1,25
 502 346 502 346 504 287 c 0,26,27
 504 279 504 279 498 272.5 c 128,-1,28
 492 266 492 266 484 266 c 2,29,-1
 74 266 l 1,30,-1
 77 304 l 1,31,-1
 474 304 l 1,32,-1
 463 292 l 1,33,-1
 463 313 l 1,34,35
 458 366 458 366 429.5 402 c 128,-1,36
 401 438 401 438 361 456.5 c 128,-1,37
 321 475 321 475 278 475 c 0,38,39
 230 475 230 475 187.5 449 c 128,-1,40
 145 423 145 423 118 373.5 c 128,-1,41
 91 324 91 324 91 253 c 0,42,43
 91 192 91 192 115.5 141 c 128,-1,44
 140 90 140 90 188.5 59 c 128,-1,45
 237 28 237 28 308 28 c 0,46,47
 342 28 342 28 372 39.5 c 128,-1,48
 402 51 402 51 426 70 c 128,-1,49
 450 89 450 89 465 111 c 0,50,51
 473 120 473 120 482 120 c 0,52,53
 489 120 489 120 494 114.5 c 128,-1,54
 499 109 499 109 499 102 c 0,55,56
 499 99 499 99 498 96 c 128,-1,57
 497 93 497 93 495 90 c 0,58,59
 467 53 467 53 438 26.5 c 128,-1,60
 409 0 409 0 389.5 -26 c 128,-1,61
 370 -52 370 -52 370 -87 c 0,62,63
 370 -113 370 -113 386.5 -130.5 c 128,-1,64
 403 -148 403 -148 429 -148 c 0,65,66
 453 -148 453 -148 461 -137 c 0,67,68
 466 -130 466 -130 470.5 -126 c 128,-1,69
 475 -122 475 -122 482 -122 c 0,70,71
 490 -122 490 -122 493.5 -125.5 c 128,-1,72
 497 -129 497 -129 497 -136 c 0,73,74
 497 -146 497 -146 485.5 -157.5 c 128,-1,75
 474 -169 474 -169 457 -177 c 128,-1,76
 440 -185 440 -185 424 -185 c 0,0,1
EndSplineSet
EndChar

StartChar: uni0259
Encoding: 601 601 312
Width: 556
Flags: W
LayerCount: 2
Fore
SplineSet
248 515 m 0,0,1
 323 515 323 515 381 483 c 128,-1,2
 439 451 439 451 471.5 392.5 c 128,-1,3
 504 334 504 334 504 255 c 0,4,5
 504 172 504 172 471.5 112.5 c 128,-1,6
 439 53 439 53 387.5 21.5 c 128,-1,7
 336 -10 336 -10 278 -10 c 0,8,9
 236 -10 236 -10 196 3.5 c 128,-1,10
 156 17 156 17 124.5 45.5 c 128,-1,11
 93 74 93 74 73.5 117 c 128,-1,12
 54 160 54 160 52 218 c 0,13,14
 52 226 52 226 58 232.5 c 128,-1,15
 64 239 64 239 72 239 c 2,16,-1
 480 239 l 1,17,-1
 486 201 l 1,18,-1
 83 201 l 1,19,-1
 93 210 l 1,20,-1
 93 192 l 1,21,22
 99 139 99 139 127 103 c 128,-1,23
 155 67 155 67 195.5 48.5 c 128,-1,24
 236 30 236 30 278 30 c 0,25,26
 308 30 308 30 341 43.5 c 128,-1,27
 374 57 374 57 402 84.5 c 128,-1,28
 430 112 430 112 447.5 154 c 128,-1,29
 465 196 465 196 465 252 c 0,30,31
 465 313 465 313 440.5 364 c 128,-1,32
 416 415 416 415 367.5 446 c 128,-1,33
 319 477 319 477 248 477 c 0,34,35
 215 477 215 477 184.5 465.5 c 128,-1,36
 154 454 154 454 130 435.5 c 128,-1,37
 106 417 106 417 91 394 c 0,38,39
 84 385 84 385 74 385 c 0,40,41
 67 385 67 385 62 390.5 c 128,-1,42
 57 396 57 396 57 403 c 256,43,44
 57 410 57 410 61 415 c 0,45,46
 92 456 92 456 140.5 485.5 c 128,-1,47
 189 515 189 515 248 515 c 0,0,1
EndSplineSet
EndChar

StartChar: f
Encoding: 102 102 313
Width: 334
GlyphClass: 2
Flags: W
AnchorPoint: "Anchor-2" 166 0 basechar 0
AnchorPoint: "Anchor-0" 166 499 basechar 0
LayerCount: 2
Fore
SplineSet
239 735 m 0,0,1
 251 735 251 735 267.5 733 c 128,-1,2
 284 731 284 731 296.5 725 c 128,-1,3
 309 719 309 719 309 707 c 0,4,5
 309 700 309 700 303.5 693.5 c 128,-1,6
 298 687 298 687 290 687 c 0,7,8
 280 687 280 687 266 693 c 128,-1,9
 252 699 252 699 235 699 c 0,10,11
 215 699 215 699 199.5 690 c 128,-1,12
 184 681 184 681 175.5 662.5 c 128,-1,13
 167 644 167 644 167 615 c 2,14,-1
 167 20 l 2,15,16
 167 12 167 12 161 6 c 128,-1,17
 155 0 155 0 147 0 c 0,18,19
 138 0 138 0 132.5 6 c 128,-1,20
 127 12 127 12 127 20 c 2,21,-1
 127 615 l 2,22,23
 127 677 127 677 160 706 c 128,-1,24
 193 735 193 735 239 735 c 0,0,1
285 493 m 2,25,26
 293 493 293 493 298.5 487.5 c 128,-1,27
 304 482 304 482 304 474 c 256,28,29
 304 466 304 466 298.5 460.5 c 128,-1,30
 293 455 293 455 285 455 c 2,31,-1
 47 455 l 2,32,33
 40 455 40 455 34 461 c 128,-1,34
 28 467 28 467 28 474 c 0,35,36
 28 483 28 483 34 488 c 128,-1,37
 40 493 40 493 47 493 c 2,38,-1
 285 493 l 2,25,26
EndSplineSet
EndChar

StartChar: g
Encoding: 103 103 314
Width: 619
GlyphClass: 2
Flags: W
AnchorPoint: "Anchor-2" 312 0 basechar 0
AnchorPoint: "Anchor-0" 312 499 basechar 0
LayerCount: 2
Fore
SplineSet
294 515 m 0,0,1
 339 515 339 515 378 499 c 128,-1,2
 417 483 417 483 446.5 457 c 128,-1,3
 476 431 476 431 492.5 401 c 128,-1,4
 509 371 509 371 509 342 c 1,5,-1
 496 379 l 1,6,-1
 496 479 l 2,7,8
 496 487 496 487 501.5 493 c 128,-1,9
 507 499 507 499 516 499 c 256,10,11
 525 499 525 499 530.5 493 c 128,-1,12
 536 487 536 487 536 479 c 2,13,-1
 536 49 l 2,14,15
 536 -28 536 -28 504.5 -84 c 128,-1,16
 473 -140 473 -140 418 -170 c 128,-1,17
 363 -200 363 -200 290 -200 c 0,18,19
 250 -200 250 -200 209.5 -189.5 c 128,-1,20
 169 -179 169 -179 142 -163 c 128,-1,21
 115 -147 115 -147 115 -129 c 0,22,23
 115 -121 115 -121 119.5 -116 c 128,-1,24
 124 -111 124 -111 132 -111 c 0,25,26
 142 -111 142 -111 150.5 -122 c 128,-1,27
 159 -133 159 -133 181 -142 c 0,28,29
 190 -145 190 -145 205.5 -150 c 128,-1,30
 221 -155 221 -155 243 -158.5 c 128,-1,31
 265 -162 265 -162 292 -162 c 0,32,33
 387 -162 387 -162 441.5 -103.5 c 128,-1,34
 496 -45 496 -45 496 49 c 2,35,-1
 496 148 l 1,36,-1
 506 147 l 1,37,38
 494 104 494 104 471 74 c 128,-1,39
 448 44 448 44 418.5 25.5 c 128,-1,40
 389 7 389 7 356.5 -1.5 c 128,-1,41
 324 -10 324 -10 294 -10 c 0,42,43
 225 -10 225 -10 170.5 24.5 c 128,-1,44
 116 59 116 59 84 118.5 c 128,-1,45
 52 178 52 178 52 253 c 256,46,47
 52 328 52 328 84 387.5 c 128,-1,48
 116 447 116 447 170.5 481 c 128,-1,49
 225 515 225 515 294 515 c 0,0,1
296 477 m 256,50,51
 238 477 238 477 191.5 448 c 128,-1,52
 145 419 145 419 118.5 368.5 c 128,-1,53
 92 318 92 318 92 253 c 0,54,55
 92 189 92 189 118.5 138 c 128,-1,56
 145 87 145 87 191.5 57.5 c 128,-1,57
 238 28 238 28 296 28 c 256,58,59
 354 28 354 28 400 56.5 c 128,-1,60
 446 85 446 85 473 135.5 c 128,-1,61
 500 186 500 186 500 253 c 256,62,63
 500 320 500 320 473 370.5 c 128,-1,64
 446 421 446 421 400 449 c 128,-1,65
 354 477 354 477 296 477 c 256,50,51
EndSplineSet
Substitution2: "'ss01' Style Set 1 in Latin lookup 39 subtable" g.ss01
Substitution2: "'aalt' Access All Alternates in Latin lookup 0 subtable" g.ss01
EndChar

StartChar: h
Encoding: 104 104 321
Width: 562
GlyphClass: 2
Flags: W
AnchorPoint: "Anchor-4" 123 589 basechar 0
AnchorPoint: "Anchor-2" 281 0 basechar 0
AnchorPoint: "Anchor-0" 103 700 basechar 0
LayerCount: 2
Fore
SplineSet
301 505 m 0,0,1
 361 505 361 505 400.5 479 c 128,-1,2
 440 453 440 453 459.5 409 c 128,-1,3
 479 365 479 365 479 312 c 2,4,-1
 479 20 l 2,5,6
 479 12 479 12 473 6 c 128,-1,7
 467 0 467 0 459 0 c 0,8,9
 450 0 450 0 444.5 6 c 128,-1,10
 439 12 439 12 439 20 c 2,11,-1
 439 312 l 2,12,13
 439 355 439 355 425 390 c 128,-1,14
 411 425 411 425 381 446 c 128,-1,15
 351 467 351 467 301 467 c 0,16,17
 258 467 258 467 217 446 c 128,-1,18
 176 425 176 425 149.5 390 c 128,-1,19
 123 355 123 355 123 312 c 2,20,-1
 123 20 l 2,21,22
 123 12 123 12 117 6 c 128,-1,23
 111 0 111 0 103 0 c 0,24,25
 94 0 94 0 88.5 6 c 128,-1,26
 83 12 83 12 83 20 c 2,27,-1
 83 720 l 2,28,29
 83 728 83 728 89 734 c 128,-1,30
 95 740 95 740 103 740 c 0,31,32
 112 740 112 740 117.5 734 c 128,-1,33
 123 728 123 728 123 720 c 2,34,-1
 123 371 l 1,35,-1
 98 323 l 1,36,37
 98 359 98 359 116 392 c 128,-1,38
 134 425 134 425 163.5 450.5 c 128,-1,39
 193 476 193 476 229 490.5 c 128,-1,40
 265 505 265 505 301 505 c 0,0,1
EndSplineSet
EndChar

StartChar: dotlessi
Encoding: 305 305 327
Width: 206
GlyphClass: 2
Flags: W
AnchorPoint: "Anchor-3" 165 10 basechar 0
AnchorPoint: "Anchor-2" 103 0 basechar 0
AnchorPoint: "Anchor-0" 103 499 basechar 0
LayerCount: 2
Fore
SplineSet
123 20 m 2,0,1
 123 12 123 12 117 6 c 128,-1,2
 111 0 111 0 103 0 c 0,3,4
 94 0 94 0 88.5 6 c 128,-1,5
 83 12 83 12 83 20 c 2,6,-1
 83 480 l 2,7,8
 83 488 83 488 89 494 c 128,-1,9
 95 500 95 500 103 500 c 0,10,11
 112 500 112 500 117.5 494 c 128,-1,12
 123 488 123 488 123 480 c 2,13,-1
 123 20 l 2,0,1
EndSplineSet
EndChar

StartChar: ibreve
Encoding: 301 301 329
Width: 206
GlyphClass: 2
Flags: W
AnchorPoint: "Anchor-3" 165 10 basechar 0
AnchorPoint: "Anchor-2" 103 0 basechar 0
AnchorPoint: "Anchor-0" 103 699 basechar 0
LayerCount: 2
Fore
SplineSet
103 573 m 0,0,1
 70 573 70 573 43 592 c 0,2,3
 15 610 15 610 -1 640 c 0,4,5
 -18 670 -18 670 -18 683 c 0,6,7
 -18 690 -18 690 -12 696 c 0,8,9
 -7 701 -7 701 1 701 c 0,10,11
 11 701 11 701 16 696 c 0,12,13
 21 690 21 690 22 681 c 0,14,15
 25 660 25 660 50 635 c 0,16,17
 73 611 73 611 103 611 c 256,18,19
 133 611 133 611 156 635 c 256,20,21
 179 659 179 659 184 681 c 0,22,23
 186 690 186 690 191 696 c 0,24,25
 195 701 195 701 205 701 c 0,26,27
 213 701 213 701 219 696 c 0,28,29
 224 690 224 690 224 683 c 0,30,31
 224 670 224 670 208 640 c 0,32,33
 191 610 191 610 164 592 c 0,34,35
 137 573 137 573 103 573 c 0,0,1
123 20 m 2,36,37
 123 12 123 12 117 6 c 128,-1,38
 111 0 111 0 103 0 c 0,39,40
 94 0 94 0 88.5 6 c 128,-1,41
 83 12 83 12 83 20 c 2,42,-1
 83 480 l 2,43,44
 83 488 83 488 89 494 c 128,-1,45
 95 500 95 500 103 500 c 0,46,47
 112 500 112 500 117.5 494 c 128,-1,48
 123 488 123 488 123 480 c 2,49,-1
 123 20 l 2,36,37
EndSplineSet
EndChar

StartChar: imacron
Encoding: 299 299 341
Width: 206
GlyphClass: 2
Flags: W
AnchorPoint: "Anchor-3" 165 10 basechar 0
AnchorPoint: "Anchor-2" 103 0 basechar 0
AnchorPoint: "Anchor-0" 103 686 basechar 0
LayerCount: 2
Fore
SplineSet
53 607 m 2,0,1
 43 607 43 607 38 612 c 0,2,3
 33 616 33 616 33 626 c 0,4,5
 33 635 33 635 38 640 c 256,6,7
 43 645 43 645 53 645 c 2,8,-1
 153 645 l 2,9,10
 163 645 163 645 168 640 c 256,11,12
 173 635 173 635 173 625 c 0,13,14
 173 616 173 616 168 612 c 0,15,16
 163 607 163 607 153 607 c 2,17,-1
 53 607 l 2,0,1
123 20 m 2,18,19
 123 12 123 12 117 6 c 128,-1,20
 111 0 111 0 103 0 c 0,21,22
 94 0 94 0 88.5 6 c 128,-1,23
 83 12 83 12 83 20 c 2,24,-1
 83 480 l 2,25,26
 83 488 83 488 89 494 c 128,-1,27
 95 500 95 500 103 500 c 0,28,29
 112 500 112 500 117.5 494 c 128,-1,30
 123 488 123 488 123 480 c 2,31,-1
 123 20 l 2,18,19
EndSplineSet
EndChar

StartChar: iogonek
Encoding: 303 303 342
Width: 206
GlyphClass: 2
Flags: W
AnchorPoint: "Anchor-3" 165 10 basechar 0
AnchorPoint: "Anchor-2" 106 0 basechar 0
AnchorPoint: "Anchor-0" 103 499 basechar 0
LayerCount: 2
Fore
SplineSet
74 -185 m 0,0,1
 41 -185 41 -185 13.5 -160 c 128,-1,2
 -14 -135 -14 -135 -14 -93 c 0,3,4
 -14 -70 -14 -70 -6 -51.5 c 128,-1,5
 2 -33 2 -33 16.5 -19 c 128,-1,6
 31 -5 31 -5 49 5 c 128,-1,7
 67 15 67 15 86 21 c 1,8,-1
 83 9 l 1,9,-1
 83 495 l 2,10,11
 83 503 83 503 89 509 c 128,-1,12
 95 515 95 515 103 515 c 0,13,14
 112 515 112 515 117.5 509 c 128,-1,15
 123 503 123 503 123 495 c 2,16,-1
 123 28 l 2,17,18
 123 16 123 16 113 7 c 128,-1,19
 103 -2 103 -2 88.5 -10.5 c 128,-1,20
 74 -19 74 -19 59 -28.5 c 128,-1,21
 44 -38 44 -38 34 -51.5 c 128,-1,22
 24 -65 24 -65 24 -85 c 0,23,24
 24 -115 24 -115 41 -131.5 c 128,-1,25
 58 -148 58 -148 79 -148 c 0,26,27
 89 -148 89 -148 96 -147 c 128,-1,28
 103 -146 103 -146 107 -141 c 0,29,30
 113 -133 113 -133 118.5 -127.5 c 128,-1,31
 124 -122 124 -122 132 -122 c 0,32,33
 139 -122 139 -122 142.5 -126.5 c 128,-1,34
 146 -131 146 -131 146 -136 c 0,35,36
 146 -149 146 -149 136.5 -160.5 c 128,-1,37
 127 -172 127 -172 111 -178.5 c 128,-1,38
 95 -185 95 -185 74 -185 c 0,0,1
103 583 m 0,39,40
 87 583 87 583 77.5 592 c 128,-1,41
 68 601 68 601 68 615 c 2,42,-1
 68 623 l 2,43,44
 68 637 68 637 78 646 c 128,-1,45
 88 655 88 655 104 655 c 0,46,47
 118 655 118 655 127.5 646 c 128,-1,48
 137 637 137 637 137 623 c 2,49,-1
 137 615 l 2,50,51
 137 601 137 601 127.5 592 c 128,-1,52
 118 583 118 583 103 583 c 0,39,40
EndSplineSet
EndChar

StartChar: uni0237
Encoding: 567 567 345
Width: 229
GlyphClass: 2
Flags: W
AnchorPoint: "Anchor-2" 45 -200 basechar 0
AnchorPoint: "Anchor-0" 116 500 basechar 0
LayerCount: 2
Fore
SplineSet
136 -58 m 2,0,1
 136 -103 136 -103 113 -134 c 128,-1,2
 90 -165 90 -165 59 -181 c 0,3,4
 30 -197 30 -197 4 -198 c 0,5,6
 1 -198 1 -198 -51 -198 c 0,7,8
 -60 -198 -60 -198 -65 -192.5 c 128,-1,9
 -70 -187 -70 -187 -70 -180 c 2,10,-1
 -70 -178 l 2,11,12
 -70 -172 -70 -172 -64 -165 c 0,13,14
 -63 -163 -63 -163 -56 -160 c 0,15,16
 -54 -159 -54 -159 -52 -159 c 0,17,18
 -12 -160 -12 -160 4 -158 c 0,19,20
 23 -154 23 -154 43 -144 c 0,21,22
 65 -133 65 -133 80.5 -112 c 128,-1,23
 96 -91 96 -91 96 -58 c 2,24,-1
 96 480 l 2,25,26
 96 488 96 488 101.5 494 c 128,-1,27
 107 500 107 500 116 500 c 256,28,29
 125 500 125 500 130.5 494 c 128,-1,30
 136 488 136 488 136 480 c 2,31,-1
 136 -58 l 2,0,1
EndSplineSet
EndChar

StartChar: k
Encoding: 107 107 348
Width: 524
GlyphClass: 2
Flags: W
AnchorPoint: "Anchor-2" 262 0 basechar 0
AnchorPoint: "Anchor-0" 262 499 basechar 0
LayerCount: 2
Fore
SplineSet
108 0 m 256,0,1
 99 0 99 0 93.5 6 c 128,-1,2
 88 12 88 12 88 20 c 2,3,-1
 88 720 l 2,4,5
 88 728 88 728 93.5 734 c 128,-1,6
 99 740 99 740 108 740 c 256,7,8
 117 740 117 740 122.5 734 c 128,-1,9
 128 728 128 728 128 720 c 2,10,-1
 128 20 l 2,11,12
 128 12 128 12 122.5 6 c 128,-1,13
 117 0 117 0 108 0 c 256,0,1
440 505 m 0,14,15
 448 505 448 505 454 499 c 128,-1,16
 460 493 460 493 460 484 c 256,17,18
 460 475 460 475 453 469 c 2,19,-1
 154 271 l 1,20,-1
 123 271 l 1,21,-1
 119 298 l 1,22,-1
 427 499 l 2,23,24
 433 505 433 505 440 505 c 0,14,15
461 0 m 0,25,26
 453 0 453 0 446 7 c 2,27,-1
 124 270 l 1,28,-1
 154 296 l 1,29,-1
 475 35 l 2,30,31
 481 29 481 29 481 20 c 0,32,33
 481 10 481 10 473 5 c 128,-1,34
 465 0 465 0 461 0 c 0,25,26
EndSplineSet
EndChar

StartChar: kgreenlandic
Encoding: 312 312 350
Width: 524
GlyphClass: 2
Flags: W
AnchorPoint: "Anchor-2" 300 0 basechar 0
AnchorPoint: "Anchor-0" 300 499 basechar 0
LayerCount: 2
Fore
SplineSet
108 0 m 256,0,1
 99 0 99 0 93.5 6 c 128,-1,2
 88 12 88 12 88 20 c 2,3,-1
 88 479 l 2,4,5
 88 487 88 487 93.5 493 c 128,-1,6
 99 499 99 499 108 499 c 256,7,8
 117 499 117 499 122.5 493 c 128,-1,9
 128 487 128 487 128 479 c 2,10,-1
 128 20 l 2,11,12
 128 12 128 12 122.5 6 c 128,-1,13
 117 0 117 0 108 0 c 256,0,1
455 505 m 0,14,15
 463 505 463 505 469 499 c 128,-1,16
 475 493 475 493 475 484 c 256,17,18
 475 475 475 475 468 469 c 2,19,-1
 121 180 l 1,20,-1
 119 228 l 1,21,-1
 442 499 l 2,22,23
 448 505 448 505 455 505 c 0,14,15
461 0 m 0,24,25
 453 0 453 0 446 7 c 2,26,-1
 204 265 l 1,27,-1
 234 291 l 1,28,-1
 475 35 l 2,29,30
 481 29 481 29 481 20 c 0,31,32
 481 9 481 9 472 4.5 c 128,-1,33
 463 0 463 0 461 0 c 0,24,25
EndSplineSet
EndChar

StartChar: l
Encoding: 108 108 351
Width: 216
GlyphClass: 2
Flags: W
AnchorPoint: "Anchor-4" 108 366 basechar 0
AnchorPoint: "Anchor-2" 108 0 basechar 0
AnchorPoint: "Anchor-1" 196 740 basechar 0
AnchorPoint: "Anchor-0" 108 740 basechar 0
LayerCount: 2
Fore
SplineSet
128 20 m 2,0,1
 128 12 128 12 122 6 c 128,-1,2
 116 0 116 0 108 0 c 0,3,4
 99 0 99 0 93.5 6 c 128,-1,5
 88 12 88 12 88 20 c 2,6,-1
 88 720 l 2,7,8
 88 728 88 728 94 734 c 128,-1,9
 100 740 100 740 108 740 c 0,10,11
 117 740 117 740 122.5 734 c 128,-1,12
 128 728 128 728 128 720 c 2,13,-1
 128 20 l 2,0,1
EndSplineSet
EndChar

StartChar: lcaron
Encoding: 318 318 353
Width: 210
Flags: W
LayerCount: 2
Fore
SplineSet
128 20 m 2,0,1
 128 12 128 12 122 6 c 128,-1,2
 116 0 116 0 108 0 c 0,3,4
 99 0 99 0 93.5 6 c 128,-1,5
 88 12 88 12 88 20 c 2,6,-1
 88 720 l 2,7,8
 88 728 88 728 94 734 c 128,-1,9
 100 740 100 740 108 740 c 0,10,11
 117 740 117 740 122.5 734 c 128,-1,12
 128 728 128 728 128 720 c 2,13,-1
 128 20 l 2,0,1
268 685 m 0,14,15
 268 660 268 660 253 637 c 128,-1,16
 238 614 238 614 217.5 599.5 c 128,-1,17
 197 585 197 585 178 585 c 0,18,19
 171 585 171 585 165.5 588.5 c 128,-1,20
 160 592 160 592 160 603 c 256,21,22
 160 614 160 614 167.5 615 c 128,-1,23
 175 616 175 616 191 624 c 0,24,25
 209 633 209 633 218.5 646 c 128,-1,26
 228 659 228 659 228 675 c 0,27,28
 228 689 228 689 221.5 695.5 c 128,-1,29
 215 702 215 702 207 702 c 0,30,31
 200 702 200 702 193 699.5 c 128,-1,32
 186 697 186 697 181 693 c 1,33,34
 177 698 177 698 174.5 704 c 128,-1,35
 172 710 172 710 173 716 c 0,36,37
 175 728 175 728 188 737 c 128,-1,38
 201 746 201 746 217 746 c 0,39,40
 239 746 239 746 253.5 726.5 c 128,-1,41
 268 707 268 707 268 685 c 0,14,15
EndSplineSet
EndChar

StartChar: lslash
Encoding: 322 322 360
Width: 218
GlyphClass: 2
Flags: W
AnchorPoint: "Anchor-4" 108 366 basechar 0
AnchorPoint: "Anchor-2" 108 0 basechar 0
AnchorPoint: "Anchor-1" 196 740 basechar 0
AnchorPoint: "Anchor-0" 108 740 basechar 0
LayerCount: 2
Fore
SplineSet
11 350 m 0,0,1
 5 350 5 350 0 355 c 128,-1,2
 -5 360 -5 360 -5 369 c 0,3,4
 -5 381 -5 381 8 386 c 2,5,-1
 193 470 l 2,6,7
 196 472 196 472 200 473 c 128,-1,8
 204 474 204 474 208 474 c 0,9,10
 214 474 214 474 218.5 469.5 c 128,-1,11
 223 465 223 465 223 458 c 0,12,13
 223 449 223 449 218.5 444 c 128,-1,14
 214 439 214 439 208 437 c 2,15,-1
 23 353 l 2,16,17
 19 352 19 352 16 351 c 128,-1,18
 13 350 13 350 11 350 c 0,0,1
128 20 m 2,19,20
 128 12 128 12 122 6 c 128,-1,21
 116 0 116 0 108 0 c 0,22,23
 99 0 99 0 93.5 6 c 128,-1,24
 88 12 88 12 88 20 c 2,25,-1
 88 720 l 2,26,27
 88 728 88 728 94 734 c 128,-1,28
 100 740 100 740 108 740 c 0,29,30
 117 740 117 740 122.5 734 c 128,-1,31
 128 728 128 728 128 720 c 2,32,-1
 128 20 l 2,19,20
EndSplineSet
EndChar

StartChar: m
Encoding: 109 109 361
Width: 909
GlyphClass: 2
Flags: W
AnchorPoint: "Anchor-2" 455 0 basechar 0
AnchorPoint: "Anchor-0" 455 499 basechar 0
LayerCount: 2
Fore
SplineSet
296 505 m 0,0,1
 352 505 352 505 398.5 474.5 c 128,-1,2
 445 444 445 444 462 379 c 1,3,-1
 449 370 l 1,4,-1
 454 389 l 1,5,6
 467 422 467 422 499.5 448 c 128,-1,7
 532 474 532 474 572.5 489.5 c 128,-1,8
 613 505 613 505 651 505 c 0,9,10
 711 505 711 505 750 479 c 128,-1,11
 789 453 789 453 807.5 409.5 c 128,-1,12
 826 366 826 366 826 311 c 2,13,-1
 826 20 l 2,14,15
 826 12 826 12 820.5 6 c 128,-1,16
 815 0 815 0 806 0 c 256,17,18
 797 0 797 0 791.5 6 c 128,-1,19
 786 12 786 12 786 20 c 2,20,-1
 786 307 l 2,21,22
 786 351 786 351 771.5 387.5 c 128,-1,23
 757 424 757 424 726.5 445.5 c 128,-1,24
 696 467 696 467 647 467 c 0,25,26
 604 467 604 467 563 445.5 c 128,-1,27
 522 424 522 424 495.5 387.5 c 128,-1,28
 469 351 469 351 469 307 c 2,29,-1
 469 20 l 2,30,31
 469 12 469 12 463.5 6 c 128,-1,32
 458 0 458 0 449 0 c 256,33,34
 440 0 440 0 434.5 6 c 128,-1,35
 429 12 429 12 429 20 c 2,36,-1
 429 312 l 2,37,38
 429 355 429 355 415.5 390 c 128,-1,39
 402 425 402 425 373 446 c 128,-1,40
 344 467 344 467 296 467 c 0,41,42
 254 467 254 467 214.5 446 c 128,-1,43
 175 425 175 425 149 390 c 128,-1,44
 123 355 123 355 123 312 c 2,45,-1
 123 20 l 2,46,47
 123 12 123 12 117 6 c 128,-1,48
 111 0 111 0 103 0 c 0,49,50
 94 0 94 0 88.5 6 c 128,-1,51
 83 12 83 12 83 20 c 2,52,-1
 83 479 l 2,53,54
 83 487 83 487 89 493 c 128,-1,55
 95 499 95 499 103 499 c 0,56,57
 112 499 112 499 117.5 493 c 128,-1,58
 123 487 123 487 123 479 c 2,59,-1
 123 370 l 1,60,-1
 93 319 l 1,61,62
 93 354 93 354 110 387 c 128,-1,63
 127 420 127 420 155.5 446.5 c 128,-1,64
 184 473 184 473 220.5 489 c 128,-1,65
 257 505 257 505 296 505 c 0,0,1
EndSplineSet
EndChar

StartChar: n
Encoding: 110 110 363
Width: 572
GlyphClass: 2
Flags: W
AnchorPoint: "Anchor-2" 286 0 basechar 0
AnchorPoint: "Anchor-0" 297 499 basechar 0
LayerCount: 2
Fore
SplineSet
310 515 m 0,0,1
 373 515 373 515 412.5 490 c 128,-1,2
 452 465 452 465 470.5 422 c 128,-1,3
 489 379 489 379 489 326 c 2,4,-1
 489 20 l 2,5,6
 489 12 489 12 483 6 c 128,-1,7
 477 0 477 0 469 0 c 0,8,9
 460 0 460 0 454.5 6 c 128,-1,10
 449 12 449 12 449 20 c 2,11,-1
 449 322 l 2,12,13
 449 365 449 365 434.5 400 c 128,-1,14
 420 435 420 435 388.5 456 c 128,-1,15
 357 477 357 477 306 477 c 0,16,17
 262 477 262 477 220 456 c 128,-1,18
 178 435 178 435 150.5 400 c 128,-1,19
 123 365 123 365 123 322 c 2,20,-1
 123 20 l 2,21,22
 123 12 123 12 117 6 c 128,-1,23
 111 0 111 0 103 0 c 0,24,25
 94 0 94 0 88.5 6 c 128,-1,26
 83 12 83 12 83 20 c 2,27,-1
 83 479 l 2,28,29
 83 487 83 487 89 493 c 128,-1,30
 95 499 95 499 103 499 c 0,31,32
 112 499 112 499 117.5 493 c 128,-1,33
 123 487 123 487 123 479 c 2,34,-1
 123 381 l 1,35,-1
 98 333 l 1,36,37
 98 369 98 369 117 402 c 128,-1,38
 136 435 136 435 167 460.5 c 128,-1,39
 198 486 198 486 235.5 500.5 c 128,-1,40
 273 515 273 515 310 515 c 0,0,1
EndSplineSet
EndChar

StartChar: uni0272
Encoding: 626 626 371
Width: 572
Flags: W
LayerCount: 2
Fore
SplineSet
-14 -198 m 0,0,1
 -22 -198 -22 -198 -27.5 -192.5 c 128,-1,2
 -33 -187 -33 -187 -33 -180 c 0,3,4
 -33 -170 -33 -170 -27.5 -165 c 128,-1,5
 -22 -160 -22 -160 -15 -159 c 0,6,7
 7 -155 7 -155 29.5 -144 c 128,-1,8
 52 -133 52 -133 67.5 -112 c 128,-1,9
 83 -91 83 -91 83 -58 c 2,10,-1
 83 479 l 2,11,12
 83 487 83 487 89 493 c 128,-1,13
 95 499 95 499 103 499 c 0,14,15
 112 499 112 499 117.5 493 c 128,-1,16
 123 487 123 487 123 479 c 2,17,-1
 123 381 l 1,18,-1
 98 333 l 1,19,20
 98 369 98 369 117 402 c 128,-1,21
 136 435 136 435 167 460.5 c 128,-1,22
 198 486 198 486 235.5 500.5 c 128,-1,23
 273 515 273 515 310 515 c 0,24,25
 373 515 373 515 412.5 490 c 128,-1,26
 452 465 452 465 470.5 422 c 128,-1,27
 489 379 489 379 489 326 c 2,28,-1
 489 20 l 2,29,30
 489 12 489 12 483 6 c 128,-1,31
 477 0 477 0 469 0 c 0,32,33
 460 0 460 0 454.5 6 c 128,-1,34
 449 12 449 12 449 20 c 2,35,-1
 449 322 l 2,36,37
 449 365 449 365 434.5 400 c 128,-1,38
 420 435 420 435 388.5 456 c 128,-1,39
 357 477 357 477 306 477 c 0,40,41
 262 477 262 477 220 456 c 128,-1,42
 178 435 178 435 150.5 400 c 128,-1,43
 123 365 123 365 123 322 c 2,44,-1
 123 -58 l 2,45,46
 123 -95 123 -95 111 -119.5 c 128,-1,47
 99 -144 99 -144 81 -160 c 128,-1,48
 63 -176 63 -176 43.5 -184 c 128,-1,49
 24 -192 24 -192 8 -195 c 128,-1,50
 -8 -198 -8 -198 -14 -198 c 0,0,1
EndSplineSet
EndChar

StartChar: eng
Encoding: 331 331 375
Width: 572
GlyphClass: 2
Flags: W
AnchorPoint: "Anchor-2" 286 0 basechar 0
AnchorPoint: "Anchor-0" 286 499 basechar 0
LayerCount: 2
Fore
SplineSet
311 -200 m 0,0,1
 301 -200 301 -200 295 -194.5 c 128,-1,2
 289 -189 289 -189 289 -180 c 256,3,4
 289 -171 289 -171 295 -165.5 c 128,-1,5
 301 -160 301 -160 310 -160 c 0,6,7
 368 -160 368 -160 397.5 -145 c 128,-1,8
 427 -130 427 -130 438 -103.5 c 128,-1,9
 449 -77 449 -77 449 -44 c 2,10,-1
 449 322 l 2,11,12
 449 365 449 365 434.5 400 c 128,-1,13
 420 435 420 435 388.5 456 c 128,-1,14
 357 477 357 477 306 477 c 0,15,16
 262 477 262 477 220 456 c 128,-1,17
 178 435 178 435 150.5 400 c 128,-1,18
 123 365 123 365 123 322 c 2,19,-1
 123 20 l 2,20,21
 123 12 123 12 117 6 c 128,-1,22
 111 0 111 0 103 0 c 0,23,24
 94 0 94 0 88.5 6 c 128,-1,25
 83 12 83 12 83 20 c 2,26,-1
 83 479 l 2,27,28
 83 487 83 487 89 493 c 128,-1,29
 95 499 95 499 103 499 c 0,30,31
 112 499 112 499 117.5 493 c 128,-1,32
 123 487 123 487 123 479 c 2,33,-1
 123 381 l 1,34,-1
 98 333 l 1,35,36
 98 369 98 369 117 402 c 128,-1,37
 136 435 136 435 167 460.5 c 128,-1,38
 198 486 198 486 235.5 500.5 c 128,-1,39
 273 515 273 515 310 515 c 0,40,41
 373 515 373 515 412.5 490 c 128,-1,42
 452 465 452 465 470.5 422 c 128,-1,43
 489 379 489 379 489 326 c 2,44,-1
 489 -44 l 2,45,46
 490 -83 490 -83 474.5 -119 c 128,-1,47
 459 -155 459 -155 420.5 -177.5 c 128,-1,48
 382 -200 382 -200 311 -200 c 0,0,1
EndSplineSet
EndChar

StartChar: o
Encoding: 111 111 376
Width: 597
GlyphClass: 2
Flags: W
AnchorPoint: "Anchor-5" 299 250 basechar 0
AnchorPoint: "Anchor-4" 299 250 basechar 0
AnchorPoint: "Anchor-3" 534 10 basechar 0
AnchorPoint: "Anchor-2" 299 0 basechar 0
AnchorPoint: "Anchor-1" 316 496 basechar 0
AnchorPoint: "Anchor-0" 299 509 basechar 0
LayerCount: 2
Fore
SplineSet
545 252 m 0,0,1
 545 178 545 178 513 118.5 c 128,-1,2
 481 59 481 59 425.5 24.5 c 128,-1,3
 370 -10 370 -10 299 -10 c 0,4,5
 229 -10 229 -10 173 24.5 c 128,-1,6
 117 59 117 59 84.5 118.5 c 128,-1,7
 52 178 52 178 52 252 c 0,8,9
 52 327 52 327 84.5 386.5 c 128,-1,10
 117 446 117 446 173 480.5 c 128,-1,11
 229 515 229 515 299 515 c 0,12,13
 370 515 370 515 425.5 480.5 c 128,-1,14
 481 446 481 446 513 386.5 c 128,-1,15
 545 327 545 327 545 252 c 0,0,1
505 252 m 0,16,17
 505 317 505 317 478.5 367.5 c 128,-1,18
 452 418 452 418 405.5 447.5 c 128,-1,19
 359 477 359 477 299 477 c 0,20,21
 240 477 240 477 193 447.5 c 128,-1,22
 146 418 146 418 119 367.5 c 128,-1,23
 92 317 92 317 92 252 c 0,24,25
 92 188 92 188 119 137.5 c 128,-1,26
 146 87 146 87 193 57.5 c 128,-1,27
 240 28 240 28 299 28 c 0,28,29
 359 28 359 28 405.5 57.5 c 128,-1,30
 452 87 452 87 478.5 137.5 c 128,-1,31
 505 188 505 188 505 252 c 0,16,17
EndSplineSet
Substitution2: "Single Substitution lookup 33 subtable" ordmasculine
Substitution2: "'aalt' Access All Alternates in Latin lookup 0 subtable" ordmasculine
EndChar

StartChar: uni01EB
Encoding: 491 491 404
Width: 589
Flags: W
LayerCount: 2
Fore
SplineSet
501 252 m 0,0,1
 501 317 501 317 474.5 367.5 c 128,-1,2
 448 418 448 418 401.5 447.5 c 128,-1,3
 355 477 355 477 295 477 c 0,4,5
 236 477 236 477 189 447.5 c 128,-1,6
 142 418 142 418 115 367.5 c 128,-1,7
 88 317 88 317 88 252 c 0,8,9
 88 188 88 188 115 137.5 c 128,-1,10
 142 87 142 87 189 57.5 c 128,-1,11
 236 28 236 28 295 28 c 0,12,13
 355 28 355 28 401.5 57.5 c 128,-1,14
 448 87 448 87 474.5 137.5 c 128,-1,15
 501 188 501 188 501 252 c 0,0,1
339 -185 m 0,16,17
 306 -185 306 -185 278.5 -160 c 128,-1,18
 251 -135 251 -135 251 -93 c 0,19,20
 251 -70 251 -70 258.5 -51.5 c 128,-1,21
 266 -33 266 -33 278.5 -20 c 128,-1,22
 291 -7 291 -7 306 2.5 c 128,-1,23
 321 12 321 12 337 17 c 1,24,25
 334 4 334 4 321.5 -3 c 128,-1,26
 309 -10 309 -10 295 -10 c 0,27,28
 225 -10 225 -10 169 24.5 c 128,-1,29
 113 59 113 59 80.5 118.5 c 128,-1,30
 48 178 48 178 48 252 c 0,31,32
 48 327 48 327 80.5 386.5 c 128,-1,33
 113 446 113 446 169 480.5 c 128,-1,34
 225 515 225 515 295 515 c 0,35,36
 366 515 366 515 421.5 480.5 c 128,-1,37
 477 446 477 446 509 386.5 c 128,-1,38
 541 327 541 327 541 252 c 0,39,40
 541 188 541 188 516 135.5 c 128,-1,41
 491 83 491 83 448 47 c 128,-1,42
 405 11 405 11 349 -4 c 0,43,44
 325 -11 325 -11 307 -35 c 128,-1,45
 289 -59 289 -59 289 -85 c 0,46,47
 289 -115 289 -115 306 -131.5 c 128,-1,48
 323 -148 323 -148 344 -148 c 0,49,50
 364 -148 364 -148 373 -139 c 0,51,52
 379 -132 379 -132 384.5 -127 c 128,-1,53
 390 -122 390 -122 397 -122 c 256,54,55
 404 -122 404 -122 407.5 -126.5 c 128,-1,56
 411 -131 411 -131 411 -136 c 0,57,58
 411 -149 411 -149 401.5 -160.5 c 128,-1,59
 392 -172 392 -172 376 -178.5 c 128,-1,60
 360 -185 360 -185 339 -185 c 0,16,17
EndSplineSet
EndChar

StartChar: oslash
Encoding: 248 248 405
Width: 597
GlyphClass: 2
Flags: W
AnchorPoint: "Anchor-4" 299 250 basechar 0
AnchorPoint: "Anchor-3" 534 10 basechar 0
AnchorPoint: "Anchor-2" 299 0 basechar 0
AnchorPoint: "Anchor-1" 316 496 basechar 0
AnchorPoint: "Anchor-0" 299 503 basechar 0
LayerCount: 2
Fore
SplineSet
78 -30 m 0,0,1
 71 -30 71 -30 64.5 -24 c 128,-1,2
 58 -18 58 -18 58 -10 c 256,3,4
 58 -2 58 -2 63 4 c 2,5,-1
 510 526 l 2,6,7
 516 534 516 534 525 534 c 0,8,9
 533 534 533 534 539 528 c 128,-1,10
 545 522 545 522 545 514 c 0,11,12
 545 505 545 505 540 500 c 2,13,-1
 93 -22 l 2,14,15
 87 -30 87 -30 78 -30 c 0,0,1
545 252 m 0,16,17
 545 178 545 178 513 118.5 c 128,-1,18
 481 59 481 59 425.5 24.5 c 128,-1,19
 370 -10 370 -10 299 -10 c 0,20,21
 229 -10 229 -10 173 24.5 c 128,-1,22
 117 59 117 59 84.5 118.5 c 128,-1,23
 52 178 52 178 52 252 c 0,24,25
 52 327 52 327 84.5 386.5 c 128,-1,26
 117 446 117 446 173 480.5 c 128,-1,27
 229 515 229 515 299 515 c 0,28,29
 370 515 370 515 425.5 480.5 c 128,-1,30
 481 446 481 446 513 386.5 c 128,-1,31
 545 327 545 327 545 252 c 0,16,17
505 252 m 0,32,33
 505 317 505 317 478.5 367.5 c 128,-1,34
 452 418 452 418 405.5 447.5 c 128,-1,35
 359 477 359 477 299 477 c 0,36,37
 240 477 240 477 193 447.5 c 128,-1,38
 146 418 146 418 119 367.5 c 128,-1,39
 92 317 92 317 92 252 c 0,40,41
 92 188 92 188 119 137.5 c 128,-1,42
 146 87 146 87 193 57.5 c 128,-1,43
 240 28 240 28 299 28 c 0,44,45
 359 28 359 28 405.5 57.5 c 128,-1,46
 452 87 452 87 478.5 137.5 c 128,-1,47
 505 188 505 188 505 252 c 0,32,33
EndSplineSet
EndChar

StartChar: p
Encoding: 112 112 412
Width: 599
GlyphClass: 2
Flags: W
AnchorPoint: "Anchor-2" 298 0 basechar 0
AnchorPoint: "Anchor-0" 298 499 basechar 0
LayerCount: 2
Fore
SplineSet
315 505 m 0,0,1
 382 505 382 505 434 472 c 128,-1,2
 486 439 486 439 516.5 381.5 c 128,-1,3
 547 324 547 324 547 250 c 0,4,5
 547 177 547 177 516.5 119 c 128,-1,6
 486 61 486 61 433.5 27.5 c 128,-1,7
 381 -6 381 -6 315 -6 c 0,8,9
 282 -6 282 -6 251.5 3.5 c 128,-1,10
 221 13 221 13 195 30.5 c 128,-1,11
 169 48 169 48 147.5 74 c 128,-1,12
 126 100 126 100 110 133 c 1,13,-1
 123 147 l 1,14,-1
 123 -180 l 2,15,16
 123 -188 123 -188 117.5 -194 c 128,-1,17
 112 -200 112 -200 103 -200 c 0,18,19
 95 -200 95 -200 89 -194 c 128,-1,20
 83 -188 83 -188 83 -180 c 2,21,-1
 83 485 l 2,22,23
 83 493 83 493 88.5 499 c 128,-1,24
 94 505 94 505 103 505 c 256,25,26
 112 505 112 505 117.5 499 c 128,-1,27
 123 493 123 493 123 485 c 2,28,-1
 123 357 l 1,29,-1
 110 364 l 1,30,31
 124 401 124 401 145 428 c 128,-1,32
 166 455 166 455 193 472 c 128,-1,33
 220 489 220 489 251 497 c 128,-1,34
 282 505 282 505 315 505 c 0,0,1
313 467 m 0,35,36
 256 467 256 467 212.5 439 c 128,-1,37
 169 411 169 411 144 362.5 c 128,-1,38
 119 314 119 314 119 250 c 0,39,40
 119 187 119 187 144 137.5 c 128,-1,41
 169 88 169 88 212.5 60 c 128,-1,42
 256 32 256 32 313 32 c 0,43,44
 369 32 369 32 412.5 60 c 128,-1,45
 456 88 456 88 481.5 137.5 c 128,-1,46
 507 187 507 187 507 250 c 256,47,48
 507 313 507 313 481.5 362 c 128,-1,49
 456 411 456 411 412.5 439 c 128,-1,50
 369 467 369 467 313 467 c 0,35,36
EndSplineSet
EndChar

StartChar: thorn
Encoding: 254 254 413
Width: 599
GlyphClass: 2
Flags: W
AnchorPoint: "Anchor-2" 282 0 basechar 0
AnchorPoint: "Anchor-0" 282 499 basechar 0
LayerCount: 2
Fore
SplineSet
315 505 m 0,0,1
 382 505 382 505 434 472 c 128,-1,2
 486 439 486 439 516.5 381.5 c 128,-1,3
 547 324 547 324 547 250 c 0,4,5
 547 177 547 177 516.5 119 c 128,-1,6
 486 61 486 61 433.5 27.5 c 128,-1,7
 381 -6 381 -6 315 -6 c 0,8,9
 282 -6 282 -6 251.5 3.5 c 128,-1,10
 221 13 221 13 195 30.5 c 128,-1,11
 169 48 169 48 147.5 74 c 128,-1,12
 126 100 126 100 110 133 c 1,13,-1
 123 147 l 1,14,-1
 123 -180 l 2,15,16
 123 -188 123 -188 117.5 -194 c 128,-1,17
 112 -200 112 -200 103 -200 c 0,18,19
 95 -200 95 -200 89 -194 c 128,-1,20
 83 -188 83 -188 83 -180 c 2,21,-1
 83 720 l 2,22,23
 83 728 83 728 88.5 734 c 128,-1,24
 94 740 94 740 103 740 c 256,25,26
 112 740 112 740 117.5 734 c 128,-1,27
 123 728 123 728 123 720 c 2,28,-1
 123 357 l 1,29,-1
 110 364 l 1,30,31
 124 401 124 401 145 428 c 128,-1,32
 166 455 166 455 193 472 c 128,-1,33
 220 489 220 489 251 497 c 128,-1,34
 282 505 282 505 315 505 c 0,0,1
313 467 m 0,35,36
 256 467 256 467 212.5 439 c 128,-1,37
 169 411 169 411 144 362.5 c 128,-1,38
 119 314 119 314 119 250 c 0,39,40
 119 187 119 187 144 137.5 c 128,-1,41
 169 88 169 88 212.5 60 c 128,-1,42
 256 32 256 32 313 32 c 0,43,44
 369 32 369 32 412.5 60 c 128,-1,45
 456 88 456 88 481.5 137.5 c 128,-1,46
 507 187 507 187 507 250 c 256,47,48
 507 313 507 313 481.5 362 c 128,-1,49
 456 411 456 411 412.5 439 c 128,-1,50
 369 467 369 467 313 467 c 0,35,36
EndSplineSet
EndChar

StartChar: q
Encoding: 113 113 414
Width: 599
GlyphClass: 2
Flags: W
AnchorPoint: "Anchor-2" 302 0 basechar 0
AnchorPoint: "Anchor-0" 302 499 basechar 0
LayerCount: 2
Fore
SplineSet
496 505 m 256,0,1
 505 505 505 505 510.5 499 c 128,-1,2
 516 493 516 493 516 485 c 2,3,-1
 516 -180 l 2,4,5
 516 -188 516 -188 510 -194 c 128,-1,6
 504 -200 504 -200 496 -200 c 0,7,8
 487 -200 487 -200 481.5 -194 c 128,-1,9
 476 -188 476 -188 476 -180 c 2,10,-1
 476 162 l 1,11,-1
 492 184 l 1,12,13
 492 150 492 150 476.5 115.5 c 128,-1,14
 461 81 461 81 432.5 52.5 c 128,-1,15
 404 24 404 24 366 7 c 128,-1,16
 328 -10 328 -10 284 -10 c 0,17,18
 218 -10 218 -10 165.5 24.5 c 128,-1,19
 113 59 113 59 82.5 118.5 c 128,-1,20
 52 178 52 178 52 253 c 256,21,22
 52 328 52 328 82.5 387.5 c 128,-1,23
 113 447 113 447 165.5 481 c 128,-1,24
 218 515 218 515 284 515 c 0,25,26
 325 515 325 515 362.5 499.5 c 128,-1,27
 400 484 400 484 429 456 c 128,-1,28
 458 428 458 428 475 390.5 c 128,-1,29
 492 353 492 353 492 309 c 1,30,-1
 476 334 l 1,31,-1
 476 485 l 2,32,33
 476 493 476 493 481.5 499 c 128,-1,34
 487 505 487 505 496 505 c 256,0,1
286 28 m 0,35,36
 343 28 343 28 386.5 57 c 128,-1,37
 430 86 430 86 455 137 c 128,-1,38
 480 188 480 188 480 253 c 256,39,40
 480 318 480 318 455 368.5 c 128,-1,41
 430 419 430 419 386 448 c 128,-1,42
 342 477 342 477 286 477 c 0,43,44
 231 477 231 477 187 448 c 128,-1,45
 143 419 143 419 117.5 368.5 c 128,-1,46
 92 318 92 318 92 253 c 0,47,48
 92 189 92 189 117.5 138 c 128,-1,49
 143 87 143 87 187 57.5 c 128,-1,50
 231 28 231 28 286 28 c 0,35,36
EndSplineSet
EndChar

StartChar: r
Encoding: 114 114 415
Width: 368
GlyphClass: 2
Flags: W
AnchorPoint: "Anchor-2" 103 0 basechar 0
AnchorPoint: "Anchor-0" 184 499 basechar 0
LayerCount: 2
Fore
SplineSet
103 0 m 0,0,1
 94 0 94 0 88.5 6 c 128,-1,2
 83 12 83 12 83 20 c 2,3,-1
 83 479 l 2,4,5
 83 487 83 487 89 493 c 128,-1,6
 95 499 95 499 103 499 c 0,7,8
 112 499 112 499 117.5 493 c 128,-1,9
 123 487 123 487 123 479 c 2,10,-1
 123 310 l 1,11,-1
 106 284 l 1,12,13
 106 323 106 323 119.5 363 c 128,-1,14
 133 403 133 403 159 437.5 c 128,-1,15
 185 472 185 472 222.5 493.5 c 128,-1,16
 260 515 260 515 309 515 c 0,17,18
 323 515 323 515 339 511 c 128,-1,19
 355 507 355 507 355 492 c 0,20,21
 355 483 355 483 350 477 c 128,-1,22
 345 471 345 471 337 471 c 0,23,24
 331 471 331 471 322.5 475.5 c 128,-1,25
 314 480 314 480 298 480 c 0,26,27
 272 480 272 480 235 458 c 0,28,29
 204 439 204 439 178.5 402.5 c 128,-1,30
 153 366 153 366 138 324 c 128,-1,31
 123 282 123 282 123 247 c 2,32,-1
 123 20 l 2,33,34
 123 12 123 12 117 6 c 128,-1,35
 111 0 111 0 103 0 c 0,0,1
EndSplineSet
EndChar

StartChar: s
Encoding: 115 115 423
Width: 465
GlyphClass: 2
Flags: W
AnchorPoint: "Anchor-2" 233 0 basechar 0
AnchorPoint: "Anchor-0" 233 499 basechar 0
LayerCount: 2
Fore
SplineSet
55 80 m 0,0,1
 48 92 48 92 48.5 99.5 c 128,-1,2
 49 107 49 107 56 112 c 0,3,4
 61 117 61 117 69.5 116.5 c 128,-1,5
 78 116 78 116 84 109 c 0,6,7
 110 72 110 72 150.5 49 c 128,-1,8
 191 26 191 26 246 26 c 0,9,10
 279 26 279 26 309.5 37 c 128,-1,11
 340 48 340 48 359.5 70 c 128,-1,12
 379 92 379 92 379 124 c 0,13,14
 379 158 379 158 360 178.5 c 128,-1,15
 341 199 341 199 311 211 c 128,-1,16
 281 223 281 223 248 231 c 0,17,18
 213 240 213 240 181.5 251.5 c 128,-1,19
 150 263 150 263 126 280.5 c 128,-1,20
 102 298 102 298 88 322 c 128,-1,21
 74 346 74 346 74 379 c 0,22,23
 74 418 74 418 95 449 c 128,-1,24
 116 480 116 480 154 497.5 c 128,-1,25
 192 515 192 515 242 515 c 0,26,27
 266 515 266 515 293 509 c 128,-1,28
 320 503 320 503 347 488.5 c 128,-1,29
 374 474 374 474 397 448 c 0,30,31
 405 442 405 442 404.5 433.5 c 128,-1,32
 404 425 404 425 397 418 c 0,33,34
 391 414 391 414 384 414 c 128,-1,35
 377 414 377 414 372 420 c 0,36,37
 346 449 346 449 311.5 463 c 128,-1,38
 277 477 277 477 238 477 c 0,39,40
 205 477 205 477 176.5 466 c 128,-1,41
 148 455 148 455 130 433.5 c 128,-1,42
 112 412 112 412 112 379 c 0,43,44
 114 348 114 348 133.5 328 c 128,-1,45
 153 308 153 308 185.5 295 c 128,-1,46
 218 282 218 282 259 271 c 0,47,48
 292 263 292 263 320.5 252.5 c 128,-1,49
 349 242 349 242 370.5 226 c 128,-1,50
 392 210 392 210 404.5 186 c 128,-1,51
 417 162 417 162 417 126 c 0,52,53
 417 84 417 84 394.5 53.5 c 128,-1,54
 372 23 372 23 332.5 6.5 c 128,-1,55
 293 -10 293 -10 242 -10 c 0,56,57
 190 -10 190 -10 142 11 c 128,-1,58
 94 32 94 32 55 80 c 0,0,1
EndSplineSet
EndChar

StartChar: germandbls
Encoding: 223 223 434
Width: 586
Flags: W
LayerCount: 2
Fore
SplineSet
118 0 m 256,0,1
 108 0 108 0 103 5 c 128,-1,2
 98 10 98 10 98 20 c 2,3,-1
 100 493 l 2,4,5
 100 528 100 528 109.5 568.5 c 128,-1,6
 119 609 119 609 141.5 645 c 128,-1,7
 164 681 164 681 201.5 703.5 c 128,-1,8
 239 726 239 726 294 726 c 256,9,10
 349 726 349 726 384 706.5 c 128,-1,11
 419 687 419 687 436 656.5 c 128,-1,12
 453 626 453 626 453 591 c 0,13,14
 453 576 453 576 445 551.5 c 128,-1,15
 437 527 437 527 418 504.5 c 128,-1,16
 399 482 399 482 367 471 c 1,17,-1
 367 475 l 1,18,19
 416 461 416 461 454.5 428 c 128,-1,20
 493 395 493 395 515.5 347 c 128,-1,21
 538 299 538 299 538 237 c 0,22,23
 538 165 538 165 508 109.5 c 128,-1,24
 478 54 478 54 428 22 c 128,-1,25
 378 -10 378 -10 319 -10 c 0,26,27
 297 -10 297 -10 274 -7 c 128,-1,28
 251 -4 251 -4 235 6 c 0,29,30
 226 11 226 11 223 18.5 c 128,-1,31
 220 26 220 26 225 34 c 0,32,33
 230 43 230 43 238 44.5 c 128,-1,34
 246 46 246 46 255 40 c 0,35,36
 268 33 268 33 284 29 c 128,-1,37
 300 25 300 25 319 25 c 0,38,39
 363 25 363 25 404 50.5 c 128,-1,40
 445 76 445 76 471.5 123 c 128,-1,41
 498 170 498 170 498 232 c 0,42,43
 498 302 498 302 471 346 c 128,-1,44
 444 390 444 390 403.5 414 c 128,-1,45
 363 438 363 438 323 447 c 0,46,47
 313 449 313 449 307.5 456.5 c 128,-1,48
 302 464 302 464 302 471 c 0,49,50
 302 477 302 477 306.5 483 c 128,-1,51
 311 489 311 489 319 491 c 0,52,53
 354 498 354 498 374.5 515.5 c 128,-1,54
 395 533 395 533 404 553.5 c 128,-1,55
 413 574 413 574 413 589 c 0,56,57
 413 627 413 627 382 656.5 c 128,-1,58
 351 686 351 686 294 686 c 0,59,60
 250 686 250 686 220 668 c 128,-1,61
 190 650 190 650 172.5 621 c 128,-1,62
 155 592 155 592 147.5 558.5 c 128,-1,63
 140 525 140 525 140 493 c 2,64,-1
 138 20 l 2,65,66
 138 10 138 10 133 5 c 128,-1,67
 128 0 128 0 118 0 c 256,0,1
47 465 m 2,68,69
 40 465 40 465 34 471 c 128,-1,70
 28 477 28 477 28 484 c 0,71,72
 28 492 28 492 34 497.5 c 128,-1,73
 40 503 40 503 47 503 c 2,74,-1
 108 503 l 2,75,76
 116 503 116 503 121.5 497 c 128,-1,77
 127 491 127 491 127 484 c 0,78,79
 127 476 127 476 121.5 470.5 c 128,-1,80
 116 465 116 465 108 465 c 2,81,-1
 47 465 l 2,68,69
EndSplineSet
EndChar

StartChar: t
Encoding: 116 116 435
Width: 334
GlyphClass: 2
Flags: W
AnchorPoint: "Anchor-4" 158 250 basechar 0
AnchorPoint: "Anchor-2" 186 0 basechar 0
AnchorPoint: "Anchor-1" 306 489 basechar 0
AnchorPoint: "Anchor-0" 141 650 basechar 0
LayerCount: 2
Fore
SplineSet
37 493 m 2,0,-1
 275 493 l 2,1,2
 283 493 283 493 288.5 487 c 128,-1,3
 294 481 294 481 294 474 c 0,4,5
 294 466 294 466 288.5 460.5 c 128,-1,6
 283 455 283 455 275 455 c 2,7,-1
 37 455 l 2,8,9
 30 455 30 455 24 461 c 128,-1,10
 18 467 18 467 18 474 c 0,11,12
 18 482 18 482 24 487.5 c 128,-1,13
 30 493 30 493 37 493 c 2,0,-1
137 650 m 0,14,15
 146 650 146 650 151.5 644 c 128,-1,16
 157 638 157 638 157 630 c 2,17,-1
 157 109 l 2,18,19
 157 76 157 76 170.5 60.5 c 128,-1,20
 184 45 184 45 202 40.5 c 128,-1,21
 220 36 220 36 232 36 c 0,22,23
 249 36 249 36 262 38 c 128,-1,24
 275 40 275 40 282 40 c 256,25,26
 289 40 289 40 294 34.5 c 128,-1,27
 299 29 299 29 299 22 c 0,28,29
 299 13 299 13 287.5 6.5 c 128,-1,30
 276 0 276 0 243 0 c 0,31,32
 237 0 237 0 216.5 0.5 c 128,-1,33
 196 1 196 1 173.5 9.5 c 128,-1,34
 151 18 151 18 134 40.5 c 128,-1,35
 117 63 117 63 117 107 c 2,36,-1
 117 630 l 2,37,38
 117 638 117 638 123 644 c 128,-1,39
 129 650 129 650 137 650 c 0,14,15
EndSplineSet
EndChar

StartChar: u
Encoding: 117 117 444
Width: 563
GlyphClass: 2
Flags: W
AnchorPoint: "Anchor-3" 507 10 basechar 0
AnchorPoint: "Anchor-2" 282 0 basechar 0
AnchorPoint: "Anchor-1" 384 496 basechar 0
AnchorPoint: "Anchor-0" 282 499 basechar 0
LayerCount: 2
Fore
SplineSet
426 63 m 0,0,1
 425 62 425 62 421 59 c 0,2,3
 353 -6 353 -6 281 -6 c 0,4,5
 192 -6 192 -6 137.5 42.5 c 128,-1,6
 83 91 83 91 83 188 c 2,7,-1
 83 479 l 2,8,9
 83 487 83 487 89 493 c 128,-1,10
 95 499 95 499 103 499 c 0,11,12
 112 499 112 499 117.5 493 c 128,-1,13
 123 487 123 487 123 479 c 2,14,-1
 123 188 l 2,15,16
 123 112 123 112 165.5 72 c 128,-1,17
 208 32 208 32 281 32 c 0,18,19
 343 32 343 32 398 92 c 0,20,21
 440 136 440 136 440 188 c 2,22,-1
 440 479 l 2,23,24
 440 487 440 487 445.5 493 c 128,-1,25
 451 499 451 499 460 499 c 256,26,27
 469 499 469 499 474.5 493 c 128,-1,28
 480 487 480 487 480 479 c 2,29,-1
 480 209 l 1,30,-1
 480 188 l 1,31,-1
 480 146 l 1,32,-1
 480 15 l 2,33,34
 480 7 480 7 474 1 c 128,-1,35
 468 -5 468 -5 460 -5 c 0,36,37
 451 -5 451 -5 445.5 1 c 128,-1,38
 440 7 440 7 440 15 c 2,39,-1
 440 120 l 1,40,-1
 453 95 l 2,41,42
 453 93 453 93 426 63 c 0,0,1
EndSplineSet
EndChar

StartChar: uogonek
Encoding: 371 371 464
Width: 563
Flags: W
LayerCount: 2
Fore
SplineSet
377 -185 m 0,0,1
 340 -185 340 -185 309.5 -158.5 c 128,-1,2
 279 -132 279 -132 279 -88 c 0,3,4
 279 -59 279 -59 287.5 -38 c 128,-1,5
 296 -17 296 -17 309.5 -3 c 128,-1,6
 323 11 323 11 340 20.5 c 128,-1,7
 357 30 357 30 375 36 c 1,8,-1
 346 1 l 1,9,10
 331 -3 331 -3 314.5 -4.5 c 128,-1,11
 298 -6 298 -6 281 -6 c 0,12,13
 192 -6 192 -6 137.5 42.5 c 128,-1,14
 83 91 83 91 83 188 c 2,15,-1
 83 479 l 2,16,17
 83 487 83 487 89 493 c 128,-1,18
 95 499 95 499 103 499 c 0,19,20
 112 499 112 499 117.5 493 c 128,-1,21
 123 487 123 487 123 479 c 2,22,-1
 123 188 l 2,23,24
 123 112 123 112 165.5 72 c 128,-1,25
 208 32 208 32 281 32 c 0,26,27
 355 32 355 32 397.5 72 c 128,-1,28
 440 112 440 112 440 188 c 2,29,-1
 440 479 l 2,30,31
 440 487 440 487 445.5 493 c 128,-1,32
 451 499 451 499 460 499 c 256,33,34
 469 499 469 499 474.5 493 c 128,-1,35
 480 487 480 487 480 479 c 2,36,-1
 480 188 l 2,37,38
 480 127 480 127 458.5 84.5 c 128,-1,39
 437 42 437 42 396 20 c 0,40,41
 375 9 375 9 357 -3 c 128,-1,42
 339 -15 339 -15 328 -32.5 c 128,-1,43
 317 -50 317 -50 317 -80 c 0,44,45
 317 -112 317 -112 337 -130 c 128,-1,46
 357 -148 357 -148 382 -148 c 0,47,48
 396 -148 396 -148 403.5 -144 c 128,-1,49
 411 -140 411 -140 415 -136 c 0,50,51
 420 -131 420 -131 424 -126.5 c 128,-1,52
 428 -122 428 -122 435 -122 c 256,53,54
 442 -122 442 -122 445.5 -126.5 c 128,-1,55
 449 -131 449 -131 449 -136 c 0,56,57
 449 -149 449 -149 439.5 -160.5 c 128,-1,58
 430 -172 430 -172 414 -178.5 c 128,-1,59
 398 -185 398 -185 377 -185 c 0,0,1
EndSplineSet
EndChar

StartChar: v
Encoding: 118 118 468
Width: 518
GlyphClass: 2
Flags: W
AnchorPoint: "Anchor-2" 259 0 basechar 0
AnchorPoint: "Anchor-0" 259 499 basechar 0
LayerCount: 2
Fore
SplineSet
59 517 m 0,0,1
 64 517 64 517 69.5 513.5 c 128,-1,2
 75 510 75 510 77 504 c 2,3,-1
 262 61 l 1,4,-1
 252 54 l 1,5,-1
 440 504 l 2,6,7
 445 517 445 517 461 517 c 0,8,9
 466 517 466 517 473 513 c 128,-1,10
 480 509 480 509 480 501 c 0,11,12
 480 496 480 496 479 493.5 c 128,-1,13
 478 491 478 491 477 489 c 2,14,-1
 278 13 l 2,15,16
 273 0 273 0 259 0 c 0,17,18
 253 0 253 0 247.5 3.5 c 128,-1,19
 242 7 242 7 240 13 c 2,20,-1
 40 488 l 2,21,22
 39 490 39 490 38.5 492.5 c 128,-1,23
 38 495 38 495 38 497 c 0,24,25
 38 505 38 505 43 511 c 128,-1,26
 48 517 48 517 59 517 c 0,0,1
EndSplineSet
EndChar

StartChar: w
Encoding: 119 119 469
Width: 746
GlyphClass: 2
Flags: W
AnchorPoint: "Anchor-2" 373 0 basechar 0
AnchorPoint: "Anchor-0" 373 479 basechar 0
LayerCount: 2
Fore
SplineSet
687 517 m 0,0,1
 695 517 695 517 701.5 512.5 c 128,-1,2
 708 508 708 508 708 498 c 0,3,4
 708 497 708 497 707.5 493.5 c 128,-1,5
 707 490 707 490 706 488 c 2,6,-1
 551 13 l 2,7,8
 548 7 548 7 543 3.5 c 128,-1,9
 538 0 538 0 532 0 c 0,10,11
 520 0 520 0 513 13 c 2,12,-1
 359 360 l 1,13,-1
 374 355 l 1,14,-1
 238 13 l 2,15,16
 233 0 233 0 219 0 c 0,17,18
 213 0 213 0 207.5 3.5 c 128,-1,19
 202 7 202 7 200 13 c 2,20,-1
 40 488 l 2,21,22
 38 494 38 494 38 498 c 0,23,24
 38 507 38 507 44 512 c 128,-1,25
 50 517 50 517 59 517 c 0,26,27
 65 517 65 517 70 513.5 c 128,-1,28
 75 510 75 510 77 504 c 2,29,-1
 226 45 l 1,30,-1
 209 45 l 1,31,-1
 351 397 l 2,32,33
 356 410 356 410 370 410 c 0,34,35
 376 410 376 410 381.5 406.5 c 128,-1,36
 387 403 387 403 389 397 c 2,37,-1
 542 44 l 1,38,-1
 522 44 l 1,39,-1
 669 504 l 2,40,41
 674 517 674 517 687 517 c 0,0,1
EndSplineSet
EndChar

StartChar: x
Encoding: 120 120 474
Width: 483
GlyphClass: 2
Flags: W
AnchorPoint: "Anchor-2" 242 0 basechar 0
AnchorPoint: "Anchor-0" 242 499 basechar 0
LayerCount: 2
Fore
SplineSet
61 510 m 0,0,1
 71 510 71 510 77 501 c 2,2,-1
 438 28 l 2,3,4
 442 23 442 23 442 16 c 0,5,6
 442 8 442 8 436.5 2 c 128,-1,7
 431 -4 431 -4 423 -4 c 0,8,9
 414 -4 414 -4 406 5 c 2,10,-1
 44 477 l 2,11,12
 40 482 40 482 40 489 c 0,13,14
 40 498 40 498 46.5 504 c 128,-1,15
 53 510 53 510 61 510 c 0,0,1
406 501 m 2,16,17
 414 510 414 510 423 510 c 0,18,19
 433 510 433 510 437.5 505 c 128,-1,20
 442 500 442 500 442 493 c 0,21,22
 442 490 442 490 440.5 486.5 c 128,-1,23
 439 483 439 483 437 480 c 2,24,-1
 77 4 l 2,25,26
 71 -4 71 -4 61 -4 c 0,27,28
 54 -4 54 -4 48 0.5 c 128,-1,29
 42 5 42 5 42 15 c 0,30,31
 42 22 42 22 46 27 c 2,32,-1
 406 501 l 2,16,17
EndSplineSet
EndChar

StartChar: y
Encoding: 121 121 475
Width: 518
GlyphClass: 2
Flags: W
AnchorPoint: "Anchor-2" 281 0 basechar 0
AnchorPoint: "Anchor-0" 281 499 basechar 0
LayerCount: 2
Fore
SplineSet
238 18 m 1,0,-1
 40 488 l 2,1,2
 39 490 39 490 38.5 492.5 c 128,-1,3
 38 495 38 495 38 497 c 0,4,5
 38 505 38 505 43 511 c 128,-1,6
 48 517 48 517 59 517 c 0,7,8
 64 517 64 517 69.5 513.5 c 128,-1,9
 75 510 75 510 77 504 c 2,10,-1
 262 61 l 1,11,-1
 252 54 l 1,12,-1
 440 504 l 2,13,14
 445 517 445 517 461 517 c 0,15,16
 466 517 466 517 473 513 c 128,-1,17
 480 509 480 509 480 501 c 0,18,19
 480 496 480 496 479 493.5 c 128,-1,20
 478 491 478 491 477 489 c 2,21,-1
 283 26 l 1,22,-1
 242 -69 l 2,23,24
 229 -98 229 -98 204 -134 c 0,25,26
 182 -165 182 -165 149 -182 c 0,27,28
 118 -198 118 -198 90 -198 c 0,29,30
 80 -198 80 -198 76 -192 c 0,31,32
 71 -185 71 -185 71 -180 c 2,33,-1
 71 -178 l 2,34,35
 71 -170 71 -170 77 -165 c 0,36,37
 84 -160 84 -160 89 -159 c 0,38,39
 110 -155 110 -155 133 -144 c 0,40,41
 175 -124 175 -124 205 -53 c 2,42,-1
 232 8 l 1,43,-1
 238 18 l 1,0,-1
EndSplineSet
EndChar

StartChar: z
Encoding: 122 122 485
Width: 477
GlyphClass: 2
Flags: W
AnchorPoint: "Anchor-2" 234 0 basechar 0
AnchorPoint: "Anchor-0" 262 499 basechar 0
LayerCount: 2
Fore
SplineSet
397 38 m 2,0,1
 405 38 405 38 411 32 c 128,-1,2
 417 26 417 26 417 19 c 0,3,4
 417 11 417 11 411 5.5 c 128,-1,5
 405 0 405 0 397 0 c 2,6,-1
 71 0 l 2,7,8
 61 0 61 0 55.5 7.5 c 128,-1,9
 50 15 50 15 50 20 c 0,10,11
 50 24 50 24 51.5 27 c 128,-1,12
 53 30 53 30 55 33 c 2,13,-1
 377 485 l 1,14,-1
 382 477 l 1,15,-1
 101 477 l 2,16,17
 93 477 93 477 87 483 c 128,-1,18
 81 489 81 489 81 496 c 0,19,20
 81 504 81 504 87 509.5 c 128,-1,21
 93 515 93 515 101 515 c 2,22,-1
 407 515 l 2,23,24
 415 515 415 515 420.5 509 c 128,-1,25
 426 503 426 503 427 495 c 0,26,27
 427 491 427 491 425.5 487.5 c 128,-1,28
 424 484 424 484 422 481 c 2,29,-1
 102 33 l 1,30,-1
 87 38 l 1,31,-1
 397 38 l 2,0,1
EndSplineSet
EndChar

StartChar: a.ss01
Encoding: 65540 -1 490
Width: 529
GlyphClass: 2
Flags: W
AnchorPoint: "Anchor-3" 503 0 basechar 0
AnchorPoint: "Anchor-2" 258 0 basechar 0
AnchorPoint: "Anchor-0" 265 515 basechar 0
LayerCount: 2
Fore
SplineSet
242 28 m 0,0,1
 308 28 308 28 349.5 60.5 c 128,-1,2
 391 93 391 93 391 148 c 0,3,4
 391 204 391 204 349 235 c 128,-1,5
 307 266 307 266 241 266 c 0,6,7
 178 266 178 266 135 235 c 128,-1,8
 92 204 92 204 92 148 c 256,9,10
 92 92 92 92 135 60 c 128,-1,11
 178 28 178 28 242 28 c 0,0,1
221 -10 m 0,12,13
 169 -10 169 -10 131 11.5 c 128,-1,14
 93 33 93 33 72.5 69 c 128,-1,15
 52 105 52 105 52 146 c 0,16,17
 52 196 52 196 80 231 c 128,-1,18
 108 266 108 266 151 285 c 128,-1,19
 194 304 194 304 239 304 c 0,20,21
 271 304 271 304 302 294.5 c 128,-1,22
 333 285 333 285 358.5 268 c 128,-1,23
 384 251 384 251 397 228 c 1,24,-1
 388 215 l 1,25,-1
 388 362 l 2,26,27
 388 421 388 421 346.5 449 c 128,-1,28
 305 477 305 477 246 477 c 0,29,30
 200 477 200 477 155.5 454.5 c 128,-1,31
 111 432 111 432 88 398 c 0,32,33
 81 389 81 389 71 389 c 0,34,35
 64 389 64 389 59 394.5 c 128,-1,36
 54 400 54 400 54 407 c 0,37,38
 54 410 54 410 55 413 c 128,-1,39
 56 416 56 416 58 419 c 0,40,41
 78 449 78 449 108 470.5 c 128,-1,42
 138 492 138 492 174.5 503.5 c 128,-1,43
 211 515 211 515 249 515 c 0,44,45
 300 515 300 515 340.5 501 c 128,-1,46
 381 487 381 487 404.5 454.5 c 128,-1,47
 428 422 428 422 428 365 c 2,48,-1
 428 85 l 2,49,50
 428 60 428 60 439.5 48 c 128,-1,51
 451 36 451 36 463 36 c 0,52,53
 476 36 476 36 485 43 c 128,-1,54
 494 50 494 50 507 50 c 0,55,56
 515 50 515 50 519.5 44.5 c 128,-1,57
 524 39 524 39 524 32 c 0,58,59
 524 19 524 19 500.5 9.5 c 128,-1,60
 477 0 477 0 454 0 c 0,61,62
 429 0 429 0 412.5 18 c 128,-1,63
 396 36 396 36 388 60 c 1,64,-1
 406 85 l 1,65,66
 389 53 389 53 362.5 31.5 c 128,-1,67
 336 10 336 10 300.5 0 c 128,-1,68
 265 -10 265 -10 221 -10 c 0,12,13
EndSplineSet
EndChar

StartChar: aogonek.ss01
Encoding: 65562 -1 512
Width: 507
GlyphClass: 2
Flags: W
AnchorPoint: "Anchor-3" 501 0 basechar 0
AnchorPoint: "Anchor-2" 256 0 basechar 0
AnchorPoint: "Anchor-0" 226 515 basechar 0
LayerCount: 2
Fore
SplineSet
250 28 m 0,0,1
 312 28 312 28 350.5 60.5 c 128,-1,2
 389 93 389 93 389 148 c 0,3,4
 389 204 389 204 353 235 c 128,-1,5
 317 266 317 266 255 266 c 0,6,7
 189 266 189 266 149.5 235 c 128,-1,8
 110 204 110 204 110 148 c 0,9,10
 110 93 110 93 147 60.5 c 128,-1,11
 184 28 184 28 250 28 c 0,0,1
433 -195 m 0,12,13
 400 -195 400 -195 372.5 -170 c 128,-1,14
 345 -145 345 -145 345 -103 c 0,15,16
 345 -80 345 -80 352.5 -61.5 c 128,-1,17
 360 -43 360 -43 372.5 -30 c 128,-1,18
 385 -17 385 -17 400 -7.5 c 128,-1,19
 415 2 415 2 431 7 c 1,20,-1
 452 0 l 1,21,22
 417 0 417 0 401.5 17.5 c 128,-1,23
 386 35 386 35 386 66 c 1,24,-1
 404 91 l 1,25,26
 395 57 395 57 370.5 34.5 c 128,-1,27
 346 12 346 12 312 1 c 128,-1,28
 278 -10 278 -10 239 -10 c 0,29,30
 184 -10 184 -10 144.5 10 c 128,-1,31
 105 30 105 30 84 65 c 128,-1,32
 63 100 63 100 63 145 c 0,33,34
 63 195 63 195 90.5 230.5 c 128,-1,35
 118 266 118 266 161.5 285 c 128,-1,36
 205 304 205 304 253 304 c 0,37,38
 283 304 283 304 311.5 295.5 c 128,-1,39
 340 287 340 287 363 271 c 128,-1,40
 386 255 386 255 398 232 c 1,41,-1
 386 215 l 1,42,-1
 386 362 l 2,43,44
 386 412 386 412 366 436.5 c 128,-1,45
 346 461 346 461 314.5 469 c 128,-1,46
 283 477 283 477 246 477 c 0,47,48
 200 477 200 477 159.5 454.5 c 128,-1,49
 119 432 119 432 96 398 c 0,50,51
 89 389 89 389 79 389 c 0,52,53
 72 389 72 389 67 394.5 c 128,-1,54
 62 400 62 400 62 407 c 0,55,56
 62 410 62 410 63 413 c 128,-1,57
 64 416 64 416 66 419 c 0,58,59
 86 449 86 449 114 470.5 c 128,-1,60
 142 492 142 492 176.5 503.5 c 128,-1,61
 211 515 211 515 249 515 c 0,62,63
 297 515 297 515 337.5 503 c 128,-1,64
 378 491 378 491 402 459 c 128,-1,65
 426 427 426 427 426 365 c 2,66,-1
 426 69 l 2,67,68
 426 47 426 47 437.5 41.5 c 128,-1,69
 449 36 449 36 461 36 c 0,70,71
 468 36 468 36 473 38 c 128,-1,72
 478 40 478 40 485 40 c 0,73,74
 493 40 493 40 497.5 34.5 c 128,-1,75
 502 29 502 29 502 22 c 0,76,77
 502 12 502 12 491.5 8 c 128,-1,78
 481 4 481 4 470 -1 c 0,79,80
 452 -10 452 -10 432 -23 c 128,-1,81
 412 -36 412 -36 397.5 -54 c 128,-1,82
 383 -72 383 -72 383 -95 c 0,83,84
 383 -125 383 -125 400 -141.5 c 128,-1,85
 417 -158 417 -158 438 -158 c 0,86,87
 462 -158 462 -158 470 -147 c 0,88,89
 475 -140 475 -140 479.5 -136 c 128,-1,90
 484 -132 484 -132 491 -132 c 256,91,92
 498 -132 498 -132 501.5 -136.5 c 128,-1,93
 505 -141 505 -141 505 -146 c 0,94,95
 505 -159 505 -159 495.5 -170.5 c 128,-1,96
 486 -182 486 -182 470 -188.5 c 128,-1,97
 454 -195 454 -195 433 -195 c 0,12,13
EndSplineSet
EndChar

StartChar: g.ss01
Encoding: 65566 -1 516
Width: 520
GlyphClass: 2
Flags: W
AnchorPoint: "Anchor-2" 216 0 basechar 0
AnchorPoint: "Anchor-0" 230 499 basechar 0
LayerCount: 2
Fore
SplineSet
434 327 m 256,0,1
 434 272 434 272 407 230 c 128,-1,2
 380 188 380 188 334.5 164 c 128,-1,3
 289 140 289 140 232 140 c 256,4,5
 175 140 175 140 129.5 164 c 128,-1,6
 84 188 84 188 57 230 c 128,-1,7
 30 272 30 272 30 327 c 256,8,9
 30 382 30 382 57 424.5 c 128,-1,10
 84 467 84 467 129.5 491 c 128,-1,11
 175 515 175 515 232 515 c 256,12,13
 289 515 289 515 334.5 491 c 128,-1,14
 380 467 380 467 407 424.5 c 128,-1,15
 434 382 434 382 434 327 c 256,0,1
396 325 m 0,16,17
 396 395 396 395 349.5 436 c 128,-1,18
 303 477 303 477 232 477 c 256,19,20
 161 477 161 477 115.5 436 c 128,-1,21
 70 395 70 395 70 325 c 0,22,23
 70 256 70 256 115.5 215 c 128,-1,24
 161 174 161 174 232 174 c 256,25,26
 303 174 303 174 349.5 215 c 128,-1,27
 396 256 396 256 396 325 c 0,16,17
211 126 m 0,28,29
 196 126 196 126 184 130 c 128,-1,30
 172 134 172 134 168 145 c 2,31,-1
 159 168 l 1,32,-1
 231 159 l 1,33,34
 354 159 354 159 420.5 110 c 128,-1,35
 487 61 487 61 487 -15 c 0,36,37
 487 -73 487 -73 451 -114.5 c 128,-1,38
 415 -156 415 -156 354.5 -178 c 128,-1,39
 294 -200 294 -200 220 -200 c 0,40,41
 156 -200 156 -200 115 -184 c 128,-1,42
 74 -168 74 -168 54 -149 c 128,-1,43
 34 -130 34 -130 34 -121 c 0,44,45
 34 -110 34 -110 40 -104 c 128,-1,46
 46 -98 46 -98 55 -98 c 0,47,48
 63 -98 63 -98 71.5 -106 c 128,-1,49
 80 -114 80 -114 87 -123 c 0,50,51
 100 -137 100 -137 139.5 -149.5 c 128,-1,52
 179 -162 179 -162 223 -162 c 0,53,54
 288 -162 288 -162 338.5 -145.5 c 128,-1,55
 389 -129 389 -129 418 -96 c 128,-1,56
 447 -63 447 -63 447 -15 c 0,57,58
 447 21 447 21 423.5 53 c 128,-1,59
 400 85 400 85 348 105.5 c 128,-1,60
 296 126 296 126 211 126 c 0,28,29
397 395 m 1,61,-1
 390 429 l 1,62,-1
 446 497 l 2,63,64
 454 507 454 507 460 511 c 128,-1,65
 466 515 466 515 476 515 c 0,66,67
 484 515 484 515 491.5 508.5 c 128,-1,68
 499 502 499 502 499 492 c 0,69,70
 499 485 499 485 495 479.5 c 128,-1,71
 491 474 491 474 483 466 c 2,72,-1
 397 395 l 1,61,-1
EndSplineSet
EndChar

StartChar: ordfeminine
Encoding: 170 170 530
Width: 349
Flags: W
LayerCount: 2
Fore
SplineSet
149 391 m 0,0,1
 108 391 108 391 80.5 413.5 c 128,-1,2
 53 436 53 436 39 473 c 128,-1,3
 25 510 25 510 25 555 c 0,4,5
 25 599 25 599 42.5 634 c 128,-1,6
 60 669 60 669 90 689.5 c 128,-1,7
 120 710 120 710 157 710 c 0,8,9
 206 710 206 710 240.5 677.5 c 128,-1,10
 275 645 275 645 275 583 c 1,11,-1
 259 624 l 1,12,-1
 259 674 l 2,13,14
 259 682 259 682 264.5 688 c 128,-1,15
 270 694 270 694 279 694 c 256,16,17
 288 694 288 694 293.5 688 c 128,-1,18
 299 682 299 682 299 674 c 2,19,-1
 299 421 l 2,20,21
 299 412 299 412 293 406.5 c 128,-1,22
 287 401 287 401 279 401 c 0,23,24
 270 401 270 401 264.5 407 c 128,-1,25
 259 413 259 413 259 421 c 2,26,-1
 259 474 l 1,27,-1
 275 503 l 1,28,29
 275 478 275 478 258 452 c 128,-1,30
 241 426 241 426 212.5 408.5 c 128,-1,31
 184 391 184 391 149 391 c 0,0,1
156 429 m 0,32,33
 203 429 203 429 233 462.5 c 128,-1,34
 263 496 263 496 263 555 c 0,35,36
 263 611 263 611 235.5 641.5 c 128,-1,37
 208 672 208 672 164 672 c 0,38,39
 124 672 124 672 94.5 638.5 c 128,-1,40
 65 605 65 605 65 555 c 0,41,42
 65 503 65 503 87.5 466 c 128,-1,43
 110 429 110 429 156 429 c 0,32,33
EndSplineSet
EndChar

StartChar: ordmasculine
Encoding: 186 186 531
Width: 348
Flags: W
LayerCount: 2
Fore
SplineSet
323 549 m 0,0,1
 323 504 323 504 303.5 468.5 c 128,-1,2
 284 433 284 433 250 412.5 c 128,-1,3
 216 392 216 392 173 392 c 0,4,5
 131 392 131 392 97.5 412.5 c 128,-1,6
 64 433 64 433 44.5 468.5 c 128,-1,7
 25 504 25 504 25 549 c 0,8,9
 25 595 25 595 44.5 631 c 128,-1,10
 64 667 64 667 97.5 688.5 c 128,-1,11
 131 710 131 710 173 710 c 0,12,13
 216 710 216 710 250 688.5 c 128,-1,14
 284 667 284 667 303.5 631 c 128,-1,15
 323 595 323 595 323 549 c 0,0,1
285 549 m 0,16,17
 285 602 285 602 254.5 637 c 128,-1,18
 224 672 224 672 173 672 c 0,19,20
 123 672 123 672 93 637 c 128,-1,21
 63 602 63 602 63 549 c 0,22,23
 63 499 63 499 93 464 c 128,-1,24
 123 429 123 429 173 429 c 0,25,26
 224 429 224 429 254.5 464 c 128,-1,27
 285 499 285 499 285 549 c 0,16,17
EndSplineSet
EndChar

StartChar: pi
Encoding: 960 960 532
Width: 619
Flags: W
LayerCount: 2
Fore
SplineSet
149 0 m 256,0,1
 140 0 140 0 134.5 6 c 128,-1,2
 129 12 129 12 129 20 c 2,3,-1
 129 470 l 2,4,5
 129 475 129 475 124 475 c 2,6,-1
 65 475 l 2,7,8
 57 475 57 475 51 480.5 c 128,-1,9
 45 486 45 486 45 495 c 256,10,11
 45 504 45 504 51 509.5 c 128,-1,12
 57 515 57 515 65 515 c 2,13,-1
 554 515 l 2,14,15
 562 515 562 515 568 509.5 c 128,-1,16
 574 504 574 504 574 495 c 256,17,18
 574 486 574 486 568 480.5 c 128,-1,19
 562 475 562 475 554 475 c 2,20,-1
 494 475 l 2,21,22
 489 475 489 475 489 470 c 2,23,-1
 489 20 l 2,24,25
 489 12 489 12 483.5 6 c 128,-1,26
 478 0 478 0 469 0 c 256,27,28
 460 0 460 0 454.5 6 c 128,-1,29
 449 12 449 12 449 20 c 2,30,-1
 449 470 l 2,31,32
 449 475 449 475 444 475 c 2,33,-1
 174 475 l 2,34,35
 169 475 169 475 169 470 c 2,36,-1
 169 20 l 2,37,38
 169 12 169 12 163.5 6 c 128,-1,39
 158 0 158 0 149 0 c 256,0,1
EndSplineSet
EndChar

StartChar: zero
Encoding: 48 48 533
Width: 588
GlyphClass: 2
Flags: W
AnchorPoint: "Anchor-4" 283 351 basechar 0
LayerCount: 2
Fore
SplineSet
294 -10 m 0,0,1
 215 -10 215 -10 163 38.5 c 128,-1,2
 111 87 111 87 85.5 169 c 128,-1,3
 60 251 60 251 60 350 c 0,4,5
 60 450 60 450 85.5 531.5 c 128,-1,6
 111 613 111 613 163 661.5 c 128,-1,7
 215 710 215 710 294 710 c 0,8,9
 374 710 374 710 425.5 661.5 c 128,-1,10
 477 613 477 613 502.5 531.5 c 128,-1,11
 528 450 528 450 528 350 c 0,12,13
 528 251 528 251 502.5 169 c 128,-1,14
 477 87 477 87 425.5 38.5 c 128,-1,15
 374 -10 374 -10 294 -10 c 0,0,1
294 32 m 256,16,17
 358 32 358 32 400.5 73 c 128,-1,18
 443 114 443 114 464.5 186 c 128,-1,19
 486 258 486 258 486 350 c 0,20,21
 486 443 486 443 464.5 515 c 128,-1,22
 443 587 443 587 400.5 627.5 c 128,-1,23
 358 668 358 668 294 668 c 256,24,25
 230 668 230 668 187.5 627.5 c 128,-1,26
 145 587 145 587 123.5 515 c 128,-1,27
 102 443 102 443 102 350 c 0,28,29
 102 258 102 258 123.5 186 c 128,-1,30
 145 114 145 114 187.5 73 c 128,-1,31
 230 32 230 32 294 32 c 256,16,17
EndSplineSet
Substitution2: "'zero' Slashed Zero in Latin lookup 38 subtable" zero.zero
Substitution2: "'frac' Diagonal Fractions in Latin lookup 28 subtable" zero.numr
Substitution2: "'dnom' Denominators in Latin lookup 26 subtable" zero.dnom
Substitution2: "'numr' Numerators in Latin lookup 25 subtable" zero.numr
Substitution2: "'sups' Superscript in Latin lookup 24 subtable" uni2070
Substitution2: "'sinf' Scientific Inferiors in Latin lookup 23 subtable" uni2080
Substitution2: "'subs' Subscript in Latin lookup 22 subtable" uni2080
AlternateSubs2: "'aalt' Access All Alternates in Latin lookup 1 subtable" zero.zero zero.dnom uni2080 zero.numr uni2070
EndChar

StartChar: one
Encoding: 49 49 534
Width: 363
Flags: W
LayerCount: 2
Fore
SplineSet
222 0 m 256,0,1
 213 0 213 0 207 6 c 128,-1,2
 201 12 201 12 201 20 c 2,3,-1
 201 654 l 1,4,-1
 211 648 l 1,5,-1
 58 547 l 2,6,7
 52 543 52 543 47 543 c 0,8,9
 38 543 38 543 31.5 550.5 c 128,-1,10
 25 558 25 558 25 565 c 0,11,12
 25 576 25 576 36 582 c 2,13,-1
 211 697 l 2,14,15
 216 700 216 700 220 700.5 c 128,-1,16
 224 701 224 701 228 700 c 0,17,18
 235 699 235 699 239 693.5 c 128,-1,19
 243 688 243 688 243 680 c 2,20,-1
 243 20 l 2,21,22
 243 12 243 12 237 6 c 128,-1,23
 231 0 231 0 222 0 c 256,0,1
EndSplineSet
Substitution2: "'frac' Diagonal Fractions in Latin lookup 28 subtable" one.numr
Substitution2: "'dnom' Denominators in Latin lookup 26 subtable" one.dnom
Substitution2: "'numr' Numerators in Latin lookup 25 subtable" one.numr
Substitution2: "'sups' Superscript in Latin lookup 24 subtable" uni00B9
Substitution2: "'sinf' Scientific Inferiors in Latin lookup 23 subtable" uni2081
Substitution2: "'subs' Subscript in Latin lookup 22 subtable" uni2081
AlternateSubs2: "'aalt' Access All Alternates in Latin lookup 1 subtable" one.dnom uni2081 one.numr uni00B9
EndChar

StartChar: two
Encoding: 50 50 535
Width: 549
Flags: W
LayerCount: 2
Fore
SplineSet
479 40 m 2,0,1
 487 40 487 40 493 34 c 128,-1,2
 499 28 499 28 499 20 c 0,3,4
 499 11 499 11 493 5.5 c 128,-1,5
 487 0 487 0 479 0 c 2,6,-1
 93 0 l 2,7,8
 84 0 84 0 76 4.5 c 128,-1,9
 68 9 68 9 68 21 c 0,10,11
 68 27 68 27 73 34 c 2,12,-1
 308 296 l 2,13,14
 370 363 370 363 399.5 416.5 c 128,-1,15
 429 470 429 470 429 513 c 0,16,17
 429 584 429 584 385 627 c 128,-1,18
 341 670 341 670 267 670 c 0,19,20
 232 670 232 670 198 656 c 128,-1,21
 164 642 164 642 138.5 619 c 128,-1,22
 113 596 113 596 101 568 c 0,23,24
 97 559 97 559 92.5 555.5 c 128,-1,25
 88 552 88 552 80 552 c 256,26,27
 72 552 72 552 66 556.5 c 128,-1,28
 60 561 60 561 60 568 c 0,29,30
 60 572 60 572 61 575.5 c 128,-1,31
 62 579 62 579 65 586 c 0,32,33
 81 619 81 619 113.5 647 c 128,-1,34
 146 675 146 675 187.5 692.5 c 128,-1,35
 229 710 229 710 270 710 c 0,36,37
 332 710 332 710 377.5 686 c 128,-1,38
 423 662 423 662 448 619 c 128,-1,39
 473 576 473 576 473 517 c 0,40,41
 473 466 473 466 441 406 c 128,-1,42
 409 346 409 346 341 272 c 2,43,-1
 126 28 l 1,44,-1
 117 40 l 1,45,-1
 479 40 l 2,0,1
EndSplineSet
Substitution2: "'frac' Diagonal Fractions in Latin lookup 28 subtable" two.numr
Substitution2: "'dnom' Denominators in Latin lookup 26 subtable" two.dnom
Substitution2: "'numr' Numerators in Latin lookup 25 subtable" two.numr
Substitution2: "'sups' Superscript in Latin lookup 24 subtable" uni00B2
Substitution2: "'sinf' Scientific Inferiors in Latin lookup 23 subtable" uni2082
Substitution2: "'subs' Subscript in Latin lookup 22 subtable" uni2082
AlternateSubs2: "'aalt' Access All Alternates in Latin lookup 1 subtable" two.dnom uni2082 two.numr uni00B2
EndChar

StartChar: three
Encoding: 51 51 536
Width: 519
Flags: W
LayerCount: 2
Fore
SplineSet
81 90 m 0,0,1
 85 90 85 90 89 88.5 c 128,-1,2
 93 87 93 87 99 80 c 0,3,4
 121 56 121 56 152 44 c 128,-1,5
 183 32 183 32 222 32 c 0,6,7
 277 32 277 32 321.5 56 c 128,-1,8
 366 80 366 80 392.5 123 c 128,-1,9
 419 166 419 166 419 221 c 0,10,11
 419 285 419 285 390 324.5 c 128,-1,12
 361 364 361 364 317 382.5 c 128,-1,13
 273 401 273 401 227 401 c 0,14,15
 220 401 220 401 211 400.5 c 128,-1,16
 202 400 202 400 194.5 399 c 128,-1,17
 187 398 187 398 186 398 c 0,18,19
 177 398 177 398 171.5 404 c 128,-1,20
 166 410 166 410 166 420 c 0,21,22
 166 424 166 424 168 428 c 128,-1,23
 170 432 170 432 174 437 c 2,24,-1
 386 669 l 1,25,-1
 392 655 l 1,26,-1
 70 655 l 2,27,28
 62 655 62 655 56 661 c 128,-1,29
 50 667 50 667 50 675 c 0,30,31
 50 684 50 684 56 689.5 c 128,-1,32
 62 695 62 695 70 695 c 2,33,-1
 416 695 l 2,34,35
 429 695 429 695 433 686.5 c 128,-1,36
 437 678 437 678 437 674 c 256,37,38
 437 670 437 670 435.5 666.5 c 128,-1,39
 434 663 434 663 430 659 c 2,40,-1
 219 427 l 1,41,-1
 199 433 l 2,42,43
 199 436 199 436 215.5 439 c 128,-1,44
 232 442 232 442 242 442 c 0,45,46
 295 442 295 442 345.5 418 c 128,-1,47
 396 394 396 394 428.5 345 c 128,-1,48
 461 296 461 296 461 221 c 0,49,50
 461 152 461 152 428 100 c 128,-1,51
 395 48 395 48 340.5 19 c 128,-1,52
 286 -10 286 -10 222 -10 c 0,53,54
 179 -10 179 -10 138 5.5 c 128,-1,55
 97 21 97 21 66 54 c 0,56,57
 63 57 63 57 61.5 60.5 c 128,-1,58
 60 64 60 64 60 68 c 0,59,60
 60 76 60 76 66 83 c 128,-1,61
 72 90 72 90 81 90 c 0,0,1
EndSplineSet
Substitution2: "'frac' Diagonal Fractions in Latin lookup 28 subtable" three.numr
Substitution2: "'dnom' Denominators in Latin lookup 26 subtable" three.dnom
Substitution2: "'numr' Numerators in Latin lookup 25 subtable" three.numr
Substitution2: "'sups' Superscript in Latin lookup 24 subtable" uni00B3
Substitution2: "'sinf' Scientific Inferiors in Latin lookup 23 subtable" uni2083
Substitution2: "'subs' Subscript in Latin lookup 22 subtable" uni2083
AlternateSubs2: "'aalt' Access All Alternates in Latin lookup 1 subtable" three.dnom uni2083 three.numr uni00B3
EndChar

StartChar: four
Encoding: 52 52 537
Width: 506
Flags: W
LayerCount: 2
Fore
SplineSet
360 0 m 0,0,1
 351 0 351 0 345.5 6 c 128,-1,2
 340 12 340 12 340 20 c 2,3,-1
 340 645 l 1,4,-1
 351 637 l 1,5,-1
 65 252 l 1,6,-1
 62 263 l 1,7,-1
 456 263 l 2,8,9
 464 263 464 263 470 257.5 c 128,-1,10
 476 252 476 252 476 244 c 256,11,12
 476 236 476 236 470 230.5 c 128,-1,13
 464 225 464 225 456 225 c 2,14,-1
 35 225 l 2,15,16
 26 225 26 225 20.5 232 c 128,-1,17
 15 239 15 239 15 246 c 0,18,19
 15 254 15 254 20 259 c 2,20,-1
 343 692 l 2,21,22
 348 698 348 698 353.5 699 c 128,-1,23
 359 700 359 700 360 700 c 0,24,25
 369 700 369 700 374.5 694 c 128,-1,26
 380 688 380 688 380 680 c 2,27,-1
 380 20 l 2,28,29
 380 12 380 12 374 6 c 128,-1,30
 368 0 368 0 360 0 c 0,0,1
EndSplineSet
Substitution2: "'frac' Diagonal Fractions in Latin lookup 28 subtable" four.numr
Substitution2: "'dnom' Denominators in Latin lookup 26 subtable" four.dnom
Substitution2: "'numr' Numerators in Latin lookup 25 subtable" four.numr
Substitution2: "'sups' Superscript in Latin lookup 24 subtable" uni2074
Substitution2: "'sinf' Scientific Inferiors in Latin lookup 23 subtable" uni2084
Substitution2: "'subs' Subscript in Latin lookup 22 subtable" uni2084
AlternateSubs2: "'aalt' Access All Alternates in Latin lookup 1 subtable" four.dnom uni2084 four.numr uni2074
EndChar

StartChar: five
Encoding: 53 53 538
Width: 535
Flags: W
LayerCount: 2
Fore
SplineSet
232 1 m 0,0,1
 189 1 189 1 148 15 c 128,-1,2
 107 29 107 29 73 57 c 0,3,4
 69 60 69 60 67 64 c 128,-1,5
 65 68 65 68 65 72 c 0,6,7
 65 79 65 79 71 87 c 128,-1,8
 77 95 77 95 85 95 c 256,9,10
 93 95 93 95 99 89 c 0,11,12
 128 65 128 65 162.5 53 c 128,-1,13
 197 41 197 41 232 41 c 0,14,15
 295 41 295 41 342 65.5 c 128,-1,16
 389 90 389 90 414.5 135 c 128,-1,17
 440 180 440 180 440 239 c 0,18,19
 440 294 440 294 416.5 335.5 c 128,-1,20
 393 377 393 377 348.5 400.5 c 128,-1,21
 304 424 304 424 242 424 c 0,22,23
 204 424 204 424 172 412.5 c 128,-1,24
 140 401 140 401 118 389.5 c 128,-1,25
 96 378 96 378 85 378 c 0,26,27
 80 378 80 378 75.5 381 c 128,-1,28
 71 384 71 384 69 389.5 c 128,-1,29
 67 395 67 395 68 402 c 2,30,-1
 115 677 l 2,31,32
 116 682 116 682 121.5 688 c 128,-1,33
 127 694 127 694 137 694 c 2,34,-1
 442 694 l 2,35,36
 450 694 450 694 456 688 c 128,-1,37
 462 682 462 682 462 673 c 256,38,39
 462 664 462 664 456 658 c 128,-1,40
 450 652 450 652 442 652 c 2,41,-1
 145 652 l 1,42,-1
 154 661 l 1,43,-1
 108 412 l 1,44,-1
 88 417 l 1,45,46
 104 427 104 427 129.5 437.5 c 128,-1,47
 155 448 155 448 187.5 455.5 c 128,-1,48
 220 463 220 463 257 463 c 0,49,50
 321 463 321 463 371 435 c 128,-1,51
 421 407 421 407 450.5 357.5 c 128,-1,52
 480 308 480 308 480 242 c 0,53,54
 480 170 480 170 449.5 116 c 128,-1,55
 419 62 419 62 363.5 31.5 c 128,-1,56
 308 1 308 1 232 1 c 0,0,1
EndSplineSet
Substitution2: "'frac' Diagonal Fractions in Latin lookup 28 subtable" five.numr
Substitution2: "'dnom' Denominators in Latin lookup 26 subtable" five.dnom
Substitution2: "'numr' Numerators in Latin lookup 25 subtable" five.numr
Substitution2: "'sups' Superscript in Latin lookup 24 subtable" uni2075
Substitution2: "'sinf' Scientific Inferiors in Latin lookup 23 subtable" uni2085
Substitution2: "'subs' Subscript in Latin lookup 22 subtable" uni2085
AlternateSubs2: "'aalt' Access All Alternates in Latin lookup 1 subtable" five.dnom uni2085 five.numr uni2075
EndChar

StartChar: six
Encoding: 54 54 539
Width: 533
Flags: W
LayerCount: 2
Fore
SplineSet
288 -10 m 0,0,1
 228 -10 228 -10 184.5 10.5 c 128,-1,2
 141 31 141 31 113.5 65.5 c 128,-1,3
 86 100 86 100 73 143.5 c 128,-1,4
 60 187 60 187 60 232 c 0,5,6
 60 285 60 285 74 343 c 128,-1,7
 88 401 88 401 114.5 459 c 128,-1,8
 141 517 141 517 178.5 568.5 c 128,-1,9
 216 620 216 620 263.5 661 c 128,-1,10
 311 702 311 702 366 725 c 0,11,12
 372 727 372 727 375 727 c 0,13,14
 384 727 384 727 390.5 721.5 c 128,-1,15
 397 716 397 716 397 704 c 0,16,17
 397 698 397 698 393.5 693.5 c 128,-1,18
 390 689 390 689 383 686 c 0,19,20
 338 666 338 666 294.5 628.5 c 128,-1,21
 251 591 251 591 214 542.5 c 128,-1,22
 177 494 177 494 151 440 c 128,-1,23
 125 386 125 386 115 332 c 1,24,-1
 95 314 l 1,25,26
 114 352 114 352 145.5 380 c 128,-1,27
 177 408 177 408 216.5 423.5 c 128,-1,28
 256 439 256 439 299 439 c 0,29,30
 347 439 347 439 384.5 419.5 c 128,-1,31
 422 400 422 400 448.5 367.5 c 128,-1,32
 475 335 475 335 489 294.5 c 128,-1,33
 503 254 503 254 503 211 c 0,34,35
 503 154 503 154 475.5 103.5 c 128,-1,36
 448 53 448 53 399.5 21.5 c 128,-1,37
 351 -10 351 -10 288 -10 c 0,0,1
286 30 m 0,38,39
 337 30 337 30 376.5 53 c 128,-1,40
 416 76 416 76 438.5 116.5 c 128,-1,41
 461 157 461 157 461 211 c 0,42,43
 461 259 461 259 442.5 301.5 c 128,-1,44
 424 344 424 344 386.5 371 c 128,-1,45
 349 398 349 398 292 398 c 0,46,47
 231 398 231 398 188.5 371.5 c 128,-1,48
 146 345 146 345 123.5 301.5 c 128,-1,49
 101 258 101 258 101 207 c 0,50,51
 101 162 101 162 122.5 121.5 c 128,-1,52
 144 81 144 81 185.5 55.5 c 128,-1,53
 227 30 227 30 286 30 c 0,38,39
EndSplineSet
Substitution2: "'frac' Diagonal Fractions in Latin lookup 28 subtable" six.numr
Substitution2: "'dnom' Denominators in Latin lookup 26 subtable" six.dnom
Substitution2: "'numr' Numerators in Latin lookup 25 subtable" six.numr
Substitution2: "'sups' Superscript in Latin lookup 24 subtable" uni2076
Substitution2: "'sinf' Scientific Inferiors in Latin lookup 23 subtable" uni2086
Substitution2: "'subs' Subscript in Latin lookup 22 subtable" uni2086
AlternateSubs2: "'aalt' Access All Alternates in Latin lookup 1 subtable" six.dnom uni2086 six.numr uni2076
EndChar

StartChar: seven
Encoding: 55 55 540
Width: 501
Flags: W
LayerCount: 2
Fore
SplineSet
170 -2 m 256,0,1
 163 -2 163 -2 156 3 c 128,-1,2
 149 8 149 8 149 16 c 0,3,4
 149 20 149 20 151 26 c 2,5,-1
 423 664 l 1,6,-1
 435 655 l 1,7,-1
 80 655 l 2,8,9
 72 655 72 655 66 660.5 c 128,-1,10
 60 666 60 666 60 675 c 256,11,12
 60 684 60 684 66 689.5 c 128,-1,13
 72 695 72 695 80 695 c 2,14,-1
 454 695 l 2,15,16
 465 695 465 695 468 690 c 128,-1,17
 471 685 471 685 471 677 c 0,18,19
 471 671 471 671 469 667 c 2,20,-1
 190 11 l 2,21,22
 188 5 188 5 182.5 1.5 c 128,-1,23
 177 -2 177 -2 170 -2 c 256,0,1
EndSplineSet
Substitution2: "'frac' Diagonal Fractions in Latin lookup 28 subtable" seven.numr
Substitution2: "'dnom' Denominators in Latin lookup 26 subtable" seven.dnom
Substitution2: "'numr' Numerators in Latin lookup 25 subtable" seven.numr
Substitution2: "'sups' Superscript in Latin lookup 24 subtable" uni2077
Substitution2: "'sinf' Scientific Inferiors in Latin lookup 23 subtable" uni2087
Substitution2: "'subs' Subscript in Latin lookup 22 subtable" uni2087
AlternateSubs2: "'aalt' Access All Alternates in Latin lookup 1 subtable" seven.dnom uni2087 seven.numr uni2077
EndChar

StartChar: eight
Encoding: 56 56 541
Width: 537
Flags: W
LayerCount: 2
Fore
SplineSet
356 351 m 1,0,-1
 353 355 l 1,1,2
 386 343 386 343 414 318 c 128,-1,3
 442 293 442 293 459.5 258 c 128,-1,4
 477 223 477 223 477 179 c 0,5,6
 477 127 477 127 449.5 84 c 128,-1,7
 422 41 422 41 374.5 15.5 c 128,-1,8
 327 -10 327 -10 268 -10 c 256,9,10
 209 -10 209 -10 162 15.5 c 128,-1,11
 115 41 115 41 87.5 84 c 128,-1,12
 60 127 60 127 60 179 c 0,13,14
 60 223 60 223 77 257.5 c 128,-1,15
 94 292 94 292 122 316.5 c 128,-1,16
 150 341 150 341 182 354 c 1,17,-1
 180 350 l 1,18,19
 153 363 153 363 129.5 387 c 128,-1,20
 106 411 106 411 91 443.5 c 128,-1,21
 76 476 76 476 76 514 c 0,22,23
 76 567 76 567 101.5 609 c 128,-1,24
 127 651 127 651 171 675.5 c 128,-1,25
 215 700 215 700 268 700 c 256,26,27
 321 700 321 700 364.5 675.5 c 128,-1,28
 408 651 408 651 433.5 609 c 128,-1,29
 459 567 459 567 459 514 c 0,30,31
 459 476 459 476 444.5 444 c 128,-1,32
 430 412 430 412 406.5 388 c 128,-1,33
 383 364 383 364 356 351 c 1,0,-1
118 514 m 0,34,35
 118 470 118 470 139 437 c 128,-1,36
 160 404 160 404 194.5 385.5 c 128,-1,37
 229 367 229 367 268 367 c 256,38,39
 307 367 307 367 341 385.5 c 128,-1,40
 375 404 375 404 396 437 c 128,-1,41
 417 470 417 470 417 514 c 0,42,43
 417 579 417 579 375.5 619.5 c 128,-1,44
 334 660 334 660 268 660 c 0,45,46
 201 660 201 660 159.5 619.5 c 128,-1,47
 118 579 118 579 118 514 c 0,34,35
268 30 m 256,48,49
 343 30 343 30 389 72 c 128,-1,50
 435 114 435 114 435 179 c 0,51,52
 435 223 435 223 412 257.5 c 128,-1,53
 389 292 389 292 351 311.5 c 128,-1,54
 313 331 313 331 268 331 c 0,55,56
 224 331 224 331 186 311.5 c 128,-1,57
 148 292 148 292 125 257.5 c 128,-1,58
 102 223 102 223 102 179 c 0,59,60
 102 114 102 114 147.5 72 c 128,-1,61
 193 30 193 30 268 30 c 256,48,49
EndSplineSet
Substitution2: "'frac' Diagonal Fractions in Latin lookup 28 subtable" eight.numr
Substitution2: "'dnom' Denominators in Latin lookup 26 subtable" eight.dnom
Substitution2: "'numr' Numerators in Latin lookup 25 subtable" eight.numr
Substitution2: "'sups' Superscript in Latin lookup 24 subtable" uni2078
Substitution2: "'sinf' Scientific Inferiors in Latin lookup 23 subtable" uni2088
Substitution2: "'subs' Subscript in Latin lookup 22 subtable" uni2088
AlternateSubs2: "'aalt' Access All Alternates in Latin lookup 1 subtable" eight.dnom uni2088 eight.numr uni2078
EndChar

StartChar: nine
Encoding: 57 57 542
Width: 555
Flags: W
LayerCount: 2
Fore
SplineSet
275 710 m 0,0,1
 335 710 335 710 378.5 689.5 c 128,-1,2
 422 669 422 669 449.5 634.5 c 128,-1,3
 477 600 477 600 490 556.5 c 128,-1,4
 503 513 503 513 503 468 c 0,5,6
 503 415 503 415 489 358.5 c 128,-1,7
 475 302 475 302 448.5 246.5 c 128,-1,8
 422 191 422 191 384.5 141.5 c 128,-1,9
 347 92 347 92 299.5 52.5 c 128,-1,10
 252 13 252 13 197 -10 c 0,11,12
 191 -12 191 -12 188 -12 c 0,13,14
 179 -12 179 -12 172.5 -4.5 c 128,-1,15
 166 3 166 3 166 11 c 0,16,17
 166 17 166 17 169.5 21.5 c 128,-1,18
 173 26 173 26 180 29 c 0,19,20
 241 56 241 56 297 108.5 c 128,-1,21
 353 161 353 161 394 229 c 128,-1,22
 435 297 435 297 448 368 c 1,23,-1
 468 386 l 1,24,25
 449 348 449 348 417.5 320.5 c 128,-1,26
 386 293 386 293 347 278 c 128,-1,27
 308 263 308 263 264 263 c 0,28,29
 201 263 201 263 155 296 c 128,-1,30
 109 329 109 329 84.5 380.5 c 128,-1,31
 60 432 60 432 60 489 c 0,32,33
 60 547 60 547 87.5 597 c 128,-1,34
 115 647 115 647 163.5 678.5 c 128,-1,35
 212 710 212 710 275 710 c 0,0,1
277 670 m 0,36,37
 226 670 226 670 186.5 647.5 c 128,-1,38
 147 625 147 625 124.5 584 c 128,-1,39
 102 543 102 543 102 489 c 0,40,41
 102 442 102 442 120.5 399.5 c 128,-1,42
 139 357 139 357 177 330.5 c 128,-1,43
 215 304 215 304 271 304 c 0,44,45
 332 304 332 304 374.5 330 c 128,-1,46
 417 356 417 356 439.5 399 c 128,-1,47
 462 442 462 442 462 493 c 0,48,49
 462 539 462 539 440.5 579 c 128,-1,50
 419 619 419 619 378 644.5 c 128,-1,51
 337 670 337 670 277 670 c 0,36,37
EndSplineSet
Substitution2: "'frac' Diagonal Fractions in Latin lookup 28 subtable" nine.numr
Substitution2: "'dnom' Denominators in Latin lookup 26 subtable" nine.dnom
Substitution2: "'numr' Numerators in Latin lookup 25 subtable" nine.numr
Substitution2: "'sups' Superscript in Latin lookup 24 subtable" uni2079
Substitution2: "'sinf' Scientific Inferiors in Latin lookup 23 subtable" uni2089
Substitution2: "'subs' Subscript in Latin lookup 22 subtable" uni2089
AlternateSubs2: "'aalt' Access All Alternates in Latin lookup 1 subtable" nine.dnom uni2089 nine.numr uni2079
EndChar

StartChar: zero.dnom
Encoding: 65579 -1 544
Width: 308
Flags: W
LayerCount: 2
Fore
SplineSet
154 -10 m 256,0,1
 112 -10 112 -10 84.5 11.5 c 128,-1,2
 57 33 57 33 43.5 69.5 c 128,-1,3
 30 106 30 106 30 150 c 0,4,5
 30 195 30 195 43.5 231 c 128,-1,6
 57 267 57 267 84.5 288.5 c 128,-1,7
 112 310 112 310 154 310 c 256,8,9
 196 310 196 310 223.5 288.5 c 128,-1,10
 251 267 251 267 264.5 231 c 128,-1,11
 278 195 278 195 278 150 c 0,12,13
 278 106 278 106 264.5 69.5 c 128,-1,14
 251 33 251 33 223.5 11.5 c 128,-1,15
 196 -10 196 -10 154 -10 c 256,0,1
154 26 m 256,16,17
 196 26 196 26 218 60.5 c 128,-1,18
 240 95 240 95 240 150 c 0,19,20
 240 203 240 203 218 238.5 c 128,-1,21
 196 274 196 274 154 274 c 256,22,23
 112 274 112 274 90 238.5 c 128,-1,24
 68 203 68 203 68 150 c 0,25,26
 68 95 68 95 90 60.5 c 128,-1,27
 112 26 112 26 154 26 c 256,16,17
EndSplineSet
EndChar

StartChar: one.dnom
Encoding: 65580 -1 545
Width: 189
Flags: W
LayerCount: 2
Fore
SplineSet
120 -6 m 0,0,1
 111 -6 111 -6 106 0 c 128,-1,2
 101 6 101 6 101 14 c 2,3,-1
 100 249 l 1,4,-1
 106 247 l 1,5,-1
 55 216 l 2,6,7
 52 215 52 215 49 213.5 c 128,-1,8
 46 212 46 212 43 212 c 0,9,10
 36 212 36 212 31 217.5 c 128,-1,11
 26 223 26 223 26 230 c 0,12,13
 26 240 26 240 36 247 c 2,14,-1
 106 290 l 2,15,16
 113 295 113 295 123 293 c 0,17,18
 130 292 130 292 134 286.5 c 128,-1,19
 138 281 138 281 138 273 c 2,20,-1
 139 14 l 2,21,22
 139 6 139 6 133.5 0 c 128,-1,23
 128 -6 128 -6 120 -6 c 0,0,1
EndSplineSet
EndChar

StartChar: two.dnom
Encoding: 65581 -1 546
Width: 301
Flags: W
LayerCount: 2
Fore
SplineSet
70 0 m 2,0,1
 61 0 61 0 55.5 4.5 c 128,-1,2
 50 9 50 9 50 20 c 0,3,4
 50 24 50 24 52.5 28.5 c 128,-1,5
 55 33 55 33 60 39 c 2,6,-1
 144 134 l 2,7,8
 163 160 163 160 184 183.5 c 128,-1,9
 205 207 205 207 205 233 c 0,10,11
 205 249 205 249 192 261.5 c 128,-1,12
 179 274 179 274 152 274 c 0,13,14
 132 274 132 274 114 262 c 128,-1,15
 96 250 96 250 89 227 c 0,16,17
 88 221 88 221 83 216 c 128,-1,18
 78 211 78 211 70 211 c 0,19,20
 63 211 63 211 57.5 215 c 128,-1,21
 52 219 52 219 52 225 c 0,22,23
 52 236 52 236 62.5 256.5 c 128,-1,24
 73 277 73 277 96 293.5 c 128,-1,25
 119 310 119 310 158 310 c 0,26,27
 187 310 187 310 206.5 299 c 128,-1,28
 226 288 226 288 235.5 271 c 128,-1,29
 245 254 245 254 245 235 c 0,30,31
 245 206 245 206 232.5 185 c 128,-1,32
 220 164 220 164 203.5 146.5 c 128,-1,33
 187 129 187 129 173 110 c 2,34,-1
 104 28 l 1,35,-1
 99 36 l 1,36,-1
 231 36 l 2,37,38
 239 36 239 36 245 31 c 128,-1,39
 251 26 251 26 251 18 c 0,40,41
 251 11 251 11 245 5.5 c 128,-1,42
 239 0 239 0 231 0 c 2,43,-1
 70 0 l 2,0,1
EndSplineSet
EndChar

StartChar: three.dnom
Encoding: 65582 -1 547
Width: 299
Flags: W
LayerCount: 2
Fore
SplineSet
140 -10 m 0,0,1
 118 -10 118 -10 94.5 -2 c 128,-1,2
 71 6 71 6 54 19 c 0,3,4
 45 26 45 26 45 37 c 0,5,6
 45 45 45 45 50 51 c 128,-1,7
 55 57 55 57 63 57 c 0,8,9
 69 57 69 57 73 53.5 c 128,-1,10
 77 50 77 50 85 45 c 0,11,12
 91 41 91 41 107 35.5 c 128,-1,13
 123 30 123 30 140 30 c 0,14,15
 170 30 170 30 192 48 c 128,-1,16
 214 66 214 66 214 92 c 256,17,18
 214 118 214 118 196.5 131 c 128,-1,19
 179 144 179 144 153 144 c 0,20,21
 144 144 144 144 131 142 c 128,-1,22
 118 140 118 140 107 136 c 0,23,24
 97 134 97 134 90.5 140.5 c 128,-1,25
 84 147 84 147 84 154 c 0,26,27
 84 158 84 158 85 161 c 128,-1,28
 86 164 86 164 89 167 c 2,29,-1
 197 274 l 1,30,-1
 200 262 l 1,31,-1
 78 262 l 2,32,33
 70 262 70 262 64 268 c 128,-1,34
 58 274 58 274 58 281 c 0,35,36
 58 289 58 289 64 294.5 c 128,-1,37
 70 300 70 300 78 300 c 2,38,-1
 222 300 l 2,39,40
 230 300 230 300 235.5 295.5 c 128,-1,41
 241 291 241 291 242 284 c 0,42,43
 245 275 245 275 237 265 c 2,44,-1
 141 171 l 1,45,-1
 117 166 l 2,46,47
 117 169 117 169 133.5 174 c 128,-1,48
 150 179 150 179 160 179 c 0,49,50
 183 179 183 179 204.5 171.5 c 128,-1,51
 226 164 226 164 240 145 c 128,-1,52
 254 126 254 126 254 92 c 0,53,54
 254 62 254 62 238 39 c 128,-1,55
 222 16 222 16 196.5 3 c 128,-1,56
 171 -10 171 -10 140 -10 c 0,0,1
EndSplineSet
EndChar

StartChar: four.dnom
Encoding: 65583 -1 548
Width: 272
Flags: W
LayerCount: 2
Fore
SplineSet
182 -7 m 0,0,1
 175 -7 175 -7 169 -1.5 c 128,-1,2
 163 4 163 4 163 12 c 2,3,-1
 163 242 l 1,4,-1
 168 234 l 1,5,-1
 66 99 l 1,6,-1
 67 108 l 1,7,-1
 238 108 l 2,8,9
 257 106 257 106 257 90 c 0,10,11
 257 72 257 72 238 72 c 2,12,-1
 44 72 l 2,13,14
 37 72 37 72 30.5 78 c 128,-1,15
 24 84 24 84 24 92 c 0,16,17
 24 96 24 96 25 99 c 128,-1,18
 26 102 26 102 29 106 c 2,19,-1
 164 285 l 2,20,21
 166 288 166 288 171 290.5 c 128,-1,22
 176 293 176 293 181 293 c 0,23,24
 190 293 190 293 195.5 287 c 128,-1,25
 201 281 201 281 201 273 c 2,26,-1
 201 12 l 2,27,28
 201 4 201 4 195.5 -1.5 c 128,-1,29
 190 -7 190 -7 182 -7 c 0,0,1
EndSplineSet
EndChar

StartChar: five.dnom
Encoding: 65584 -1 549
Width: 305
Flags: W
LayerCount: 2
Fore
SplineSet
147 -10 m 0,0,1
 124 -10 124 -10 100 1.5 c 128,-1,2
 76 13 76 13 58 31 c 0,3,4
 50 39 50 39 50 47 c 0,5,6
 50 54 50 54 54.5 61 c 128,-1,7
 59 68 59 68 69 68 c 0,8,9
 73 68 73 68 76.5 66.5 c 128,-1,10
 80 65 80 65 83 62 c 0,11,12
 98 46 98 46 114.5 37 c 128,-1,13
 131 28 131 28 147 28 c 0,14,15
 179 28 179 28 198 46.5 c 128,-1,16
 217 65 217 65 217 93 c 0,17,18
 217 120 217 120 200.5 138 c 128,-1,19
 184 156 184 156 155 156 c 0,20,21
 136 156 136 156 123.5 147.5 c 128,-1,22
 111 139 111 139 102.5 130 c 128,-1,23
 94 121 94 121 85 121 c 0,24,25
 75 121 75 121 68.5 128 c 128,-1,26
 62 135 62 135 64 145 c 2,27,-1
 90 272 l 2,28,29
 92 278 92 278 96.5 283.5 c 128,-1,30
 101 289 101 289 112 289 c 2,31,-1
 229 289 l 2,32,33
 237 289 237 289 243 283 c 128,-1,34
 249 277 249 277 249 269 c 0,35,36
 249 260 249 260 243 254.5 c 128,-1,37
 237 249 237 249 229 249 c 2,38,-1
 114 249 l 1,39,-1
 121 256 l 1,40,-1
 102 155 l 1,41,-1
 84 160 l 1,42,43
 97 175 97 175 113.5 183.5 c 128,-1,44
 130 192 130 192 162 192 c 0,45,46
 191 192 191 192 212 179.5 c 128,-1,47
 233 167 233 167 244 145.5 c 128,-1,48
 255 124 255 124 255 96 c 0,49,50
 255 65 255 65 242 41 c 128,-1,51
 229 17 229 17 205 3.5 c 128,-1,52
 181 -10 181 -10 147 -10 c 0,0,1
EndSplineSet
EndChar

StartChar: six.dnom
Encoding: 65585 -1 550
Width: 253
Flags: W
LayerCount: 2
Fore
SplineSet
128 -10 m 0,0,1
 93 -10 93 -10 71.5 5 c 128,-1,2
 50 20 50 20 40 43.5 c 128,-1,3
 30 67 30 67 30 92 c 0,4,5
 30 126 30 126 47.5 163.5 c 128,-1,6
 65 201 65 201 91.5 233.5 c 128,-1,7
 118 266 118 266 145.5 286 c 128,-1,8
 173 306 173 306 193 306 c 0,9,10
 202 306 202 306 209.5 301.5 c 128,-1,11
 217 297 217 297 217 286 c 0,12,13
 217 279 217 279 213.5 274 c 128,-1,14
 210 269 210 269 203 266 c 0,15,16
 163 252 163 252 130 216.5 c 128,-1,17
 97 181 97 181 85 141 c 1,18,-1
 45 104 l 1,19,20
 57 139 57 139 81.5 159 c 128,-1,21
 106 179 106 179 133 179 c 0,22,23
 180 179 180 179 201.5 148.5 c 128,-1,24
 223 118 223 118 223 81 c 0,25,26
 223 56 223 56 210.5 35.5 c 128,-1,27
 198 15 198 15 176.5 2.5 c 128,-1,28
 155 -10 155 -10 128 -10 c 0,0,1
126 28 m 0,29,30
 149 28 149 28 166 43 c 128,-1,31
 183 58 183 58 183 81 c 256,32,33
 183 104 183 104 170.5 122 c 128,-1,34
 158 140 158 140 132 140 c 0,35,36
 101 140 101 140 85 122.5 c 128,-1,37
 69 105 69 105 69 83 c 256,38,39
 69 61 69 61 83.5 44.5 c 128,-1,40
 98 28 98 28 126 28 c 0,29,30
EndSplineSet
EndChar

StartChar: seven.dnom
Encoding: 65586 -1 551
Width: 272
Flags: W
LayerCount: 2
Fore
SplineSet
101 -10 m 256,0,1
 94 -10 94 -10 87.5 -5 c 128,-1,2
 81 0 81 0 81 8 c 0,3,4
 81 10 81 10 82 13 c 128,-1,5
 83 16 83 16 84 18 c 2,6,-1
 196 261 l 1,7,-1
 206 254 l 1,8,-1
 60 254 l 2,9,10
 52 254 52 254 46 259 c 128,-1,11
 40 264 40 264 40 273 c 0,12,13
 40 281 40 281 46 286.5 c 128,-1,14
 52 292 52 292 60 292 c 2,15,-1
 225 292 l 2,16,17
 235 292 235 292 238.5 285 c 128,-1,18
 242 278 242 278 242 273 c 0,19,20
 242 270 242 270 241.5 268 c 128,-1,21
 241 266 241 266 240 264 c 2,22,-1
 121 3 l 2,23,24
 119 -3 119 -3 113.5 -6.5 c 128,-1,25
 108 -10 108 -10 101 -10 c 256,0,1
EndSplineSet
EndChar

StartChar: eight.dnom
Encoding: 65587 -1 552
Width: 273
Flags: W
LayerCount: 2
Fore
SplineSet
136 -10 m 0,0,1
 106 -10 106 -10 82 2 c 128,-1,2
 58 14 58 14 44 33.5 c 128,-1,3
 30 53 30 53 30 77 c 0,4,5
 30 97 30 97 39 112.5 c 128,-1,6
 48 128 48 128 62 139 c 128,-1,7
 76 150 76 150 91 156 c 1,8,-1
 91 154 l 1,9,10
 71 162 71 162 54.5 182 c 128,-1,11
 38 202 38 202 38 227 c 0,12,13
 38 250 38 250 51 268 c 128,-1,14
 64 286 64 286 86.5 296.5 c 128,-1,15
 109 307 109 307 136 307 c 0,16,17
 164 307 164 307 186 296.5 c 128,-1,18
 208 286 208 286 221 268 c 128,-1,19
 234 250 234 250 234 227 c 0,20,21
 234 202 234 202 217.5 183 c 128,-1,22
 201 164 201 164 181 155 c 1,23,-1
 180 157 l 1,24,25
 204 148 204 148 223.5 127 c 128,-1,26
 243 106 243 106 243 77 c 0,27,28
 243 53 243 53 229 33.5 c 128,-1,29
 215 14 215 14 191 2 c 128,-1,30
 167 -10 167 -10 136 -10 c 0,0,1
136 170 m 256,31,32
 158 170 158 170 176 183 c 128,-1,33
 194 196 194 196 194 220 c 0,34,35
 194 243 194 243 177.5 257 c 128,-1,36
 161 271 161 271 136 271 c 256,37,38
 111 271 111 271 94.5 257 c 128,-1,39
 78 243 78 243 78 220 c 0,40,41
 78 196 78 196 96 183 c 128,-1,42
 114 170 114 170 136 170 c 256,31,32
136 26 m 256,43,44
 164 26 164 26 182 42 c 128,-1,45
 200 58 200 58 200 83 c 0,46,47
 200 107 200 107 180 120.5 c 128,-1,48
 160 134 160 134 136 134 c 256,49,50
 112 134 112 134 92.5 120.5 c 128,-1,51
 73 107 73 107 73 83 c 0,52,53
 73 58 73 58 90.5 42 c 128,-1,54
 108 26 108 26 136 26 c 256,43,44
EndSplineSet
EndChar

StartChar: nine.dnom
Encoding: 65588 -1 553
Width: 283
Flags: W
LayerCount: 2
Fore
SplineSet
80 -11 m 0,0,1
 71 -11 71 -11 63.5 -6.5 c 128,-1,2
 56 -2 56 -2 56 9 c 0,3,4
 56 17 56 17 59.5 21.5 c 128,-1,5
 63 26 63 26 70 29 c 0,6,7
 110 43 110 43 143 78.5 c 128,-1,8
 176 114 176 114 188 154 c 1,9,-1
 228 191 l 1,10,11
 216 157 216 157 191.5 136.5 c 128,-1,12
 167 116 167 116 140 116 c 0,13,14
 94 116 94 116 72 146.5 c 128,-1,15
 50 177 50 177 50 214 c 0,16,17
 50 239 50 239 62.5 259.5 c 128,-1,18
 75 280 75 280 96.5 292.5 c 128,-1,19
 118 305 118 305 145 305 c 0,20,21
 180 305 180 305 201.5 290 c 128,-1,22
 223 275 223 275 233 252 c 128,-1,23
 243 229 243 229 243 203 c 0,24,25
 243 169 243 169 225.5 131.5 c 128,-1,26
 208 94 208 94 181.5 61.5 c 128,-1,27
 155 29 155 29 127.5 9 c 128,-1,28
 100 -11 100 -11 80 -11 c 0,0,1
141 155 m 0,29,30
 172 155 172 155 188 172.5 c 128,-1,31
 204 190 204 190 204 212 c 0,32,33
 204 235 204 235 189.5 251 c 128,-1,34
 175 267 175 267 147 267 c 0,35,36
 125 267 125 267 107.5 252 c 128,-1,37
 90 237 90 237 90 214 c 0,38,39
 90 192 90 192 103 173.5 c 128,-1,40
 116 155 116 155 141 155 c 0,29,30
EndSplineSet
EndChar

StartChar: fraction
Encoding: 8260 8260 584
Width: 527
Flags: W
LayerCount: 2
Fore
SplineSet
45 -3 m 0,0,1
 36 -3 36 -3 30.5 2 c 128,-1,2
 25 7 25 7 25 16 c 0,3,4
 25 22 25 22 28 28 c 2,5,-1
 466 694 l 2,6,7
 472 703 472 703 482 703 c 0,8,9
 491 703 491 703 496.5 698 c 128,-1,10
 502 693 502 693 502 684 c 0,11,12
 502 678 502 678 499 672 c 2,13,-1
 61 6 l 2,14,15
 55 -3 55 -3 45 -3 c 0,0,1
EndSplineSet
EndChar

StartChar: period
Encoding: 46 46 600
Width: 158
Flags: W
LayerCount: 2
Fore
SplineSet
77 0 m 2,0,1
 64 0 64 0 57 9 c 128,-1,2
 50 18 50 18 50 31 c 2,3,-1
 50 54 l 2,4,5
 50 68 50 68 57 76.5 c 128,-1,6
 64 85 64 85 77 85 c 2,7,-1
 81 85 l 2,8,9
 95 85 95 85 101.5 76.5 c 128,-1,10
 108 68 108 68 108 54 c 2,11,-1
 108 31 l 2,12,13
 108 18 108 18 101.5 9 c 128,-1,14
 95 0 95 0 81 0 c 2,15,-1
 77 0 l 2,0,1
EndSplineSet
EndChar

StartChar: comma
Encoding: 44 44 601
Width: 167
Flags: W
LayerCount: 2
Fore
SplineSet
139 -13 m 0,0,1
 139 -38 139 -38 124 -61 c 128,-1,2
 109 -84 109 -84 88.5 -98.5 c 128,-1,3
 68 -113 68 -113 49 -113 c 0,4,5
 42 -113 42 -113 36.5 -109.5 c 128,-1,6
 31 -106 31 -106 31 -95 c 256,7,8
 31 -84 31 -84 38.5 -83 c 128,-1,9
 46 -82 46 -82 62 -74 c 0,10,11
 80 -65 80 -65 89.5 -52 c 128,-1,12
 99 -39 99 -39 99 -23 c 0,13,14
 99 -9 99 -9 92.5 -2.5 c 128,-1,15
 86 4 86 4 78 4 c 0,16,17
 71 4 71 4 64 1.5 c 128,-1,18
 57 -1 57 -1 52 -5 c 1,19,20
 48 0 48 0 45.5 6 c 128,-1,21
 43 12 43 12 44 18 c 0,22,23
 46 30 46 30 59 39 c 128,-1,24
 72 48 72 48 88 48 c 0,25,26
 110 48 110 48 124.5 28.5 c 128,-1,27
 139 9 139 9 139 -13 c 0,0,1
EndSplineSet
EndChar

StartChar: colon
Encoding: 58 58 602
Width: 158
Flags: W
LayerCount: 2
Fore
SplineSet
77 425 m 2,0,1
 64 425 64 425 57 434 c 128,-1,2
 50 443 50 443 50 456 c 2,3,-1
 50 479 l 2,4,5
 50 493 50 493 57 501.5 c 128,-1,6
 64 510 64 510 77 510 c 2,7,-1
 81 510 l 2,8,9
 95 510 95 510 101.5 501.5 c 128,-1,10
 108 493 108 493 108 479 c 2,11,-1
 108 456 l 2,12,13
 108 443 108 443 101.5 434 c 128,-1,14
 95 425 95 425 81 425 c 2,15,-1
 77 425 l 2,0,1
77 0 m 2,16,17
 64 0 64 0 57 9 c 128,-1,18
 50 18 50 18 50 31 c 2,19,-1
 50 54 l 2,20,21
 50 68 50 68 57 76.5 c 128,-1,22
 64 85 64 85 77 85 c 2,23,-1
 81 85 l 2,24,25
 95 85 95 85 101.5 76.5 c 128,-1,26
 108 68 108 68 108 54 c 2,27,-1
 108 31 l 2,28,29
 108 18 108 18 101.5 9 c 128,-1,30
 95 0 95 0 81 0 c 2,31,-1
 77 0 l 2,16,17
EndSplineSet
EndChar

StartChar: semicolon
Encoding: 59 59 603
Width: 167
Flags: W
LayerCount: 2
Fore
SplineSet
94 425 m 2,0,1
 81 425 81 425 72 434 c 128,-1,2
 63 443 63 443 63 456 c 2,3,-1
 63 479 l 2,4,5
 63 493 63 493 72 501.5 c 128,-1,6
 81 510 81 510 94 510 c 2,7,-1
 98 510 l 2,8,9
 112 510 112 510 120.5 501.5 c 128,-1,10
 129 493 129 493 129 479 c 2,11,-1
 129 456 l 2,12,13
 129 443 129 443 120.5 434 c 128,-1,14
 112 425 112 425 98 425 c 2,15,-1
 94 425 l 2,0,1
139 -13 m 0,16,17
 139 -38 139 -38 124 -61 c 128,-1,18
 109 -84 109 -84 88.5 -98.5 c 128,-1,19
 68 -113 68 -113 49 -113 c 0,20,21
 42 -113 42 -113 36.5 -109.5 c 128,-1,22
 31 -106 31 -106 31 -95 c 256,23,24
 31 -84 31 -84 38.5 -83 c 128,-1,25
 46 -82 46 -82 62 -74 c 0,26,27
 80 -65 80 -65 89.5 -52 c 128,-1,28
 99 -39 99 -39 99 -23 c 0,29,30
 99 -9 99 -9 92.5 -2.5 c 128,-1,31
 86 4 86 4 78 4 c 0,32,33
 71 4 71 4 64 1.5 c 128,-1,34
 57 -1 57 -1 52 -5 c 1,35,36
 48 0 48 0 45.5 6 c 128,-1,37
 43 12 43 12 44 18 c 0,38,39
 46 30 46 30 59 39 c 128,-1,40
 72 48 72 48 88 48 c 0,41,42
 110 48 110 48 124.5 28.5 c 128,-1,43
 139 9 139 9 139 -13 c 0,16,17
EndSplineSet
EndChar

StartChar: exclam
Encoding: 33 33 605
Width: 158
Flags: W
LayerCount: 2
Fore
SplineSet
79 187 m 256,0,1
 65 187 65 187 64 203 c 2,2,-1
 59 669 l 2,3,4
 59 683 59 683 62.5 691.5 c 128,-1,5
 66 700 66 700 79 700 c 256,6,7
 92 700 92 700 95.5 691.5 c 128,-1,8
 99 683 99 683 99 669 c 2,9,-1
 94 203 l 2,10,11
 93 187 93 187 79 187 c 256,0,1
77 0 m 2,12,13
 64 0 64 0 57 9 c 128,-1,14
 50 18 50 18 50 31 c 2,15,-1
 50 54 l 2,16,17
 50 68 50 68 57 76.5 c 128,-1,18
 64 85 64 85 77 85 c 2,19,-1
 81 85 l 2,20,21
 95 85 95 85 101.5 76.5 c 128,-1,22
 108 68 108 68 108 54 c 2,23,-1
 108 31 l 2,24,25
 108 18 108 18 101.5 9 c 128,-1,26
 95 0 95 0 81 0 c 2,27,-1
 77 0 l 2,12,13
EndSplineSet
EndChar

StartChar: exclamdown
Encoding: 161 161 606
Width: 158
Flags: W
LayerCount: 2
Fore
SplineSet
79 314 m 256,0,1
 93 314 93 314 94 298 c 2,2,-1
 99 -168 l 2,3,4
 99 -181 99 -181 95.5 -190 c 128,-1,5
 92 -199 92 -199 79 -199 c 256,6,7
 66 -199 66 -199 62.5 -190 c 128,-1,8
 59 -181 59 -181 59 -168 c 2,9,-1
 64 298 l 2,10,11
 65 314 65 314 79 314 c 256,0,1
81 501 m 2,12,13
 95 501 95 501 101.5 492.5 c 128,-1,14
 108 484 108 484 108 470 c 2,15,-1
 108 447 l 2,16,17
 108 434 108 434 101.5 425 c 128,-1,18
 95 416 95 416 81 416 c 2,19,-1
 77 416 l 2,20,21
 64 416 64 416 57 425 c 128,-1,22
 50 434 50 434 50 447 c 2,23,-1
 50 470 l 2,24,25
 50 484 50 484 57 492.5 c 128,-1,26
 64 501 64 501 77 501 c 2,27,-1
 81 501 l 2,12,13
EndSplineSet
EndChar

StartChar: question
Encoding: 63 63 607
Width: 471
Flags: W
LayerCount: 2
Fore
SplineSet
216 343 m 2,0,1
 216 351 216 351 222 357 c 128,-1,2
 228 363 228 363 236 363 c 0,3,4
 283 367 283 367 320 389.5 c 128,-1,5
 357 412 357 412 378.5 448.5 c 128,-1,6
 400 485 400 485 400 529 c 0,7,8
 400 580 400 580 379.5 617.5 c 128,-1,9
 359 655 359 655 324.5 676 c 128,-1,10
 290 697 290 697 247 697 c 0,11,12
 201 697 201 697 161.5 675 c 128,-1,13
 122 653 122 653 96 618 c 0,14,15
 91 611 91 611 84.5 609 c 128,-1,16
 78 607 78 607 70 611 c 0,17,18
 61 616 61 616 59.5 624.5 c 128,-1,19
 58 633 58 633 63 640 c 0,20,21
 93 682 93 682 142.5 708.5 c 128,-1,22
 192 735 192 735 247 735 c 0,23,24
 301 735 301 735 345.5 710.5 c 128,-1,25
 390 686 390 686 416.5 640 c 128,-1,26
 443 594 443 594 443 529 c 0,27,28
 443 492 443 492 427 456 c 128,-1,29
 411 420 411 420 382.5 390.5 c 128,-1,30
 354 361 354 361 317 343.5 c 128,-1,31
 280 326 280 326 237 326 c 0,32,33
 233 326 233 326 240.5 328 c 128,-1,34
 248 330 248 330 254 337 c 1,35,-1
 254 209 l 2,36,37
 254 201 254 201 248.5 195 c 128,-1,38
 243 189 243 189 235 189 c 0,39,40
 226 189 226 189 220.5 195 c 128,-1,41
 215 201 215 201 216 209 c 2,42,-1
 216 343 l 2,0,1
237 0 m 2,43,44
 224 0 224 0 217 9 c 128,-1,45
 210 18 210 18 210 31 c 2,46,-1
 210 54 l 2,47,48
 210 68 210 68 217 76.5 c 128,-1,49
 224 85 224 85 237 85 c 2,50,-1
 241 85 l 2,51,52
 255 85 255 85 261.5 76.5 c 128,-1,53
 268 68 268 68 268 54 c 2,54,-1
 268 31 l 2,55,56
 268 18 268 18 261.5 9 c 128,-1,57
 255 0 255 0 241 0 c 2,58,-1
 237 0 l 2,43,44
EndSplineSet
EndChar

StartChar: questiondown
Encoding: 191 191 608
Width: 459
Flags: W
LayerCount: 2
Fore
SplineSet
277 214 m 2,0,1
 277 206 277 206 271 200 c 128,-1,2
 265 194 265 194 257 194 c 0,3,4
 210 191 210 191 173 168 c 128,-1,5
 136 145 136 145 114.5 108.5 c 128,-1,6
 93 72 93 72 93 28 c 0,7,8
 93 -22 93 -22 113.5 -60 c 128,-1,9
 134 -98 134 -98 168.5 -119 c 128,-1,10
 203 -140 203 -140 246 -140 c 0,11,12
 293 -140 293 -140 332.5 -118 c 128,-1,13
 372 -96 372 -96 397 -61 c 0,14,15
 402 -54 402 -54 409 -52 c 128,-1,16
 416 -50 416 -50 423 -54 c 0,17,18
 432 -58 432 -58 433.5 -66.5 c 128,-1,19
 435 -75 435 -75 430 -83 c 0,20,21
 400 -125 400 -125 351 -151.5 c 128,-1,22
 302 -178 302 -178 246 -178 c 0,23,24
 193 -178 193 -178 148 -153.5 c 128,-1,25
 103 -129 103 -129 76.5 -83 c 128,-1,26
 50 -37 50 -37 50 28 c 0,27,28
 50 65 50 65 66 101 c 128,-1,29
 82 137 82 137 110.5 166.5 c 128,-1,30
 139 196 139 196 176 213.5 c 128,-1,31
 213 231 213 231 256 231 c 0,32,33
 260 231 260 231 252.5 229.5 c 128,-1,34
 245 228 245 228 239 220 c 1,35,-1
 239 348 l 2,36,37
 239 356 239 356 244.5 362 c 128,-1,38
 250 368 250 368 258 368 c 0,39,40
 267 368 267 368 272.5 362 c 128,-1,41
 278 356 278 356 277 348 c 2,42,-1
 277 214 l 2,0,1
256 557 m 2,43,44
 270 557 270 557 276.5 548.5 c 128,-1,45
 283 540 283 540 283 526 c 2,46,-1
 283 503 l 2,47,48
 283 490 283 490 276.5 481 c 128,-1,49
 270 472 270 472 256 472 c 2,50,-1
 252 472 l 2,51,52
 239 472 239 472 232 481 c 128,-1,53
 225 490 225 490 225 503 c 2,54,-1
 225 526 l 2,55,56
 225 540 225 540 232 548.5 c 128,-1,57
 239 557 239 557 252 557 c 2,58,-1
 256 557 l 2,43,44
EndSplineSet
EndChar

StartChar: periodcentered
Encoding: 183 183 609
Width: 186
Flags: W
LayerCount: 2
Fore
SplineSet
91 255 m 2,0,1
 78 255 78 255 69 264 c 128,-1,2
 60 273 60 273 60 286 c 2,3,-1
 60 309 l 2,4,5
 60 323 60 323 69 331.5 c 128,-1,6
 78 340 78 340 91 340 c 2,7,-1
 95 340 l 2,8,9
 109 340 109 340 117.5 331.5 c 128,-1,10
 126 323 126 323 126 309 c 2,11,-1
 126 286 l 2,12,13
 126 273 126 273 117.5 264 c 128,-1,14
 109 255 109 255 95 255 c 2,15,-1
 91 255 l 2,0,1
EndSplineSet
Substitution2: "'case' Case-Sensitive Forms in Latin lookup 35 subtable" periodcentered.case
Substitution2: "Single Substitution lookup 19 subtable" periodcentered.loclCAT.case
Substitution2: "Single Substitution lookup 18 subtable" periodcentered.loclCAT
AlternateSubs2: "'aalt' Access All Alternates in Latin lookup 1 subtable" periodcentered.case periodcentered.loclCAT periodcentered.loclCAT.case
EndChar

StartChar: bullet
Encoding: 8226 8226 610
Width: 340
Flags: W
LayerCount: 2
Fore
SplineSet
170 228 m 256,0,1
 136 228 136 228 108 245 c 128,-1,2
 80 262 80 262 63 290 c 128,-1,3
 46 318 46 318 46 352 c 256,4,5
 46 386 46 386 63 414 c 128,-1,6
 80 442 80 442 108 459 c 128,-1,7
 136 476 136 476 170 476 c 256,8,9
 204 476 204 476 232 459 c 128,-1,10
 260 442 260 442 277 414 c 128,-1,11
 294 386 294 386 294 352 c 256,12,13
 294 318 294 318 277 290 c 128,-1,14
 260 262 260 262 232 245 c 128,-1,15
 204 228 204 228 170 228 c 256,0,1
EndSplineSet
Substitution2: "'case' Case-Sensitive Forms in Latin lookup 35 subtable" bullet.case
Substitution2: "'aalt' Access All Alternates in Latin lookup 0 subtable" bullet.case
EndChar

StartChar: asterisk
Encoding: 42 42 611
Width: 291
Flags: W
LayerCount: 2
Fore
SplineSet
145 406 m 0,0,1
 137 406 137 406 131.5 412.5 c 128,-1,2
 126 419 126 419 127 428 c 2,3,-1
 133 525 l 2,4,5
 134 528 134 528 132 529.5 c 128,-1,6
 130 531 130 531 128 529 c 2,7,-1
 46 473 l 2,8,9
 39 468 39 468 30.5 470 c 128,-1,10
 22 472 22 472 17 480 c 0,11,12
 13 488 13 488 15.5 496 c 128,-1,13
 18 504 18 504 27 508 c 2,14,-1
 117 551 l 2,15,16
 120 552 120 552 120 554 c 128,-1,17
 120 556 120 556 117 557 c 2,18,-1
 27 600 l 2,19,20
 18 605 18 605 15.5 613.5 c 128,-1,21
 13 622 13 622 18 630 c 256,22,23
 23 638 23 638 31 639 c 128,-1,24
 39 640 39 640 46 635 c 2,25,-1
 128 579 l 2,26,27
 130 578 130 578 132 579 c 128,-1,28
 134 580 134 580 133 583 c 2,29,-1
 127 680 l 2,30,31
 126 689 126 689 132 695.5 c 128,-1,32
 138 702 138 702 147 702 c 0,33,34
 155 702 155 702 160.5 695.5 c 128,-1,35
 166 689 166 689 165 680 c 2,36,-1
 159 583 l 2,37,38
 158 580 158 580 160 579 c 128,-1,39
 162 578 162 578 164 579 c 2,40,-1
 246 635 l 2,41,42
 254 640 254 640 262.5 638 c 128,-1,43
 271 636 271 636 275 628 c 0,44,45
 280 621 280 621 277 613 c 128,-1,46
 274 605 274 605 265 600 c 2,47,-1
 175 557 l 2,48,49
 172 556 172 556 172 554 c 128,-1,50
 172 552 172 552 175 551 c 2,51,-1
 265 508 l 2,52,53
 274 504 274 504 277 496 c 128,-1,54
 280 488 280 488 275 480 c 0,55,56
 271 472 271 472 262.5 470 c 128,-1,57
 254 468 254 468 246 473 c 2,58,-1
 164 529 l 2,59,60
 162 531 162 531 160 529.5 c 128,-1,61
 158 528 158 528 159 525 c 2,62,-1
 165 428 l 2,63,64
 166 419 166 419 160 412.5 c 128,-1,65
 154 406 154 406 145 406 c 0,0,1
EndSplineSet
EndChar

StartChar: numbersign
Encoding: 35 35 612
Width: 641
Flags: W
LayerCount: 2
Fore
SplineSet
137 0 m 0,0,1
 125 0 125 0 118.5 9.5 c 128,-1,2
 112 19 112 19 114 32 c 2,3,-1
 226 680 l 2,4,5
 228 689 228 689 234 694.5 c 128,-1,6
 240 700 240 700 249 700 c 0,7,8
 261 700 261 700 267.5 691 c 128,-1,9
 274 682 274 682 272 669 c 2,10,-1
 160 20 l 2,11,12
 159 11 159 11 152.5 5.5 c 128,-1,13
 146 0 146 0 137 0 c 0,0,1
86 470 m 2,14,15
 75 470 75 470 67.5 477.5 c 128,-1,16
 60 485 60 485 60 495 c 256,17,18
 60 505 60 505 67.5 511 c 128,-1,19
 75 517 75 517 85 517 c 2,20,-1
 596 517 l 2,21,22
 607 517 607 517 614 510 c 128,-1,23
 621 503 621 503 621 492 c 0,24,25
 621 482 621 482 614 476 c 128,-1,26
 607 470 607 470 596 470 c 2,27,-1
 86 470 l 2,14,15
392 0 m 0,28,29
 380 0 380 0 373.5 9.5 c 128,-1,30
 367 19 367 19 369 32 c 2,31,-1
 481 680 l 2,32,33
 483 689 483 689 489 694.5 c 128,-1,34
 495 700 495 700 504 700 c 0,35,36
 516 700 516 700 522.5 691 c 128,-1,37
 529 682 529 682 527 669 c 2,38,-1
 415 20 l 2,39,40
 414 11 414 11 407.5 5.5 c 128,-1,41
 401 0 401 0 392 0 c 0,28,29
45 187 m 2,42,43
 35 187 35 187 27.5 194.5 c 128,-1,44
 20 202 20 202 20 212 c 256,45,46
 20 222 20 222 27.5 228 c 128,-1,47
 35 234 35 234 45 234 c 2,48,-1
 556 234 l 2,49,50
 567 234 567 234 574 227 c 128,-1,51
 581 220 581 220 581 209 c 0,52,53
 581 199 581 199 574 193 c 128,-1,54
 567 187 567 187 556 187 c 2,55,-1
 45 187 l 2,42,43
EndSplineSet
EndChar

StartChar: slash
Encoding: 47 47 613
Width: 507
Flags: W
LayerCount: 2
Fore
SplineSet
20 -128 m 0,0,1
 10 -128 10 -128 5 -121.5 c 128,-1,2
 0 -115 0 -115 0 -107 c 0,3,4
 0 -101 0 -101 3 -95 c 2,5,-1
 448 776 l 2,6,7
 455 790 455 790 461 794 c 128,-1,8
 467 798 467 798 477 798 c 0,9,10
 484 798 484 798 489.5 793 c 128,-1,11
 495 788 495 788 495 779 c 0,12,13
 495 771 495 771 491 763 c 2,14,-1
 46 -109 l 2,15,16
 40 -120 40 -120 34 -124 c 128,-1,17
 28 -128 28 -128 20 -128 c 0,0,1
EndSplineSet
Substitution2: "'case' Case-Sensitive Forms in Latin lookup 35 subtable" slash.case
Substitution2: "'frac' Diagonal Fractions in Latin lookup 27 subtable" fraction
AlternateSubs2: "'aalt' Access All Alternates in Latin lookup 1 subtable" fraction slash.case
EndChar

StartChar: backslash
Encoding: 92 92 614
Width: 508
Flags: W
LayerCount: 2
Fore
SplineSet
488 -133 m 0,0,1
 475 -133 475 -133 470 -127 c 128,-1,2
 465 -121 465 -121 461 -114 c 2,3,-1
 8 774 l 2,4,5
 6 778 6 778 5.5 781 c 128,-1,6
 5 784 5 784 5 787 c 0,7,8
 5 794 5 794 10 798.5 c 128,-1,9
 15 803 15 803 24 803 c 0,10,11
 40 803 40 803 44 797.5 c 128,-1,12
 48 792 48 792 52 784 c 2,13,-1
 505 -104 l 2,14,15
 508 -110 508 -110 508 -116 c 0,16,17
 508 -123 508 -123 502 -128 c 128,-1,18
 496 -133 496 -133 488 -133 c 0,0,1
EndSplineSet
Substitution2: "'case' Case-Sensitive Forms in Latin lookup 35 subtable" backslash.case
Substitution2: "'aalt' Access All Alternates in Latin lookup 0 subtable" backslash.case
EndChar

StartChar: hyphen
Encoding: 45 45 621
Width: 388
Flags: W
LayerCount: 2
Fore
SplineSet
79 295 m 2,0,1
 71 295 71 295 65.5 301 c 128,-1,2
 60 307 60 307 60 316 c 0,3,4
 60 324 60 324 65.5 329.5 c 128,-1,5
 71 335 71 335 79 335 c 2,6,-1
 309 335 l 2,7,8
 317 335 317 335 322.5 329 c 128,-1,9
 328 323 328 323 328 314 c 0,10,11
 328 306 328 306 322.5 300.5 c 128,-1,12
 317 295 317 295 309 295 c 2,13,-1
 79 295 l 2,0,1
EndSplineSet
Substitution2: "'case' Case-Sensitive Forms in Latin lookup 35 subtable" hyphen.case
Substitution2: "'aalt' Access All Alternates in Latin lookup 0 subtable" hyphen.case
EndChar

StartChar: endash
Encoding: 8211 8211 623
Width: 508
Flags: W
LayerCount: 2
Fore
SplineSet
81 228 m 2,0,1
 72 228 72 228 66 233 c 128,-1,2
 60 238 60 238 60 247 c 0,3,4
 60 257 60 257 66 261.5 c 128,-1,5
 72 266 72 266 81 266 c 2,6,-1
 427 266 l 2,7,8
 436 266 436 266 442 261.5 c 128,-1,9
 448 257 448 257 448 247 c 0,10,11
 448 238 448 238 442 233 c 128,-1,12
 436 228 436 228 427 228 c 2,13,-1
 81 228 l 2,0,1
EndSplineSet
Substitution2: "'case' Case-Sensitive Forms in Latin lookup 35 subtable" endash.case
Substitution2: "'aalt' Access All Alternates in Latin lookup 0 subtable" endash.case
EndChar

StartChar: emdash
Encoding: 8212 8212 624
Width: 822
Flags: W
LayerCount: 2
Fore
SplineSet
81 228 m 2,0,1
 72 228 72 228 66 234 c 128,-1,2
 60 240 60 240 60 249 c 0,3,4
 60 259 60 259 66 265 c 128,-1,5
 72 271 72 271 81 271 c 2,6,-1
 741 271 l 2,7,8
 750 271 750 271 756 265 c 128,-1,9
 762 259 762 259 762 249 c 0,10,11
 762 240 762 240 756 234 c 128,-1,12
 750 228 750 228 741 228 c 2,13,-1
 81 228 l 2,0,1
EndSplineSet
Substitution2: "'case' Case-Sensitive Forms in Latin lookup 35 subtable" emdash.case
Substitution2: "'aalt' Access All Alternates in Latin lookup 0 subtable" emdash.case
EndChar

StartChar: underscore
Encoding: 95 95 628
Width: 654
Flags: W
LayerCount: 2
Fore
SplineSet
82 -160 m 2,0,1
 72 -160 72 -160 66 -154 c 128,-1,2
 60 -148 60 -148 60 -140 c 0,3,4
 60 -130 60 -130 66 -125 c 128,-1,5
 72 -120 72 -120 82 -120 c 2,6,-1
 572 -120 l 2,7,8
 582 -120 582 -120 588 -125 c 128,-1,9
 594 -130 594 -130 594 -140 c 0,10,11
 594 -148 594 -148 588 -154 c 128,-1,12
 582 -160 582 -160 572 -160 c 2,13,-1
 82 -160 l 2,0,1
EndSplineSet
EndChar

StartChar: parenleft
Encoding: 40 40 632
Width: 379
Flags: W
LayerCount: 2
Fore
SplineSet
331 -195 m 0,0,1
 326 -195 326 -195 320 -192 c 0,2,3
 233 -152 233 -152 175.5 -82 c 128,-1,4
 118 -12 118 -12 89 76 c 128,-1,5
 60 164 60 164 60 256 c 0,6,7
 60 349 60 349 90.5 433.5 c 128,-1,8
 121 518 121 518 179.5 588 c 128,-1,9
 238 658 238 658 321 705 c 0,10,11
 326 708 326 708 331 708 c 0,12,13
 339 708 339 708 344 702.5 c 128,-1,14
 349 697 349 697 349 689 c 0,15,16
 349 678 349 678 339 672 c 0,17,18
 264 632 264 632 210.5 566 c 128,-1,19
 157 500 157 500 128.5 419.5 c 128,-1,20
 100 339 100 339 100 256 c 256,21,22
 100 173 100 173 127.5 91.5 c 128,-1,23
 155 10 155 10 208.5 -56 c 128,-1,24
 262 -122 262 -122 339 -160 c 0,25,26
 348 -164 348 -164 348 -177 c 0,27,28
 348 -184 348 -184 344 -189.5 c 128,-1,29
 340 -195 340 -195 331 -195 c 0,0,1
EndSplineSet
Substitution2: "'case' Case-Sensitive Forms in Latin lookup 35 subtable" parenleft.case
Substitution2: "'aalt' Access All Alternates in Latin lookup 0 subtable" parenleft.case
EndChar

StartChar: parenright
Encoding: 41 41 633
Width: 379
Flags: W
LayerCount: 2
Fore
SplineSet
48 -194 m 0,0,1
 41 -194 41 -194 35.5 -188.5 c 128,-1,2
 30 -183 30 -183 30 -175 c 0,3,4
 30 -164 30 -164 40 -158 c 0,5,6
 115 -118 115 -118 168.5 -52 c 128,-1,7
 222 14 222 14 250.5 94.5 c 128,-1,8
 279 175 279 175 279 258 c 256,9,10
 279 341 279 341 251.5 422 c 128,-1,11
 224 503 224 503 170.5 569.5 c 128,-1,12
 117 636 117 636 40 674 c 0,13,14
 31 679 31 679 31 691 c 0,15,16
 31 699 31 699 35 704 c 128,-1,17
 39 709 39 709 48 709 c 0,18,19
 53 709 53 709 59 706 c 0,20,21
 146 666 146 666 203.5 596 c 128,-1,22
 261 526 261 526 290 438.5 c 128,-1,23
 319 351 319 351 319 258 c 0,24,25
 319 166 319 166 288.5 80.5 c 128,-1,26
 258 -5 258 -5 199.5 -75 c 128,-1,27
 141 -145 141 -145 58 -191 c 0,28,29
 54 -194 54 -194 48 -194 c 0,0,1
EndSplineSet
Substitution2: "'case' Case-Sensitive Forms in Latin lookup 35 subtable" parenright.case
Substitution2: "'aalt' Access All Alternates in Latin lookup 0 subtable" parenright.case
EndChar

StartChar: braceleft
Encoding: 123 123 634
Width: 436
Flags: W
LayerCount: 2
Fore
SplineSet
369 -200 m 0,0,1
 367 -200 367 -200 365.5 -199.5 c 128,-1,2
 364 -199 364 -199 362 -199 c 0,3,4
 282 -181 282 -181 240.5 -154 c 128,-1,5
 199 -127 199 -127 185 -88.5 c 128,-1,6
 171 -50 171 -50 171 0 c 2,7,-1
 171 79 l 2,8,9
 171 118 171 118 160.5 154 c 128,-1,10
 150 190 150 190 124 213 c 128,-1,11
 98 236 98 236 51 236 c 2,12,-1
 45 236 l 2,13,14
 37 236 37 236 31 242 c 128,-1,15
 25 248 25 248 25 256 c 256,16,17
 25 264 25 264 31 269 c 128,-1,18
 37 274 37 274 45 274 c 2,19,-1
 51 274 l 2,20,21
 100 274 100 274 126 297 c 128,-1,22
 152 320 152 320 161.5 356 c 128,-1,23
 171 392 171 392 171 431 c 2,24,-1
 171 510 l 2,25,26
 171 562 171 562 186 595.5 c 128,-1,27
 201 629 201 629 227 649.5 c 128,-1,28
 253 670 253 670 287 683.5 c 128,-1,29
 321 697 321 697 360 708 c 0,30,31
 377 713 377 713 381.5 706 c 128,-1,32
 386 699 386 699 386 694 c 0,33,34
 386 688 386 688 382 683 c 128,-1,35
 378 678 378 678 370 676 c 0,36,37
 303 656 303 656 269 635 c 128,-1,38
 235 614 235 614 223 583.5 c 128,-1,39
 211 553 211 553 211 504 c 2,40,-1
 211 429 l 2,41,42
 211 365 211 365 188 315.5 c 128,-1,43
 165 266 165 266 121 255 c 1,44,-1
 119 256 l 1,45,46
 166 244 166 244 188.5 195 c 128,-1,47
 211 146 211 146 211 81 c 2,48,-1
 211 6 l 2,49,50
 211 -42 211 -42 222.5 -73.5 c 128,-1,51
 234 -105 234 -105 268.5 -126 c 128,-1,52
 303 -147 303 -147 370 -166 c 0,53,54
 388 -171 388 -171 385 -189 c 0,55,56
 384 -193 384 -193 379.5 -196.5 c 128,-1,57
 375 -200 375 -200 369 -200 c 0,0,1
EndSplineSet
Substitution2: "'case' Case-Sensitive Forms in Latin lookup 35 subtable" braceleft.case
Substitution2: "'aalt' Access All Alternates in Latin lookup 0 subtable" braceleft.case
EndChar

StartChar: braceright
Encoding: 125 125 635
Width: 436
Flags: W
LayerCount: 2
Fore
SplineSet
68 -200 m 0,0,1
 58 -200 58 -200 54 -194.5 c 128,-1,2
 50 -189 50 -189 50 -184 c 0,3,4
 50 -178 50 -178 54.5 -173 c 128,-1,5
 59 -168 59 -168 66 -166 c 0,6,7
 133 -146 133 -146 167 -125 c 128,-1,8
 201 -104 201 -104 213 -73 c 128,-1,9
 225 -42 225 -42 225 6 c 2,10,-1
 225 81 l 2,11,12
 225 145 225 145 248.5 195 c 128,-1,13
 272 245 272 245 315 255 c 1,14,-1
 317 254 l 1,15,16
 271 266 271 266 248 315.5 c 128,-1,17
 225 365 225 365 225 429 c 2,18,-1
 225 504 l 2,19,20
 225 553 225 553 213.5 584 c 128,-1,21
 202 615 202 615 168 636.5 c 128,-1,22
 134 658 134 658 66 676 c 0,23,24
 48 681 48 681 51 699 c 0,25,26
 53 704 53 704 57 707 c 128,-1,27
 61 710 61 710 67 710 c 0,28,29
 69 710 69 710 71 709.5 c 128,-1,30
 73 709 73 709 74 709 c 0,31,32
 155 692 155 692 196 664.5 c 128,-1,33
 237 637 237 637 251 598.5 c 128,-1,34
 265 560 265 560 265 510 c 2,35,-1
 265 431 l 2,36,37
 265 392 265 392 275.5 356 c 128,-1,38
 286 320 286 320 312 297 c 128,-1,39
 338 274 338 274 385 274 c 2,40,-1
 391 274 l 2,41,42
 399 274 399 274 405 268 c 128,-1,43
 411 262 411 262 411 254 c 0,44,45
 411 247 411 247 405 241.5 c 128,-1,46
 399 236 399 236 391 236 c 2,47,-1
 385 236 l 2,48,49
 336 236 336 236 310 213 c 128,-1,50
 284 190 284 190 274.5 154 c 128,-1,51
 265 118 265 118 265 79 c 2,52,-1
 265 0 l 2,53,54
 265 -37 265 -37 255.5 -63 c 128,-1,55
 246 -89 246 -89 224.5 -109.5 c 128,-1,56
 203 -130 203 -130 166 -150.5 c 128,-1,57
 129 -171 129 -171 74 -199 c 0,58,59
 73 -200 73 -200 71.5 -200 c 128,-1,60
 70 -200 70 -200 68 -200 c 0,0,1
EndSplineSet
Substitution2: "'case' Case-Sensitive Forms in Latin lookup 35 subtable" braceright.case
Substitution2: "'aalt' Access All Alternates in Latin lookup 0 subtable" braceright.case
EndChar

StartChar: bracketleft
Encoding: 91 91 636
Width: 393
Flags: W
LayerCount: 2
Fore
SplineSet
100 -190 m 2,0,1
 92 -190 92 -190 86 -184 c 128,-1,2
 80 -178 80 -178 80 -170 c 2,3,-1
 80 680 l 2,4,5
 80 688 80 688 86 694 c 128,-1,6
 92 700 92 700 100 700 c 2,7,-1
 333 700 l 2,8,9
 341 700 341 700 347 694.5 c 128,-1,10
 353 689 353 689 353 681 c 256,11,12
 353 673 353 673 347 667.5 c 128,-1,13
 341 662 341 662 333 662 c 2,14,-1
 110 662 l 1,15,-1
 120 669 l 1,16,-1
 120 -163 l 1,17,-1
 114 -150 l 1,18,-1
 333 -150 l 2,19,20
 341 -150 341 -150 347 -156.5 c 128,-1,21
 353 -163 353 -163 353 -171 c 0,22,23
 353 -178 353 -178 347 -184 c 128,-1,24
 341 -190 341 -190 333 -190 c 2,25,-1
 100 -190 l 2,0,1
EndSplineSet
Substitution2: "'case' Case-Sensitive Forms in Latin lookup 35 subtable" bracketleft.case
Substitution2: "'aalt' Access All Alternates in Latin lookup 0 subtable" bracketleft.case
EndChar

StartChar: bracketright
Encoding: 93 93 637
Width: 393
Flags: W
LayerCount: 2
Fore
SplineSet
293 700 m 2,0,1
 301 700 301 700 307 694 c 128,-1,2
 313 688 313 688 313 680 c 2,3,-1
 313 -170 l 2,4,5
 313 -178 313 -178 307 -184 c 128,-1,6
 301 -190 301 -190 293 -190 c 2,7,-1
 60 -190 l 2,8,9
 52 -190 52 -190 46 -184.5 c 128,-1,10
 40 -179 40 -179 40 -171 c 256,11,12
 40 -163 40 -163 46 -157.5 c 128,-1,13
 52 -152 52 -152 60 -152 c 2,14,-1
 283 -152 l 1,15,-1
 273 -159 l 1,16,-1
 273 673 l 1,17,-1
 279 660 l 1,18,-1
 60 660 l 2,19,20
 52 660 52 660 46 666.5 c 128,-1,21
 40 673 40 673 40 681 c 256,22,23
 40 689 40 689 46 694.5 c 128,-1,24
 52 700 52 700 60 700 c 2,25,-1
 293 700 l 2,0,1
EndSplineSet
Substitution2: "'case' Case-Sensitive Forms in Latin lookup 35 subtable" bracketright.case
Substitution2: "'aalt' Access All Alternates in Latin lookup 0 subtable" bracketright.case
EndChar

StartChar: quoteleft
Encoding: 8216 8216 648
Width: 193
Flags: W
LayerCount: 2
Fore
SplineSet
40 608 m 0,0,1
 40 634 40 634 55 656.5 c 128,-1,2
 70 679 70 679 91 693.5 c 128,-1,3
 112 708 112 708 130 708 c 0,4,5
 137 708 137 708 142.5 704.5 c 128,-1,6
 148 701 148 701 148 690 c 256,7,8
 148 679 148 679 141 678 c 128,-1,9
 134 677 134 677 117 669 c 0,10,11
 99 660 99 660 89.5 647 c 128,-1,12
 80 634 80 634 80 618 c 0,13,14
 80 605 80 605 86.5 598 c 128,-1,15
 93 591 93 591 101 591 c 0,16,17
 108 591 108 591 115.5 593.5 c 128,-1,18
 123 596 123 596 127 600 c 1,19,20
 132 595 132 595 134 589 c 128,-1,21
 136 583 136 583 135 577 c 0,22,23
 134 565 134 565 120.5 556 c 128,-1,24
 107 547 107 547 91 547 c 0,25,26
 69 547 69 547 54.5 566.5 c 128,-1,27
 40 586 40 586 40 608 c 0,0,1
EndSplineSet
EndChar

StartChar: quoteright
Encoding: 8217 8217 649
Width: 167
Flags: W
LayerCount: 2
Fore
SplineSet
126 647 m 0,0,1
 126 622 126 622 111 599 c 128,-1,2
 96 576 96 576 75.5 561.5 c 128,-1,3
 55 547 55 547 36 547 c 0,4,5
 29 547 29 547 23.5 550.5 c 128,-1,6
 18 554 18 554 18 565 c 256,7,8
 18 576 18 576 25.5 577 c 128,-1,9
 33 578 33 578 49 586 c 0,10,11
 67 595 67 595 76.5 608 c 128,-1,12
 86 621 86 621 86 637 c 0,13,14
 86 651 86 651 79.5 657.5 c 128,-1,15
 73 664 73 664 65 664 c 0,16,17
 58 664 58 664 51 661.5 c 128,-1,18
 44 659 44 659 39 655 c 1,19,20
 35 660 35 660 32.5 666 c 128,-1,21
 30 672 30 672 31 678 c 0,22,23
 33 690 33 690 46 699 c 128,-1,24
 59 708 59 708 75 708 c 0,25,26
 97 708 97 708 111.5 688.5 c 128,-1,27
 126 669 126 669 126 647 c 0,0,1
EndSplineSet
EndChar

StartChar: guilsinglleft
Encoding: 8249 8249 652
Width: 273
Flags: W
LayerCount: 2
Fore
SplineSet
203 50 m 0,0,1
 194 50 194 50 186 59 c 2,2,-1
 52 238 l 2,3,4
 46 246 46 246 46 256 c 0,5,6
 46 265 46 265 52 272 c 2,7,-1
 186 451 l 2,8,9
 194 461 194 461 204 461 c 0,10,11
 213 461 213 461 219 456 c 128,-1,12
 225 451 225 451 225 442 c 256,13,14
 225 433 225 433 218 426 c 2,15,-1
 89 249 l 1,16,-1
 86 265 l 1,17,-1
 218 87 l 2,18,19
 221 83 221 83 223 79.5 c 128,-1,20
 225 76 225 76 225 72 c 0,21,22
 225 60 225 60 217.5 55 c 128,-1,23
 210 50 210 50 203 50 c 0,0,1
EndSplineSet
Substitution2: "'case' Case-Sensitive Forms in Latin lookup 35 subtable" guilsinglleft.case
Substitution2: "'aalt' Access All Alternates in Latin lookup 0 subtable" guilsinglleft.case
EndChar

StartChar: guilsinglright
Encoding: 8250 8250 653
Width: 273
Flags: W
LayerCount: 2
Fore
SplineSet
68 461 m 0,0,1
 78 461 78 461 85 452 c 2,2,-1
 219 273 l 2,3,4
 225 266 225 266 225 255 c 0,5,6
 225 247 225 247 219 239 c 2,7,-1
 85 60 l 2,8,9
 77 50 77 50 67 50 c 0,10,11
 58 50 58 50 52 55 c 128,-1,12
 46 60 46 60 46 69 c 256,13,14
 46 78 46 78 53 85 c 2,15,-1
 182 262 l 1,16,-1
 185 246 l 1,17,-1
 53 424 l 2,18,19
 50 428 50 428 48 431.5 c 128,-1,20
 46 435 46 435 46 439 c 0,21,22
 46 451 46 451 53.5 456 c 128,-1,23
 61 461 61 461 68 461 c 0,0,1
EndSplineSet
Substitution2: "'case' Case-Sensitive Forms in Latin lookup 35 subtable" guilsinglright.case
Substitution2: "'aalt' Access All Alternates in Latin lookup 0 subtable" guilsinglright.case
EndChar

StartChar: quotedbl
Encoding: 34 34 654
Width: 367
Flags: W
LayerCount: 2
Fore
SplineSet
76 681 m 2,0,1
 79 700 79 700 98 700 c 2,2,-1
 131 700 l 2,3,4
 139 700 139 700 140.5 694.5 c 128,-1,5
 142 689 142 689 140 681 c 2,6,-1
 78 463 l 2,7,8
 74 446 74 446 55 446 c 0,9,10
 44 446 44 446 47 467 c 2,11,-1
 76 681 l 2,0,1
256 681 m 2,12,13
 259 700 259 700 278 700 c 2,14,-1
 311 700 l 2,15,16
 319 699 319 699 320.5 694 c 128,-1,17
 322 689 322 689 320 681 c 2,18,-1
 258 463 l 2,19,20
 254 446 254 446 235 446 c 0,21,22
 224 446 224 446 227 467 c 2,23,-1
 256 681 l 2,12,13
EndSplineSet
EndChar

StartChar: quotesingle
Encoding: 39 39 655
Width: 187
Flags: W
LayerCount: 2
Fore
SplineSet
76 681 m 2,0,1
 79 700 79 700 98 700 c 2,2,-1
 131 700 l 2,3,4
 139 699 139 699 140.5 694 c 128,-1,5
 142 689 142 689 140 681 c 2,6,-1
 78 463 l 2,7,8
 74 446 74 446 55 446 c 0,9,10
 44 446 44 446 47 467 c 2,11,-1
 76 681 l 2,0,1
EndSplineSet
EndChar

StartChar: florin
Encoding: 402 402 660
Width: 600
Flags: W
LayerCount: 2
Fore
SplineSet
69 -96 m 0,0,1
 47 -96 47 -96 30.5 -90.5 c 128,-1,2
 14 -85 14 -85 14 -70 c 0,3,4
 14 -62 14 -62 19 -57 c 128,-1,5
 24 -52 24 -52 34 -52 c 0,6,7
 42 -52 42 -52 51 -56 c 128,-1,8
 60 -60 60 -60 69 -60 c 0,9,10
 121 -60 121 -60 151 -31 c 128,-1,11
 181 -2 181 -2 188 44 c 2,12,-1
 268 508 l 2,13,14
 279 576 279 576 318 617.5 c 128,-1,15
 357 659 357 659 428 659 c 0,16,17
 442 659 442 659 451.5 658.5 c 128,-1,18
 461 658 461 658 469 656 c 0,19,20
 478 655 478 655 483 649 c 128,-1,21
 488 643 488 643 486 633 c 0,22,23
 485 626 485 626 479 622.5 c 128,-1,24
 473 619 473 619 462 620 c 0,25,26
 457 621 457 621 450.5 621.5 c 128,-1,27
 444 622 444 622 436 622 c 0,28,29
 381 622 381 622 351 593.5 c 128,-1,30
 321 565 321 565 313 518 c 2,31,-1
 234 55 l 2,32,33
 222 -13 222 -13 183 -54.5 c 128,-1,34
 144 -96 144 -96 69 -96 c 0,0,1
159 376 m 2,35,36
 150 376 150 376 144 381.5 c 128,-1,37
 138 387 138 387 138 395 c 0,38,39
 138 404 138 404 144 409.5 c 128,-1,40
 150 415 150 415 159 415 c 2,41,-1
 411 411 l 2,42,43
 420 411 420 411 426 405.5 c 128,-1,44
 432 400 432 400 432 391 c 0,45,46
 432 383 432 383 426 377.5 c 128,-1,47
 420 372 420 372 411 372 c 2,48,-1
 159 376 l 2,35,36
EndSplineSet
EndChar

StartChar: at
Encoding: 64 64 661
Width: 975
Flags: W
LayerCount: 2
Fore
SplineSet
700 55 m 0,0,1
 670 55 670 55 649 66 c 128,-1,2
 628 77 628 77 618 97.5 c 128,-1,3
 608 118 608 118 611 145 c 2,4,-1
 620 222 l 1,5,-1
 634 230 l 1,6,7
 612 176 612 176 576 136.5 c 128,-1,8
 540 97 540 97 497.5 76 c 128,-1,9
 455 55 455 55 412 55 c 0,10,11
 367 55 367 55 334.5 78 c 128,-1,12
 302 101 302 101 284 138.5 c 128,-1,13
 266 176 266 176 266 220 c 0,14,15
 266 267 266 267 284 317.5 c 128,-1,16
 302 368 302 368 334.5 412 c 128,-1,17
 367 456 367 456 411 483 c 128,-1,18
 455 510 455 510 507 510 c 0,19,20
 573 510 573 510 611 470 c 128,-1,21
 649 430 649 430 658 376 c 1,22,-1
 641 331 l 1,23,-1
 664 477 l 2,24,25
 666 488 666 488 671 494 c 128,-1,26
 676 500 676 500 687 500 c 256,27,28
 698 500 698 500 702 493.5 c 128,-1,29
 706 487 706 487 704 472 c 2,30,-1
 654 156 l 2,31,32
 649 122 649 122 665 107 c 128,-1,33
 681 92 681 92 700 92 c 0,34,35
 738 92 738 92 771 118.5 c 128,-1,36
 804 145 804 145 830 188.5 c 128,-1,37
 856 232 856 232 870.5 286.5 c 128,-1,38
 885 341 885 341 885 396 c 0,39,40
 885 478 885 478 847 540 c 128,-1,41
 809 602 809 602 739.5 637 c 128,-1,42
 670 672 670 672 576 672 c 0,43,44
 471 672 471 672 381 640.5 c 128,-1,45
 291 609 291 609 223.5 548.5 c 128,-1,46
 156 488 156 488 118 402 c 128,-1,47
 80 316 80 316 80 206 c 0,48,49
 80 145 80 145 99 86 c 128,-1,50
 118 27 118 27 158 -20.5 c 128,-1,51
 198 -68 198 -68 261.5 -96 c 128,-1,52
 325 -124 325 -124 414 -124 c 0,53,54
 469 -124 469 -124 507.5 -115.5 c 128,-1,55
 546 -107 546 -107 576.5 -93 c 128,-1,56
 607 -79 607 -79 639 -65 c 0,57,58
 644 -63 644 -63 651 -63 c 128,-1,59
 658 -63 658 -63 662 -73 c 0,60,61
 669 -90 669 -90 653 -98 c 0,62,63
 610 -119 610 -119 554 -140.5 c 128,-1,64
 498 -162 498 -162 414 -162 c 0,65,66
 313 -162 313 -162 242 -130.5 c 128,-1,67
 171 -99 171 -99 126.5 -46 c 128,-1,68
 82 7 82 7 61 72.5 c 128,-1,69
 40 138 40 138 40 206 c 0,70,71
 40 323 40 323 81.5 416 c 128,-1,72
 123 509 123 509 196.5 575 c 128,-1,73
 270 641 270 641 367 675.5 c 128,-1,74
 464 710 464 710 576 710 c 0,75,76
 690 710 690 710 768 667.5 c 128,-1,77
 846 625 846 625 885.5 553.5 c 128,-1,78
 925 482 925 482 925 396 c 0,79,80
 925 335 925 335 907.5 274.5 c 128,-1,81
 890 214 890 214 859.5 164.5 c 128,-1,82
 829 115 829 115 788 85 c 128,-1,83
 747 55 747 55 700 55 c 0,0,1
414 93 m 0,84,85
 452 93 452 93 491.5 113.5 c 128,-1,86
 531 134 531 134 564.5 169.5 c 128,-1,87
 598 205 598 205 618.5 249.5 c 128,-1,88
 639 294 639 294 639 343 c 0,89,90
 639 377 639 377 623.5 406.5 c 128,-1,91
 608 436 608 436 578.5 454 c 128,-1,92
 549 472 549 472 508 472 c 0,93,94
 461 472 461 472 424 448 c 128,-1,95
 387 424 387 424 361 385.5 c 128,-1,96
 335 347 335 347 321.5 303.5 c 128,-1,97
 308 260 308 260 308 222 c 0,98,99
 308 161 308 161 340 127 c 128,-1,100
 372 93 372 93 414 93 c 0,84,85
EndSplineSet
Substitution2: "'case' Case-Sensitive Forms in Latin lookup 35 subtable" at.case
Substitution2: "'aalt' Access All Alternates in Latin lookup 0 subtable" at.case
EndChar

StartChar: ampersand
Encoding: 38 38 662
Width: 669
Flags: W
LayerCount: 2
Fore
SplineSet
269 -10 m 0,0,1
 198 -10 198 -10 144 23.5 c 128,-1,2
 90 57 90 57 60 110 c 128,-1,3
 30 163 30 163 30 221 c 0,4,5
 30 263 30 263 47.5 303.5 c 128,-1,6
 65 344 65 344 100.5 377 c 128,-1,7
 136 410 136 410 191 428 c 1,8,-1
 222 397 l 1,9,10
 142 379 142 379 107 330.5 c 128,-1,11
 72 282 72 282 72 226 c 0,12,13
 72 176 72 176 95 131 c 128,-1,14
 118 86 118 86 162.5 58 c 128,-1,15
 207 30 207 30 269 30 c 0,16,17
 340 30 340 30 390 51 c 128,-1,18
 440 72 440 72 473 108 c 128,-1,19
 506 144 506 144 526 188.5 c 128,-1,20
 546 233 546 233 555 279 c 0,21,22
 557 287 557 287 562.5 291.5 c 128,-1,23
 568 296 568 296 576 296 c 0,24,25
 585 296 585 296 591 289.5 c 128,-1,26
 597 283 597 283 595 273 c 0,27,28
 587 221 587 221 563 170.5 c 128,-1,29
 539 120 539 120 499 79 c 128,-1,30
 459 38 459 38 401.5 14 c 128,-1,31
 344 -10 344 -10 269 -10 c 0,0,1
624 4 m 0,32,33
 621 4 621 4 618 5.5 c 128,-1,34
 615 7 615 7 612 8 c 0,35,36
 554 51 554 51 498.5 93 c 128,-1,37
 443 135 443 135 385.5 188 c 128,-1,38
 328 241 328 241 262 316 c 0,39,40
 227 356 227 356 199 396.5 c 128,-1,41
 171 437 171 437 154.5 476.5 c 128,-1,42
 138 516 138 516 138 553 c 0,43,44
 138 599 138 599 159.5 634.5 c 128,-1,45
 181 670 181 670 221 690 c 128,-1,46
 261 710 261 710 316 710 c 0,47,48
 389 710 389 710 433 681.5 c 128,-1,49
 477 653 477 653 496 616 c 0,50,51
 497 615 497 615 498.5 611.5 c 128,-1,52
 500 608 500 608 500 604 c 0,53,54
 500 599 500 599 494.5 592.5 c 128,-1,55
 489 586 489 586 480 586 c 0,56,57
 475 586 475 586 470.5 588.5 c 128,-1,58
 466 591 466 591 463 595 c 0,59,60
 444 625 444 625 410.5 647.5 c 128,-1,61
 377 670 377 670 316 670 c 0,62,63
 249 670 249 670 214.5 637.5 c 128,-1,64
 180 605 180 605 180 551 c 0,65,66
 180 521 180 521 195 485 c 128,-1,67
 210 449 210 449 236 411 c 128,-1,68
 262 373 262 373 295 336 c 0,69,70
 338 287 338 287 384 243 c 128,-1,71
 430 199 430 199 475 161.5 c 128,-1,72
 520 124 520 124 561 94 c 128,-1,73
 602 64 602 64 635 41 c 0,74,75
 640 38 640 38 642 34 c 128,-1,76
 644 30 644 30 644 25 c 0,77,78
 644 18 644 18 638.5 11 c 128,-1,79
 633 4 633 4 624 4 c 0,32,33
EndSplineSet
EndChar

StartChar: paragraph
Encoding: 182 182 663
Width: 620
Flags: W
LayerCount: 2
Fore
SplineSet
500 0 m 256,0,1
 490 0 490 0 485 6.5 c 128,-1,2
 480 13 480 13 480 23 c 2,3,-1
 480 671 l 1,4,-1
 499 660 l 1,5,-1
 361 660 l 1,6,-1
 378 671 l 1,7,-1
 378 55 l 2,8,9
 378 24 378 24 364.5 -2 c 128,-1,10
 351 -28 351 -28 325.5 -43.5 c 128,-1,11
 300 -59 300 -59 265 -59 c 0,12,13
 231 -59 231 -59 206.5 -46 c 128,-1,14
 182 -33 182 -33 182 -17 c 0,15,16
 182 -9 182 -9 188 -2.5 c 128,-1,17
 194 4 194 4 204 4 c 0,18,19
 211 4 211 4 216.5 1 c 128,-1,20
 222 -2 222 -2 228 -7 c 0,21,22
 235 -12 235 -12 243.5 -16.5 c 128,-1,23
 252 -21 252 -21 265 -21 c 0,24,25
 297 -21 297 -21 317.5 2 c 128,-1,26
 338 25 338 25 338 56 c 2,27,-1
 338 291 l 1,28,-1
 355 264 l 1,29,-1
 313 264 l 2,30,31
 217 266 217 266 159 288 c 128,-1,32
 101 310 101 310 75.5 358.5 c 128,-1,33
 50 407 50 407 50 487 c 0,34,35
 50 571 50 571 77.5 617 c 128,-1,36
 105 663 105 663 167 681.5 c 128,-1,37
 229 700 229 700 334 700 c 2,38,-1
 500 700 l 2,39,40
 508 700 508 700 514 694 c 128,-1,41
 520 688 520 688 520 680 c 2,42,-1
 520 23 l 2,43,44
 520 13 520 13 515 6.5 c 128,-1,45
 510 0 510 0 500 0 c 256,0,1
EndSplineSet
EndChar

StartChar: section
Encoding: 167 167 664
Width: 524
Flags: W
LayerCount: 2
Fore
SplineSet
474 279 m 0,0,1
 474 231 474 231 436 192 c 128,-1,2
 398 153 398 153 327 145 c 1,3,-1
 324 158 l 1,4,5
 382 129 382 129 409 99 c 128,-1,6
 436 69 436 69 436 22 c 0,7,8
 436 -20 436 -20 421.5 -50.5 c 128,-1,9
 407 -81 407 -81 381.5 -100.5 c 128,-1,10
 356 -120 356 -120 323.5 -129.5 c 128,-1,11
 291 -139 291 -139 254 -139 c 0,12,13
 209 -139 209 -139 170.5 -125.5 c 128,-1,14
 132 -112 132 -112 103.5 -93.5 c 128,-1,15
 75 -75 75 -75 59 -60 c 0,16,17
 55 -56 55 -56 52 -51.5 c 128,-1,18
 49 -47 49 -47 49 -41 c 0,19,20
 49 -34 49 -34 54.5 -28 c 128,-1,21
 60 -22 60 -22 68 -22 c 0,22,23
 71 -22 71 -22 75 -23 c 128,-1,24
 79 -24 79 -24 82 -27 c 0,25,26
 96 -41 96 -41 120.5 -58 c 128,-1,27
 145 -75 145 -75 178 -87 c 128,-1,28
 211 -99 211 -99 252 -99 c 0,29,30
 268 -99 268 -99 292 -95.5 c 128,-1,31
 316 -92 316 -92 340 -80.5 c 128,-1,32
 364 -69 364 -69 380 -44.5 c 128,-1,33
 396 -20 396 -20 396 22 c 0,34,35
 396 51 396 51 376.5 74 c 128,-1,36
 357 97 357 97 321.5 115 c 128,-1,37
 286 133 286 133 236 148 c 0,38,39
 159 171 159 171 112.5 206 c 128,-1,40
 66 241 66 241 66 305 c 0,41,42
 66 329 66 329 75 351.5 c 128,-1,43
 84 374 84 374 101.5 393 c 128,-1,44
 119 412 119 412 147 425 c 128,-1,45
 175 438 175 438 212 443 c 1,46,-1
 210 430 l 1,47,48
 159 450 159 450 133.5 485 c 128,-1,49
 108 520 108 520 108 562 c 0,50,51
 108 603 108 603 125.5 630.5 c 128,-1,52
 143 658 143 658 170 674.5 c 128,-1,53
 197 691 197 691 227 698 c 128,-1,54
 257 705 257 705 282 705 c 0,55,56
 332 705 332 705 367 688 c 128,-1,57
 402 671 402 671 426 651 c 0,58,59
 435 644 435 644 435 636 c 0,60,61
 435 629 435 629 430.5 622 c 128,-1,62
 426 615 426 615 416 615 c 0,63,64
 408 615 408 615 403 619 c 0,65,66
 381 636 381 636 352 650.5 c 128,-1,67
 323 665 323 665 282 665 c 0,68,69
 252 665 252 665 221 655 c 128,-1,70
 190 645 190 645 169 622.5 c 128,-1,71
 148 600 148 600 148 562 c 0,72,73
 148 529 148 529 166.5 506 c 128,-1,74
 185 483 185 483 212 469 c 128,-1,75
 239 455 239 455 264.5 447 c 128,-1,76
 290 439 290 439 304 435 c 0,77,78
 383 411 383 411 428.5 377.5 c 128,-1,79
 474 344 474 344 474 279 c 0,0,1
244 188 m 1,80,-1
 304 176 l 1,81,82
 345 176 345 176 374 191.5 c 128,-1,83
 403 207 403 207 418.5 230.5 c 128,-1,84
 434 254 434 254 434 279 c 0,85,86
 434 323 434 323 400.5 348 c 128,-1,87
 367 373 367 373 296 395 c 1,88,-1
 224 410 l 1,89,90
 193 410 193 410 166 395.5 c 128,-1,91
 139 381 139 381 122.5 357.5 c 128,-1,92
 106 334 106 334 106 307 c 0,93,94
 106 267 106 267 138.5 239 c 128,-1,95
 171 211 171 211 244 188 c 1,80,-1
EndSplineSet
EndChar

